{
.appVersion = "1230";
DisplayStrings = (
"/Uring",
"/f_f  /f_f_i  /f_f_i_dflt  /f_f_l  /f_i  /f_i_trk  /f_l   \012ff ffi ff/idotless  ffl fi f/idotless  fl fi fl",
"/idotless",
"/f_i",
"/f_l",
"HHWHOWOOHHWOH\012WAFTING VATING OVO\012QUICK ZEPHYRS\012VEX BOLD JIM  \012zephyrs nnynoyoo Popayan\012nxoeAHIFTJOhmrbpdqf\012nnynoyoonn\012ABCDEFGHIJKLMNOPQRSTUVWXYZ\012abcdefghijklmnopqrstuvonwonkxyz"
);
classes = (
{
automatic = 1;

glyphs = (
{
glyphname = A;
lastChange = "2019-10-18 18:46:45 +0000";
layers = (
{
anchors = (
{
name = btm;
position = "{341, 0}";
},
{
name = top;
position = "{343, 725}";
}
);
layerId = "12ECCE5E-04E9-4725-8BD5-31F21F15BB81";
paths = (
{
closed = 1;
nodes = (
"109 0 LINE",
"172 144 LINE",
"509 144 LINE",
"572 0 LINE",
"701 0 LINE",
"341 759 LINE",
"-16 0 LINE"
);
},
{
closed = 1;
nodes = (
"342 526 LINE",
"465 245 LINE",
"217 245 LINE"
);
}
);
width = 685;
}
);
leftKerningGroup = A;
rightKerningGroup = A;
unicode = 0041;
userData = {
com.typemytype.robofont.mark = (
0.656,
1,
0.6,
1
);
};
},
{
glyphname = Aogonek;
lastChange = "2018-06-22 22:17:12 +0000";
layers = (
{
components = (
{
name = A;
}
);
layerId = "12ECCE5E-04E9-4725-8BD5-31F21F15BB81";
paths = (
{
closed = 1;
nodes = (
"667 -264 OFFCURVE",
"685 -261 OFFCURVE",
"697 -259 CURVE",
"697 -166 LINE",
"690 -167 OFFCURVE",
"673 -168 OFFCURVE",
"664 -168 CURVE SMOOTH",
"612 -168 OFFCURVE",
"594 -135 OFFCURVE",
"594 -108 CURVE SMOOTH",
"594 -45 OFFCURVE",
"652 -13 OFFCURVE",
"697 0 CURVE",
"644 30 LINE",
"597 13 LINE",
"563 -6 OFFCURVE",
"497 -51 OFFCURVE",
"497 -130 CURVE SMOOTH",
"497 -227 OFFCURVE",
"560 -264 OFFCURVE",
"648 -264 CURVE SMOOTH"
);
}
);
width = 685;
}
);
leftKerningGroup = A;
rightKerningGroup = A;
unicode = 0104;
userData = {
com.typemytype.robofont.mark = (
0.967,
0.6,
1,
1
);
};
},
{
glyphname = AE;
lastChange = "2018-06-22 19:03:15 +0000";
layers = (
{
anchors = (
{
name = top;
position = "{618, 725}";
}
);
layerId = "12ECCE5E-04E9-4725-8BD5-31F21F15BB81";
paths = (
{
closed = 1;
nodes = (
"94 0 LINE",
"212 186 LINE",
"450 186 LINE",
"450 0 LINE",
"780 0 LINE",
"780 99 LINE",
"559 99 LINE",
"559 335 LINE",
"716 335 LINE",
"716 438 LINE",
"559 438 LINE",
"559 637 LINE",
"757 637 LINE",
"757 735 LINE",
"450 736 LINE",
"450 735 LINE",
"-43 0 LINE"
);
},
{
closed = 1;
nodes = (
"416 511 LINE",
"450 572 LINE",
"450 281 LINE",
"273 281 LINE"
);
}
);
width = 815;
}
);
leftKerningGroup = AE;
rightKerningGroup = E;
rightMetricsKey = E;
unicode = 00C6;
userData = {
com.typemytype.robofont.mark = (
0.656,
1,
0.6,
1
);
};
},
{
glyphname = B;
lastChange = "2018-06-22 18:32:31 +0000";
layers = (
{
anchors = (
{
name = btm;
position = "{278, -10}";
},
{
name = top;
position = "{227, 725}";
}
);
layerId = "12ECCE5E-04E9-4725-8BD5-31F21F15BB81";
paths = (
{
closed = 1;
nodes = (
"288 0 LINE SMOOTH",
"543 0 OFFCURVE",
"573 119 OFFCURVE",
"573 224 CURVE SMOOTH",
"573 300 OFFCURVE",
"535 378 OFFCURVE",
"435 393 CURVE",
"504 425 OFFCURVE",
"527 495 OFFCURVE",
"527 554 CURVE SMOOTH",
"527 625 OFFCURVE",
"504 735 OFFCURVE",
"265 735 CURVE SMOOTH",
"78 735 LINE",
"78 0 LINE"
);
},
{
closed = 1;
nodes = (
"188 334 LINE",
"312 334 LINE SMOOTH",
"412 334 OFFCURVE",
"457 292 OFFCURVE",
"457 223 CURVE SMOOTH",
"457 165 OFFCURVE",
"439 94 OFFCURVE",
"303 94 CURVE SMOOTH",
"188 94 LINE"
);
},
{
closed = 1;
nodes = (
"188 640 LINE",
"278 640 LINE SMOOTH",
"386 640 OFFCURVE",
"414 596 OFFCURVE",
"414 545 CURVE SMOOTH",
"414 483 OFFCURVE",
"386 423 OFFCURVE",
"283 423 CURVE SMOOTH",
"188 423 LINE"
);
}
);
width = 626;
}
);
leftKerningGroup = H;
rightKerningGroup = B;
unicode = 0042;
userData = {
com.typemytype.robofont.mark = (
0.656,
1,
0.6,
1
);
};
},
{
glyphname = C;
lastChange = "2018-06-22 22:17:12 +0000";
layers = (
{
anchors = (
{
name = btm;
position = "{405, -10}";
},
{
name = top;
position = "{393, 725}";
}
);
layerId = "12ECCE5E-04E9-4725-8BD5-31F21F15BB81";
paths = (
{
closed = 1;
nodes = (
"498 -7 OFFCURVE",
"585 26 OFFCURVE",
"611 50 CURVE",
"578 145 LINE",
"519 109 OFFCURVE",
"465 95 OFFCURVE",
"408 95 CURVE SMOOTH",
"252 95 OFFCURVE",
"165 217 OFFCURVE",
"165 367 CURVE SMOOTH",
"165 536 OFFCURVE",
"271 644 OFFCURVE",
"410 644 CURVE SMOOTH",
"481 644 OFFCURVE",
"533 622 OFFCURVE",
"569 590 CURVE",
"618 690 LINE",
"603 705 OFFCURVE",
"527 747 OFFCURVE",
"419 747 CURVE SMOOTH",
"197 747 OFFCURVE",
"43 589 OFFCURVE",
"43 369 CURVE SMOOTH",
"43 167 OFFCURVE",
"177 -7 OFFCURVE",
"412 -7 CURVE SMOOTH"
);
}
);
width = 649;
}
);
leftKerningGroup = O;
rightKerningGroup = C;
unicode = 0043;
userData = {
com.typemytype.robofont.mark = (
0.656,
1,
0.6,
1
);
};
},
{
glyphname = D;
lastChange = "2018-06-22 18:32:31 +0000";
layers = (
{
anchors = (
{
name = btm;
position = "{333, 0}";
},
{
name = top;
position = "{301, 725}";
}
);
layerId = "12ECCE5E-04E9-4725-8BD5-31F21F15BB81";
paths = (
{
closed = 1;
nodes = (
"261 0 LINE SMOOTH",
"561 0 OFFCURVE",
"654 196 OFFCURVE",
"654 380 CURVE SMOOTH",
"654 534 OFFCURVE",
"584 735 OFFCURVE",
"255 735 CURVE SMOOTH",
"78 735 LINE",
"78 0 LINE"
);
},
{
closed = 1;
nodes = (
"190 637 LINE",
"273 637 LINE SMOOTH",
"468 637 OFFCURVE",
"536 516 OFFCURVE",
"536 375 CURVE SMOOTH",
"536 235 OFFCURVE",
"471 99 OFFCURVE",
"273 99 CURVE SMOOTH",
"190 99 LINE"
);
}
);
width = 688;
}
);
leftKerningGroup = H;
rightKerningGroup = O;
unicode = 0044;
userData = {
com.typemytype.robofont.mark = (
0.656,
1,
0.6,
1
);
};
},
{
glyphname = Eth;
lastChange = "2018-06-22 18:32:31 +0000";
layers = (
{
layerId = "12ECCE5E-04E9-4725-8BD5-31F21F15BB81";
paths = (
{
closed = 1;
nodes = (
"233 0 LINE SMOOTH",
"574 0 OFFCURVE",
"677 160 OFFCURVE",
"677 377 CURVE SMOOTH",
"677 559 OFFCURVE",
"582 735 OFFCURVE",
"233 735 CURVE SMOOTH",
"98 735 LINE",
"98 431 LINE",
"20 431 LINE",
"20 329 LINE",
"98 329 LINE",
"98 0 LINE"
);
},
{
closed = 1;
nodes = (
"210 329 LINE",
"352 329 LINE",
"352 431 LINE",
"210 431 LINE",
"210 637 LINE",
"264 637 LINE SMOOTH",
"474 637 OFFCURVE",
"560 535 OFFCURVE",
"560 369 CURVE SMOOTH",
"560 205 OFFCURVE",
"488 99 OFFCURVE",
"264 99 CURVE SMOOTH",
"210 99 LINE"
);
}
);
width = 736;
}
);
leftKerningGroup = H;
rightKerningGroup = O;
unicode = 00D0;
userData = {
com.typemytype.robofont.mark = (
0.656,
1,
0.6,
1
);
};
},
{
glyphname = Dcroat;
lastChange = "2018-06-22 18:32:31 +0000";
layers = (
{
layerId = "12ECCE5E-04E9-4725-8BD5-31F21F15BB81";
paths = (
{
closed = 1;
nodes = (
"233 0 LINE SMOOTH",
"574 0 OFFCURVE",
"677 160 OFFCURVE",
"677 377 CURVE SMOOTH",
"677 559 OFFCURVE",
"582 735 OFFCURVE",
"233 735 CURVE SMOOTH",
"98 735 LINE",
"98 431 LINE",
"20 431 LINE",
"20 329 LINE",
"98 329 LINE",
"98 0 LINE"
);
},
{
closed = 1;
nodes = (
"210 329 LINE",
"352 329 LINE",
"352 431 LINE",
"210 431 LINE",
"210 637 LINE",
"264 637 LINE SMOOTH",
"474 637 OFFCURVE",
"560 535 OFFCURVE",
"560 369 CURVE SMOOTH",
"560 205 OFFCURVE",
"488 99 OFFCURVE",
"264 99 CURVE SMOOTH",
"210 99 LINE"
);
}
);
width = 736;
}
);
leftKerningGroup = H;
rightKerningGroup = O;
unicode = 0110;
userData = {
com.typemytype.robofont.mark = (
0.967,
0.6,
1,
1
);
};
},
{
glyphname = E;
lastChange = "2018-06-22 18:32:31 +0000";
layers = (
{
anchors = (
{
name = btm;
position = "{227, -10}";
},
{
name = top;
position = "{242, 725}";
}
);
layerId = "12ECCE5E-04E9-4725-8BD5-31F21F15BB81";
paths = (
{
closed = 1;
nodes = (
"433 0 LINE",
"433 99 LINE",
"189 99 LINE",
"189 334 LINE",
"359 334 LINE",
"359 434 LINE",
"189 434 LINE",
"189 637 LINE",
"400 637 LINE",
"400 735 LINE",
"78 735 LINE",
"78 0 LINE"
);
}
);
width = 468;
}
);
leftKerningGroup = H;
rightKerningGroup = E;
unicode = 0045;
userData = {
com.typemytype.robofont.mark = (
0.656,
1,
0.6,
1
);
};
},
{
glyphname = Eogonek;
lastChange = "2018-06-22 22:17:12 +0000";
layers = (
{
components = (
{
name = E;
}
);
layerId = "12ECCE5E-04E9-4725-8BD5-31F21F15BB81";
paths = (
{
closed = 1;
nodes = (
"403 -264 OFFCURVE",
"421 -261 OFFCURVE",
"433 -259 CURVE",
"433 -166 LINE",
"426 -167 OFFCURVE",
"409 -168 OFFCURVE",
"400 -168 CURVE SMOOTH",
"348 -168 OFFCURVE",
"330 -135 OFFCURVE",
"330 -108 CURVE SMOOTH",
"330 -45 OFFCURVE",
"388 -13 OFFCURVE",
"433 0 CURVE",
"380 30 LINE",
"333 13 LINE",
"299 -6 OFFCURVE",
"233 -51 OFFCURVE",
"233 -130 CURVE SMOOTH",
"233 -227 OFFCURVE",
"296 -264 OFFCURVE",
"384 -264 CURVE SMOOTH"
);
}
);
width = 468;
}
);
leftKerningGroup = H;
rightKerningGroup = E;
unicode = 0118;
userData = {
com.typemytype.robofont.mark = (
0.967,
0.6,
1,
1
);
};
},
{
glyphname = F;
lastChange = "2018-06-22 18:32:31 +0000";
layers = (
{
anchors = (
{
name = btm;
position = "{216, -10}";
},
{
name = top;
position = "{230, 725}";
}
);
layerId = "12ECCE5E-04E9-4725-8BD5-31F21F15BB81";
paths = (
{
closed = 1;
nodes = (
"189 0 LINE",
"189 332 LINE",
"371 332 LINE",
"371 430 LINE",
"189 430 LINE",
"189 638 LINE",
"423 638 LINE",
"423 735 LINE",
"78 735 LINE",
"78 0 LINE"
);
}
);
width = 468;
}
);
leftKerningGroup = H;
leftMetricsKey = E;
rightKerningGroup = F;
unicode = 0046;
userData = {
com.typemytype.robofont.mark = (
0.656,
1,
0.6,
1
);
};
},
{
glyphname = G;
lastChange = "2018-06-22 22:17:12 +0000";
layers = (
{
anchors = (
{
name = btm;
position = "{418, -10}";
},
{
name = top;
position = "{388, 725}";
}
);
layerId = "12ECCE5E-04E9-4725-8BD5-31F21F15BB81";
paths = (
{
closed = 1;
nodes = (
"555 -10 OFFCURVE",
"653 40 OFFCURVE",
"697 96 CURVE",
"697 384 LINE",
"435 384 LINE",
"435 281 LINE",
"586 281 LINE",
"586 139 LINE",
"544 104 OFFCURVE",
"480 91 OFFCURVE",
"423 91 CURVE SMOOTH",
"272 91 OFFCURVE",
"162 209 OFFCURVE",
"162 380 CURVE SMOOTH",
"162 526 OFFCURVE",
"258 644 OFFCURVE",
"422 644 CURVE SMOOTH",
"539 644 OFFCURVE",
"590 606 OFFCURVE",
"605 594 CURVE",
"649 688 LINE",
"632 703 OFFCURVE",
"554 746 OFFCURVE",
"424 746 CURVE SMOOTH",
"202 746 OFFCURVE",
"43 589 OFFCURVE",
"43 374 CURVE SMOOTH",
"43 154 OFFCURVE",
"199 -10 OFFCURVE",
"421 -10 CURVE SMOOTH"
);
}
);
width = 744;
}
);
leftKerningGroup = O;
rightKerningGroup = G;
unicode = 0047;
userData = {
com.typemytype.robofont.mark = (
0.656,
1,
0.6,
1
);
};
},
{
glyphname = H;
lastChange = "2018-06-22 18:32:31 +0000";
layers = (
{
anchors = (
{
name = btm;
position = "{318, -10}";
},
{
name = top;
position = "{318, 725}";
}
);
layerId = "12ECCE5E-04E9-4725-8BD5-31F21F15BB81";
paths = (
{
closed = 1;
nodes = (
"189 0 LINE",
"189 341 LINE",
"448 341 LINE",
"448 0 LINE",
"560 0 LINE",
"560 735 LINE",
"448 735 LINE",
"448 435 LINE",
"189 435 LINE",
"189 735 LINE",
"77 735 LINE",
"77 0 LINE"
);
}
);
width = 637;
}
);
leftKerningGroup = H;
rightKerningGroup = H;
unicode = 0048;
userData = {
com.typemytype.robofont.mark = (
0.656,
1,
0.6,
1
);
};
},
{
glyphname = Hbar;
lastChange = "2018-06-22 22:17:12 +0000";
layers = (
{
anchors = (
{
name = btm;
position = "{326, -10}";
},
{
name = top;
position = "{326, 725}";
}
);
layerId = "12ECCE5E-04E9-4725-8BD5-31F21F15BB81";
paths = (
{
closed = 1;
nodes = (
"198 0 LINE",
"198 267 LINE",
"457 267 LINE",
"457 0 LINE",
"569 0 LINE",
"569 735 LINE",
"457 735 LINE",
"457 361 LINE",
"198 361 LINE",
"198 735 LINE",
"86 735 LINE",
"86 0 LINE"
);
},
{
closed = 1;
nodes = (
"619 449 LINE",
"619 527 LINE",
"36 527 LINE",
"36 449 LINE"
);
}
);
width = 655;
}
);
leftKerningGroup = H;
rightKerningGroup = H;
unicode = 0126;
userData = {
com.typemytype.robofont.mark = (
0.967,
0.6,
1,
1
);
};
},
{
glyphname = I;
lastChange = "2018-06-22 18:32:31 +0000";
layers = (
{
anchors = (
{
name = btm;
position = "{150, -10}";
},
{
name = top;
position = "{150, 725}";
}
);
layerId = "12ECCE5E-04E9-4725-8BD5-31F21F15BB81";
paths = (
{
closed = 1;
nodes = (
"203 0 LINE",
"203 735 LINE",
"91 735 LINE",
"91 0 LINE"
);
}
);
width = 294;
}
);
leftKerningGroup = I;
rightKerningGroup = I;
unicode = 0049;
userData = {
com.typemytype.robofont.mark = (
0.656,
1,
0.6,
1
);
};
},
{
glyphname = Iogonek;
lastChange = "2018-06-22 22:17:12 +0000";
layers = (
{
components = (
{
name = I;
}
);
layerId = "12ECCE5E-04E9-4725-8BD5-31F21F15BB81";
paths = (
{
closed = 1;
nodes = (
"173 -264 OFFCURVE",
"191 -261 OFFCURVE",
"203 -259 CURVE",
"203 -166 LINE",
"196 -167 OFFCURVE",
"179 -168 OFFCURVE",
"170 -168 CURVE SMOOTH",
"118 -168 OFFCURVE",
"100 -135 OFFCURVE",
"100 -108 CURVE SMOOTH",
"100 -45 OFFCURVE",
"158 -13 OFFCURVE",
"203 0 CURVE",
"150 30 LINE",
"103 13 LINE",
"69 -6 OFFCURVE",
"3 -51 OFFCURVE",
"3 -130 CURVE SMOOTH",
"3 -227 OFFCURVE",
"66 -264 OFFCURVE",
"154 -264 CURVE SMOOTH"
);
}
);
width = 294;
}
);
leftKerningGroup = I;
rightKerningGroup = I;
unicode = 012E;
userData = {
com.typemytype.robofont.mark = (
0.967,
0.6,
1,
1
);
};
},
{
glyphname = J;
lastChange = "2018-06-22 22:17:12 +0000";
layers = (
{
anchors = (
{
name = btm;
position = "{229, -10}";
},
{
name = top;
position = "{320, 725}";
}
);
layerId = "12ECCE5E-04E9-4725-8BD5-31F21F15BB81";
paths = (
{
closed = 1;
nodes = (
"292 -10 OFFCURVE",
"376 43 OFFCURVE",
"376 203 CURVE SMOOTH",
"376 735 LINE",
"265 735 LINE",
"265 231 LINE",
"265 121 OFFCURVE",
"236 97 OFFCURVE",
"177 97 CURVE SMOOTH",
"132 97 OFFCURVE",
"104 112 OFFCURVE",
"81 139 CURVE",
"36 36 LINE",
"79 -1 OFFCURVE",
"147 -10 OFFCURVE",
"193 -10 CURVE SMOOTH"
);
}
);
width = 461;
}
);
leftKerningGroup = J;
rightKerningGroup = U;
unicode = 004A;
userData = {
com.typemytype.robofont.mark = (
0.656,
1,
0.6,
1
);
};
},
{
glyphname = K;
lastChange = "2018-06-22 22:17:12 +0000";
layers = (
{
anchors = (
{
name = btm;
position = "{298, -10}";
},
{
name = top;
position = "{303, 725}";
}
);
layerId = "12ECCE5E-04E9-4725-8BD5-31F21F15BB81";
paths = (
{
closed = 1;
nodes = (
"610 0 LINE",
"306 433 LINE",
"313 402 LINE",
"574 735 LINE",
"440 735 LINE",
"174 389 LINE",
"174 238 LINE",
"256 339 LINE",
"228 358 LINE",
"473 0 LINE"
);
},
{
closed = 1;
nodes = (
"188 0 LINE",
"188 735 LINE",
"78 735 LINE",
"78 0 LINE"
);
}
);
width = 595;
}
);
leftKerningGroup = H;
rightKerningGroup = K;
unicode = 004B;
userData = {
com.typemytype.robofont.mark = (
0.656,
1,
0.6,
1
);
};
},
{
glyphname = L;
lastChange = "2018-06-22 20:38:50 +0000";
layers = (
{
anchors = (
{
name = btm;
position = "{223, -10}";
},
{
name = car;
position = "{320, 725}";
},
{
name = top;
position = "{150, 725}";
}
);
layerId = "12ECCE5E-04E9-4725-8BD5-31F21F15BB81";
paths = (
{
closed = 1;
nodes = (
"402 0 LINE",
"402 100 LINE",
"191 100 LINE",
"191 735 LINE",
"78 735 LINE",
"78 0 LINE"
);
}
);
width = 432;
}
);
leftKerningGroup = H;
rightKerningGroup = L;
unicode = 004C;
userData = {
com.typemytype.robofont.mark = (
0.656,
1,
0.6,
1
);
};
},
{
glyphname = Lslash;
lastChange = "2018-06-22 18:32:31 +0000";
layers = (
{
layerId = "12ECCE5E-04E9-4725-8BD5-31F21F15BB81";
paths = (
{
closed = 1;
nodes = (
"432 0 LINE",
"432 99 LINE",
"221 99 LINE",
"221 319 LINE",
"349 373 LINE",
"349 467 LINE",
"221 413 LINE",
"221 735 LINE",
"109 735 LINE",
"109 361 LINE",
"30 324 LINE",
"30 231 LINE",
"109 268 LINE",
"109 0 LINE"
);
}
);
width = 462;
}
);
leftKerningGroup = H;
rightKerningGroup = L;
rightMetricsKey = L;
unicode = 0141;
userData = {
com.typemytype.robofont.mark = (
0.967,
0.6,
1,
1
);
};
},
{
glyphname = M;
lastChange = "2018-06-22 22:17:12 +0000";
layers = (
{
anchors = (
{
name = btm;
position = "{445, 0}";
},
{
name = top;
position = "{443, 724}";
}
);
layerId = "12ECCE5E-04E9-4725-8BD5-31F21F15BB81";
paths = (
{
closed = 1;
nodes = (
"628 342 LINE",
"668 444 LINE",
"690 342 LINE",
"764 0 LINE",
"874 0 LINE",
"713 757 LINE",
"507 337 LINE",
"447 207 LINE",
"387 337 LINE",
"176 757 LINE",
"21 0 LINE",
"132 0 LINE",
"200 342 LINE",
"221 444 LINE",
"267 342 LINE",
"447 -8 LINE"
);
}
);
width = 895;
}
);
leftKerningGroup = M;
rightKerningGroup = M;
unicode = 004D;
userData = {
com.typemytype.robofont.mark = (
0.656,
1,
0.6,
1
);
};
},
{
glyphname = N;
lastChange = "2018-06-22 22:17:12 +0000";
layers = (
{
anchors = (
{
name = btm;
position = "{355, 0}";
},
{
name = top;
position = "{348, 725}";
}
);
layerId = "12ECCE5E-04E9-4725-8BD5-31F21F15BB81";
paths = (
{
closed = 1;
nodes = (
"632 735 LINE",
"520 735 LINE",
"520 338 LINE",
"523 258 LINE",
"78 753 LINE",
"78 0 LINE",
"190 0 LINE",
"190 396 LINE",
"187 473 LINE",
"632 -18 LINE"
);
}
);
width = 710;
}
);
leftKerningGroup = H;
rightKerningGroup = H;
unicode = 004E;
userData = {
com.typemytype.robofont.guides = (
{
angle = 0;
isGlobal = 0;
magnetic = 5;
x = 0;
y = 1146;
}
);
com.typemytype.robofont.mark = (
0.656,
1,
0.6,
1
);
};
},
{
glyphname = Eng;
lastChange = "2018-06-22 22:17:12 +0000";
layers = (
{
layerId = "12ECCE5E-04E9-4725-8BD5-31F21F15BB81";
paths = (
{
closed = 1;
nodes = (
"546 -257 OFFCURVE",
"646 -212 OFFCURVE",
"646 -54 CURVE SMOOTH",
"646 -29 LINE",
"646 -28 LINE",
"646 724 LINE",
"533 724 LINE",
"533 256 LINE",
"94 742 LINE",
"94 -11 LINE",
"207 -11 LINE",
"207 451 LINE",
"529 99 LINE",
"529 -27 LINE SMOOTH",
"529 -116 OFFCURVE",
"498 -153 OFFCURVE",
"440 -153 CURVE SMOOTH",
"400 -153 OFFCURVE",
"359 -134 OFFCURVE",
"333 -111 CURVE",
"285 -216 LINE",
"331 -246 OFFCURVE",
"397 -257 OFFCURVE",
"458 -257 CURVE SMOOTH"
);
}
);
width = 740;
}
);
leftKerningGroup = Eng;
rightKerningGroup = Eng;
unicode = 014A;
userData = {
com.typemytype.robofont.mark = (
0.967,
0.6,
1,
1
);
};
},
{
glyphname = O;
lastChange = "2018-06-22 22:17:12 +0000";
layers = (
{
anchors = (
{
name = btm;
position = "{416, 0}";
},
{
name = top;
position = "{416, 725}";
}
);
layerId = "12ECCE5E-04E9-4725-8BD5-31F21F15BB81";
paths = (
{
closed = 1;
nodes = (
"615 -10 OFFCURVE",
"785 134 OFFCURVE",
"785 369 CURVE SMOOTH",
"785 606 OFFCURVE",
"614 747 OFFCURVE",
"416 747 CURVE SMOOTH",
"218 747 OFFCURVE",
"47 606 OFFCURVE",
"47 369 CURVE SMOOTH",
"47 134 OFFCURVE",
"217 -10 OFFCURVE",
"416 -10 CURVE SMOOTH"
);
},
{
closed = 1;
nodes = (
"284 91 OFFCURVE",
"166 188 OFFCURVE",
"166 368 CURVE SMOOTH",
"166 549 OFFCURVE",
"278 645 OFFCURVE",
"416 645 CURVE SMOOTH",
"553 645 OFFCURVE",
"666 549 OFFCURVE",
"666 368 CURVE SMOOTH",
"666 188 OFFCURVE",
"552 91 OFFCURVE",
"416 91 CURVE SMOOTH"
);
}
);
width = 832;
}
);
leftKerningGroup = O;
rightKerningGroup = O;
unicode = 004F;
userData = {
com.typemytype.robofont.guides = (
{
angle = 0;
isGlobal = 0;
magnetic = 5;
x = 0;
y = 368;
}
);
com.typemytype.robofont.mark = (
0.656,
1,
0.6,
1
);
};
},
{
glyphname = Ohorn;
lastChange = "2018-06-22 18:32:31 +0000";
layers = (
{
anchors = (
{
name = btm;
position = "{416, -10}";
},
{
name = top;
position = "{416, 725}";
}
);
components = (
{
name = O;
}
);
layerId = "12ECCE5E-04E9-4725-8BD5-31F21F15BB81";
paths = (
{
closed = 1;
nodes = (
"745 649 OFFCURVE",
"808 717 OFFCURVE",
"808 781 CURVE SMOOTH",
"808 822 OFFCURVE",
"806 837 OFFCURVE",
"801 853 CURVE",
"707 853 LINE",
"713 838 OFFCURVE",
"715 823 OFFCURVE",
"715 796 CURVE SMOOTH",
"715 735 OFFCURVE",
"655 698 OFFCURVE",
"585 698 CURVE",
"669 649 LINE"
);
}
);
width = 832;
}
);
leftKerningGroup = O;
rightKerningGroup = Ohorn;
unicode = 01A0;
userData = {
com.typemytype.robofont.mark = (
1,
0.6,
0.6,
1
);
};
},
{
glyphname = Oogonek;
lastChange = "2018-06-22 22:17:12 +0000";
layers = (
{
components = (
{
name = O;
}
);
layerId = "12ECCE5E-04E9-4725-8BD5-31F21F15BB81";
paths = (
{
closed = 1;
nodes = (
"467 -264 OFFCURVE",
"485 -261 OFFCURVE",
"497 -259 CURVE",
"497 -166 LINE",
"490 -167 OFFCURVE",
"473 -168 OFFCURVE",
"464 -168 CURVE SMOOTH",
"412 -168 OFFCURVE",
"394 -135 OFFCURVE",
"394 -108 CURVE SMOOTH",
"394 -45 OFFCURVE",
"452 -13 OFFCURVE",
"497 0 CURVE",
"444 30 LINE",
"397 13 LINE",
"363 -6 OFFCURVE",
"297 -51 OFFCURVE",
"297 -130 CURVE SMOOTH",
"297 -227 OFFCURVE",
"360 -264 OFFCURVE",
"448 -264 CURVE SMOOTH"
);
}
);
width = 832;
}
);
leftKerningGroup = O;
leftMetricsKey = O;
widthMetricsKey = O;
rightKerningGroup = O;
unicode = 01EA;
},
{
glyphname = Oslash;
lastChange = "2018-06-22 22:17:12 +0000";
layers = (
{
anchors = (
{
name = btm;
position = "{416, -10}";
},
{
name = top;
position = "{416, 725}";
}
);
components = (
{
name = O;
transform = "{1, 0, 0, 1, -1, 0}";
}
);
layerId = "12ECCE5E-04E9-4725-8BD5-31F21F15BB81";
paths = (
{
closed = 1;
nodes = (
"646 803 LINE",
"590 828 LINE",
"178 -83 LINE",
"235 -109 LINE"
);
}
);
width = 829;
}
);
leftKerningGroup = O;
rightKerningGroup = O;
unicode = 00D8;
userData = {
com.typemytype.robofont.mark = (
0.656,
1,
0.6,
1
);
};
},
{
glyphname = OE;
lastChange = "2018-06-22 22:17:12 +0000";
layers = (
{
layerId = "12ECCE5E-04E9-4725-8BD5-31F21F15BB81";
paths = (
{
closed = 1;
nodes = (
"515 -21 OFFCURVE",
"609 14 OFFCURVE",
"679 76 CURVE",
"679 0 LINE",
"1009 0 LINE",
"1009 99 LINE",
"792 99 LINE",
"792 335 LINE",
"961 335 LINE",
"961 438 LINE",
"792 438 LINE",
"792 637 LINE",
"991 637 LINE",
"991 735 LINE",
"679 735 LINE",
"679 638 LINE",
"609 701 OFFCURVE",
"515 735 OFFCURVE",
"421 735 CURVE SMOOTH",
"230 735 OFFCURVE",
"47 599 OFFCURVE",
"47 360 CURVE SMOOTH",
"47 122 OFFCURVE",
"229 -21 OFFCURVE",
"421 -21 CURVE SMOOTH"
);
},
{
closed = 1;
nodes = (
"290 86 OFFCURVE",
"170 187 OFFCURVE",
"170 360 CURVE SMOOTH",
"170 533 OFFCURVE",
"290 630 OFFCURVE",
"421 630 CURVE SMOOTH",
"547 630 OFFCURVE",
"671 538 OFFCURVE",
"679 375 CURVE",
"679 340 LINE",
"671 179 OFFCURVE",
"548 86 OFFCURVE",
"421 86 CURVE SMOOTH"
);
}
);
width = 1044;
}
);
leftKerningGroup = O;
leftMetricsKey = O;
rightKerningGroup = E;
rightMetricsKey = E;
unicode = 0152;
userData = {
com.typemytype.robofont.mark = (
0.656,
1,
0.6,
1
);
};
},
{
glyphname = P;
lastChange = "2018-06-22 18:32:31 +0000";
layers = (
{
anchors = (
{
name = btm;
position = "{269, 0}";
},
{
name = top;
position = "{259, 725}";
}
);
layerId = "12ECCE5E-04E9-4725-8BD5-31F21F15BB81";
paths = (
{
closed = 1;
nodes = (
"191 0 LINE",
"191 272 LINE",
"230 272 LINE SMOOTH",
"414 272 OFFCURVE",
"504 360 OFFCURVE",
"504 516 CURVE SMOOTH",
"504 644 OFFCURVE",
"431 735 OFFCURVE",
"240 735 CURVE SMOOTH",
"78 735 LINE",
"78 0 LINE"
);
},
{
closed = 1;
nodes = (
"191 637 LINE",
"243 637 LINE SMOOTH",
"359 637 OFFCURVE",
"391 573 OFFCURVE",
"391 504 CURVE SMOOTH",
"391 446 OFFCURVE",
"364 371 OFFCURVE",
"233 371 CURVE SMOOTH",
"191 371 LINE"
);
}
);
width = 530;
}
);
leftKerningGroup = H;
rightKerningGroup = P;
unicode = 0050;
userData = {
com.typemytype.robofont.mark = (
0.656,
1,
0.6,
1
);
};
},
{
glyphname = Thorn;
lastChange = "2018-06-22 18:32:31 +0000";
layers = (
{
anchors = (
{
name = btm;
position = "{324, 0}";
},
{
name = top;
position = "{324, 725}";
}
);
layerId = "12ECCE5E-04E9-4725-8BD5-31F21F15BB81";
paths = (
{
closed = 1;
nodes = (
"215 0 LINE",
"215 135 LINE",
"234 135 LINE SMOOTH",
"439 135 OFFCURVE",
"534 222 OFFCURVE",
"534 378 CURVE SMOOTH",
"534 505 OFFCURVE",
"447 598 OFFCURVE",
"236 598 CURVE SMOOTH",
"217 598 LINE",
"217 736 LINE",
"103 736 LINE",
"103 0 LINE"
);
},
{
closed = 1;
nodes = (
"215 499 LINE",
"258 499 LINE SMOOTH",
"387 499 OFFCURVE",
"416 435 OFFCURVE",
"416 366 CURVE SMOOTH",
"416 308 OFFCURVE",
"391 234 OFFCURVE",
"256 234 CURVE SMOOTH",
"215 234 LINE"
);
}
);
width = 554;
}
);
leftKerningGroup = H;
rightKerningGroup = Thorn;
unicode = 00DE;
userData = {
com.typemytype.robofont.mark = (
0.656,
1,
0.6,
1
);
};
},
{
glyphname = Q;
lastChange = "2018-06-22 22:17:12 +0000";
layers = (
{
anchors = (
{
name = btm;
position = "{411, 0}";
},
{
name = top;
position = "{417, 725}";
}
);
components = (
{
name = O;
}
);
layerId = "12ECCE5E-04E9-4725-8BD5-31F21F15BB81";
paths = (
{
closed = 1;
nodes = (
"709 -94 LINE",
"605 67 LINE",
"605 67 OFFCURVE",
"574 117 OFFCURVE",
"574 117 CURVE",
"519 206 LINE",
"407 206 LINE",
"490 72 LINE",
"490 72 OFFCURVE",
"523 21 OFFCURVE",
"523 21 CURVE",
"598 -94 LINE"
);
}
);
width = 832;
}
);
leftKerningGroup = O;
leftMetricsKey = O;
rightKerningGroup = O;
rightMetricsKey = O;
unicode = 0051;
userData = {
com.typemytype.robofont.mark = (
0.656,
1,
0.6,
1
);
};
},
{
glyphname = R;
lastChange = "2018-06-22 22:17:12 +0000";
layers = (
{
anchors = (
{
name = btm;
position = "{299, 0}";
},
{
name = top;
position = "{287, 725}";
}
);
layerId = "12ECCE5E-04E9-4725-8BD5-31F21F15BB81";
paths = (
{
closed = 1;
nodes = (
"187 0 LINE",
"187 276 LINE",
"215 276 LINE SMOOTH",
"240 276 OFFCURVE",
"285 277 OFFCURVE",
"307 279 CURVE",
"390 298 LINE",
"488 336 OFFCURVE",
"536 412 OFFCURVE",
"536 512 CURVE SMOOTH",
"536 681 OFFCURVE",
"395 735 OFFCURVE",
"245 735 CURVE SMOOTH",
"78 735 LINE",
"78 0 LINE"
);
},
{
closed = 1;
nodes = (
"574 0 LINE",
"388 320 LINE",
"287 298 LINE",
"445 0 LINE"
);
},
{
closed = 1;
nodes = (
"187 642 LINE",
"254 642 LINE SMOOTH",
"356 642 OFFCURVE",
"429 609 OFFCURVE",
"429 511 CURVE SMOOTH",
"429 451 OFFCURVE",
"404 367 OFFCURVE",
"258 367 CURVE SMOOTH",
"187 367 LINE"
);
}
);
width = 610;
}
);
leftKerningGroup = H;
rightKerningGroup = R;
unicode = 0052;
userData = {
com.typemytype.robofont.mark = (
0.656,
1,
0.6,
1
);
};
},
{
glyphname = S;
lastChange = "2018-06-22 22:17:12 +0000";
layers = (
{
anchors = (
{
name = btm;
position = "{256, 0}";
},
{
name = top;
position = "{256, 725}";
}
);
layerId = "12ECCE5E-04E9-4725-8BD5-31F21F15BB81";
paths = (
{
closed = 1;
nodes = (
"380 -10 OFFCURVE",
"483 62 OFFCURVE",
"483 199 CURVE SMOOTH",
"483 259 OFFCURVE",
"454 308 OFFCURVE",
"418 340 CURVE SMOOTH",
"329 422 OFFCURVE",
"166 451 OFFCURVE",
"166 556 CURVE SMOOTH",
"166 615 OFFCURVE",
"207 645 OFFCURVE",
"273 645 CURVE SMOOTH",
"329 645 OFFCURVE",
"377 620 OFFCURVE",
"400 596 CURVE",
"453 687 LINE",
"426 709 OFFCURVE",
"373 746 OFFCURVE",
"278 746 CURVE SMOOTH",
"158 746 OFFCURVE",
"56 683 OFFCURVE",
"56 550 CURVE SMOOTH",
"56 459 OFFCURVE",
"101 405 OFFCURVE",
"153 370 CURVE SMOOTH",
"244 311 OFFCURVE",
"367 287 OFFCURVE",
"367 187 CURVE SMOOTH",
"367 126 OFFCURVE",
"315 93 OFFCURVE",
"247 93 CURVE SMOOTH",
"185 93 OFFCURVE",
"117 134 OFFCURVE",
"96 153 CURVE",
"43 58 LINE",
"75 26 OFFCURVE",
"162 -10 OFFCURVE",
"247 -10 CURVE SMOOTH"
);
}
);
width = 525;
}
);
leftKerningGroup = S;
rightKerningGroup = S;
unicode = 0053;
userData = {
com.typemytype.robofont.guides = (
{
angle = 0;
isGlobal = 0;
magnetic = 5;
x = 0;
y = 205;
}
);
com.typemytype.robofont.mark = (
0.656,
1,
0.6,
1
);
};
},
{
glyphname = Germandbls;
lastChange = "2018-06-22 22:16:46 +0000";
layers = (
{
layerId = "12ECCE5E-04E9-4725-8BD5-31F21F15BB81";
paths = (
{
closed = 1;
nodes = (
"194 0 LINE",
"194 454 LINE SMOOTH",
"194 586 OFFCURVE",
"255 656 OFFCURVE",
"340 656 CURVE SMOOTH",
"417 656 OFFCURVE",
"432 627 OFFCURVE",
"432 592 CURVE",
"280 465 LINE",
"280 380 LINE",
"451 380 OFFCURVE",
"481 310 OFFCURVE",
"481 237 CURVE SMOOTH",
"481 161 OFFCURVE",
"451 98 OFFCURVE",
"327 98 CURVE SMOOTH",
"280 98 LINE",
"280 0 LINE",
"326 0 LINE SMOOTH",
"525 0 OFFCURVE",
"597 111 OFFCURVE",
"597 232 CURVE SMOOTH",
"597 356 OFFCURVE",
"519 430 OFFCURVE",
"399 459 CURVE",
"560 590 LINE",
"560 642 OFFCURVE",
"516 748 OFFCURVE",
"344 748 CURVE SMOOTH",
"168 748 OFFCURVE",
"85 615 OFFCURVE",
"85 501 CURVE SMOOTH",
"85 0 LINE"
);
}
);
width = 649;
}
);
leftKerningGroup = Germandbls;
rightKerningGroup = U;
unicode = 1E9E;
userData = {
com.typemytype.robofont.mark = (
0.967,
0.6,
1,
1
);
};
},
{
glyphname = Schwa;
lastChange = "2018-06-22 22:17:12 +0000";
layers = (
{
anchors = (
{
name = btm;
position = "{417, -10}";
},
{
name = top;
position = "{387, 725}";
}
);
layerId = "12ECCE5E-04E9-4725-8BD5-31F21F15BB81";
paths = (
{
closed = 1;
nodes = (
"570 -10 OFFCURVE",
"696 152 OFFCURVE",
"696 369 CURVE",
"696 587 OFFCURVE",
"539 746 OFFCURVE",
"323 746 CURVE SMOOTH",
"191 746 OFFCURVE",
"110 701 OFFCURVE",
"90 688 CURVE",
"133 594 LINE",
"149 604 OFFCURVE",
"215 643 OFFCURVE",
"327 643 CURVE SMOOTH",
"479 643 OFFCURVE",
"576 523 OFFCURVE",
"576 375 CURVE SMOOTH",
"576 207 OFFCURVE",
"497 93 OFFCURVE",
"347 93 CURVE SMOOTH",
"260 93 OFFCURVE",
"169 142 OFFCURVE",
"169 295 CURVE",
"606 295 LINE",
"606 384 LINE",
"41 384 LINE",
"41 43 OFFCURVE",
"215 -10 OFFCURVE",
"349 -10 CURVE SMOOTH"
);
}
);
width = 743;
}
);
leftKerningGroup = O;
rightKerningGroup = O;
rightMetricsKey = O;
unicode = 018F;
userData = {
com.typemytype.robofont.mark = (
0.967,
0.6,
1,
1
);
};
},
{
color = 8;
glyphname = T;
lastChange = "2018-06-22 20:39:04 +0000";
layers = (
{
anchors = (
{
name = btm;
position = "{274, 0}";
},
{
name = top;
position = "{274, 725}";
}
);
layerId = "12ECCE5E-04E9-4725-8BD5-31F21F15BB81";
paths = (
{
closed = 1;
nodes = (
"329 0 LINE",
"329 637 LINE",
"519 637 LINE",
"519 735 LINE",
"30 735 LINE",
"30 637 LINE",
"218 637 LINE",
"218 0 LINE"
);
}
);
width = 549;
}
);
leftKerningGroup = T;
rightKerningGroup = T;
unicode = 0054;
userData = {
com.typemytype.robofont.mark = (
0.656,
1,
0.6,
1
);
};
},
{
glyphname = Tbar;
lastChange = "2018-06-22 18:32:31 +0000";
layers = (
{
layerId = "12ECCE5E-04E9-4725-8BD5-31F21F15BB81";
paths = (
{
closed = 1;
nodes = (
"331 -10 LINE",
"331 361 LINE",
"449 361 LINE",
"449 444 LINE",
"331 444 LINE",
"331 636 LINE",
"519 636 LINE",
"519 735 LINE",
"30 735 LINE",
"30 636 LINE",
"218 636 LINE",
"218 444 LINE",
"109 444 LINE",
"109 361 LINE",
"218 361 LINE",
"218 -10 LINE"
);
}
);
width = 549;
}
);
leftKerningGroup = T;
leftMetricsKey = T;
rightKerningGroup = T;
rightMetricsKey = T;
unicode = 0166;
userData = {
com.typemytype.robofont.mark = (
0.967,
0.6,
1,
1
);
};
},
{
glyphname = U;
lastChange = "2018-06-22 22:17:12 +0000";
layers = (
{
anchors = (
{
name = btm;
position = "{331, 0}";
},
{
name = top;
position = "{335, 725}";
}
);
layerId = "12ECCE5E-04E9-4725-8BD5-31F21F15BB81";
paths = (
{
closed = 1;
nodes = (
"509 -10 OFFCURVE",
"593 108 OFFCURVE",
"593 314 CURVE SMOOTH",
"593 735 LINE",
"480 735 LINE",
"480 312 LINE SMOOTH",
"480 152 OFFCURVE",
"436 94 OFFCURVE",
"331 94 CURVE SMOOTH",
"225 94 OFFCURVE",
"181 156 OFFCURVE",
"181 312 CURVE SMOOTH",
"181 735 LINE",
"69 735 LINE",
"69 314 LINE SMOOTH",
"69 113 OFFCURVE",
"140 -10 OFFCURVE",
"331 -10 CURVE SMOOTH"
);
}
);
width = 662;
}
);
leftKerningGroup = U;
rightKerningGroup = U;
unicode = 0055;
userData = {
com.typemytype.robofont.mark = (
0.656,
1,
0.6,
1
);
};
},
{
glyphname = Uhorn;
lastChange = "2018-06-22 21:14:20 +0000";
layers = (
{
components = (
{
name = U;
}
);
layerId = "12ECCE5E-04E9-4725-8BD5-31F21F15BB81";
paths = (
{
closed = 1;
nodes = (
"600 686 OFFCURVE",
"677 717 OFFCURVE",
"677 781 CURVE SMOOTH",
"677 822 OFFCURVE",
"675 837 OFFCURVE",
"670 853 CURVE",
"576 853 LINE",
"582 838 OFFCURVE",
"584 823 OFFCURVE",
"584 796 CURVE SMOOTH",
"584 735 OFFCURVE",
"497 735 OFFCURVE",
"480 735 CURVE",
"564 686 LINE"
);
}
);
width = 656;
}
);
leftKerningGroup = U;
leftMetricsKey = U;
rightKerningGroup = Uhorn;
unicode = 01AF;
userData = {
com.typemytype.robofont.mark = (
1,
0.6,
0.6,
1
);
};
},
{
glyphname = Uogonek;
lastChange = "2018-06-22 22:17:12 +0000";
layers = (
{
components = (
{
name = U;
}
);
layerId = "12ECCE5E-04E9-4725-8BD5-31F21F15BB81";
paths = (
{
closed = 1;
nodes = (
"377 -264 OFFCURVE",
"395 -261 OFFCURVE",
"407 -259 CURVE",
"407 -166 LINE",
"400 -167 OFFCURVE",
"383 -168 OFFCURVE",
"374 -168 CURVE SMOOTH",
"322 -168 OFFCURVE",
"304 -135 OFFCURVE",
"304 -108 CURVE SMOOTH",
"304 -45 OFFCURVE",
"362 -13 OFFCURVE",
"407 0 CURVE",
"354 30 LINE",
"307 13 LINE",
"273 -6 OFFCURVE",
"207 -51 OFFCURVE",
"207 -130 CURVE SMOOTH",
"207 -227 OFFCURVE",
"270 -264 OFFCURVE",
"358 -264 CURVE SMOOTH"
);
}
);
width = 662;
}
);
leftKerningGroup = U;
leftMetricsKey = U;
rightKerningGroup = U;
rightMetricsKey = U;
unicode = 0172;
userData = {
com.typemytype.robofont.mark = (
0.967,
0.6,
1,
1
);
};
},
{
glyphname = V;
lastChange = "2019-10-18 19:50:27 +0000";
layers = (
{
anchors = (
{
name = btm;
position = "{331, -9}";
},
{
name = top;
position = "{331, 725}";
}
);
background = {
paths = (
{
closed = 1;
nodes = (
"678 735 LINE",
"552 735 LINE",
"331 231 LINE",
"111 735 LINE",
"-16 735 LINE",
"332 -14 LINE"
);
}
);
};
layerId = "12ECCE5E-04E9-4725-8BD5-31F21F15BB81";
paths = (
{
closed = 1;
nodes = (
"678 735 LINE",
"552 735 LINE",
"331 231 LINE",
"111 735 LINE",
"-16 735 LINE",
"331 -14 LINE",
"332 -14 LINE"
);
}
);
width = 662;
}
);
leftKerningGroup = V;
rightKerningGroup = V;
unicode = 0056;
userData = {
com.typemytype.robofont.mark = (
0.656,
1,
0.6,
1
);
};
},
{
glyphname = W;
lastChange = "2019-10-18 19:50:17 +0000";
layers = (
{
anchors = (
{
name = btm;
position = "{489, -10}";
},
{
name = top;
position = "{492, 725}";
}
);
background = {
paths = (
{
closed = 1;
nodes = (
"491 478 LINE",
"698 -14 LINE",
"991 735 LINE",
"872 735 LINE",
"696 269 LINE",
"492 750 LINE",
"287 269 LINE",
"111 735 LINE",
"-8 735 LINE",
"285 -14 LINE"
);
}
);
};
layerId = "12ECCE5E-04E9-4725-8BD5-31F21F15BB81";
paths = (
{
closed = 1;
nodes = (
"491 478 LINE",
"697 -14 LINE",
"698 -14 LINE",
"991 735 LINE",
"872 735 LINE",
"696 269 LINE",
"492 750 LINE",
"287 269 LINE",
"111 735 LINE",
"-8 735 LINE",
"285 -14 LINE",
"286 -14 LINE"
);
}
);
width = 983;
}
);
leftKerningGroup = W;
rightKerningGroup = W;
unicode = 0057;
userData = {
com.typemytype.robofont.guides = (
{
angle = 90;
isGlobal = 0;
magnetic = 5;
x = 492;
y = 0;
}
);
com.typemytype.robofont.mark = (
0.656,
1,
0.6,
1
);
};
},
{
glyphname = X;
lastChange = "2018-06-22 18:32:31 +0000";
layers = (
{
anchors = (
{
name = btm;
position = "{297, -10}";
},
{
name = top;
position = "{300, 725}";
}
);
layerId = "12ECCE5E-04E9-4725-8BD5-31F21F15BB81";
paths = (
{
closed = 1;
nodes = (
"139 0 LINE",
"298 291 LINE",
"460 0 LINE",
"593 0 LINE",
"359 385 LINE",
"572 735 LINE",
"440 735 LINE",
"297 478 LINE",
"158 735 LINE",
"23 735 LINE",
"235 383 LINE",
"10 0 LINE"
);
}
);
width = 603;
}
);
leftKerningGroup = X;
rightKerningGroup = X;
unicode = 0058;
userData = {
com.typemytype.robofont.mark = (
0.656,
1,
0.6,
1
);
};
},
{
glyphname = Y;
lastChange = "2018-06-22 21:25:21 +0000";
layers = (
{
anchors = (
{
name = btm;
position = "{295, -10}";
},
{
name = top;
position = "{295, 725}";
}
);
layerId = "12ECCE5E-04E9-4725-8BD5-31F21F15BB81";
paths = (
{
closed = 1;
nodes = (
"351 0 LINE",
"351 341 LINE",
"605 735 LINE",
"472 735 LINE",
"295 445 LINE",
"118 735 LINE",
"-16 735 LINE",
"239 343 LINE",
"239 0 LINE"
);
}
);
width = 589;
}
);
leftKerningGroup = Y;
rightKerningGroup = Y;
unicode = 0059;
userData = {
com.typemytype.robofont.guides = (
{
angle = 0;
isGlobal = 0;
magnetic = 5;
x = 0;
y = 361;
},
{
angle = 90;
isGlobal = 0;
magnetic = 5;
x = 295;
y = 0;
}
);
com.typemytype.robofont.mark = (
0.656,
1,
0.6,
1
);
};
},
{
color = 8;
glyphname = Z;
lastChange = "2018-06-22 20:38:39 +0000";
layers = (
{
anchors = (
{
name = btm;
position = "{284, 0}";
},
{
name = top;
position = "{293, 725}";
}
);
layerId = "12ECCE5E-04E9-4725-8BD5-31F21F15BB81";
paths = (
{
closed = 1;
nodes = (
"537 0 LINE",
"537 98 LINE",
"189 98 LINE",
"552 735 LINE",
"55 735 LINE",
"55 639 LINE",
"376 639 LINE",
"8 0 LINE"
);
}
);
width = 580;
}
);
leftKerningGroup = Z;
rightKerningGroup = Z;
unicode = 005A;
userData = {
com.typemytype.robofont.mark = (
0.656,
1,
0.6,
1
);
};
},
{
glyphname = a;
lastChange = "2018-06-22 22:17:12 +0000";
layers = (
{
anchors = (
{
name = btm;
position = "{284, 0}";
},
{
name = top;
position = "{303, 725}";
}
);
layerId = "12ECCE5E-04E9-4725-8BD5-31F21F15BB81";
paths = (
{
closed = 1;
nodes = (
"354 -10 OFFCURVE",
"416 37 OFFCURVE",
"437 81 CURVE",
"439 0 LINE",
"541 0 LINE",
"541 459 LINE",
"438 459 LINE",
"436 382 LINE",
"420 420 OFFCURVE",
"354 471 OFFCURVE",
"270 471 CURVE SMOOTH",
"130 471 OFFCURVE",
"44 375 OFFCURVE",
"44 231 CURVE SMOOTH",
"44 81 OFFCURVE",
"151 -10 OFFCURVE",
"274 -10 CURVE SMOOTH"
);
},
{
closed = 1;
nodes = (
"202 80 OFFCURVE",
"158 144 OFFCURVE",
"158 230 CURVE SMOOTH",
"158 314 OFFCURVE",
"203 379 OFFCURVE",
"292 379 CURVE SMOOTH",
"366 379 OFFCURVE",
"427 319 OFFCURVE",
"427 230 CURVE SMOOTH",
"427 223 LINE SMOOTH",
"427 135 OFFCURVE",
"365 80 OFFCURVE",
"292 80 CURVE SMOOTH"
);
}
);
width = 615;
}
);
leftKerningGroup = a;
rightKerningGroup = n;
unicode = 0061;
userData = {
com.typemytype.robofont.guides = (
{
angle = 0;
isGlobal = 0;
magnetic = 5;
x = 0;
y = 399;
}
);
com.typemytype.robofont.mark = (
0.656,
1,
0.6,
1
);
};
},
{
glyphname = aogonek;
lastChange = "2018-06-22 22:17:12 +0000";
layers = (
{
components = (
{
name = a;
}
);
layerId = "12ECCE5E-04E9-4725-8BD5-31F21F15BB81";
paths = (
{
closed = 1;
nodes = (
"511 -264 OFFCURVE",
"529 -261 OFFCURVE",
"541 -259 CURVE",
"541 -166 LINE",
"534 -167 OFFCURVE",
"517 -168 OFFCURVE",
"508 -168 CURVE SMOOTH",
"456 -168 OFFCURVE",
"438 -135 OFFCURVE",
"438 -108 CURVE SMOOTH",
"438 -45 OFFCURVE",
"496 -13 OFFCURVE",
"541 0 CURVE",
"488 30 LINE",
"441 13 LINE",
"407 -6 OFFCURVE",
"341 -51 OFFCURVE",
"341 -130 CURVE SMOOTH",
"341 -227 OFFCURVE",
"404 -264 OFFCURVE",
"492 -264 CURVE SMOOTH"
);
}
);
width = 615;
}
);
leftKerningGroup = a;
leftMetricsKey = a;
rightKerningGroup = n;
rightMetricsKey = a;
unicode = 0105;
userData = {
com.typemytype.robofont.mark = (
0.967,
0.6,
1,
1
);
};
},
{
color = 8;
glyphname = ae;
lastChange = "2018-06-22 22:17:12 +0000";
layers = (
{
anchors = (
{
name = btm;
position = "{926, 0}";
},
{
name = top;
position = "{531, 725}";
}
);
background = {
paths = (
{
closed = 1;
nodes = (
"558 50 OFFCURVE",
"598 -10 OFFCURVE",
"723 -10 CURVE SMOOTH",
"813 -10 OFFCURVE",
"867 12 OFFCURVE",
"895 30 CURVE",
"862 107 LINE",
"835 93 OFFCURVE",
"798 77 OFFCURVE",
"726 77 CURVE SMOOTH",
"651 77 OFFCURVE",
"599 120 OFFCURVE",
"592 192 CURVE",
"922 192 LINE",
"924 211 OFFCURVE",
"925 230 OFFCURVE",
"925 248 CURVE SMOOTH",
"925 384 OFFCURVE",
"861 471 OFFCURVE",
"716 471 CURVE SMOOTH",
"614 471 OFFCURVE",
"562 419 OFFCURVE",
"527 332 CURVE",
"527 130 LINE"
);
},
{
closed = 1;
nodes = (
"598 347 OFFCURVE",
"646 380 OFFCURVE",
"713 380 CURVE SMOOTH",
"777 380 OFFCURVE",
"821 354 OFFCURVE",
"820 267 CURVE",
"591 267 LINE"
);
}
);
};
layerId = "12ECCE5E-04E9-4725-8BD5-31F21F15BB81";
paths = (
{
closed = 1;
nodes = (
"334 -10 OFFCURVE",
"393 44 OFFCURVE",
"408 123 CURVE",
"428 0 LINE",
"500 0 LINE",
"500 459 LINE",
"418 459 LINE",
"416 356 LINE",
"390 420 OFFCURVE",
"334 471 OFFCURVE",
"250 471 CURVE SMOOTH",
"131 471 OFFCURVE",
"44 375 OFFCURVE",
"44 231 CURVE SMOOTH",
"44 81 OFFCURVE",
"131 -10 OFFCURVE",
"254 -10 CURVE SMOOTH"
);
},
{
closed = 1;
nodes = (
"192 80 OFFCURVE",
"158 144 OFFCURVE",
"158 230 CURVE SMOOTH",
"158 314 OFFCURVE",
"193 379 OFFCURVE",
"272 379 CURVE SMOOTH",
"346 379 OFFCURVE",
"407 325 OFFCURVE",
"407 248 CURVE SMOOTH",
"407 241 LINE SMOOTH",
"407 153 OFFCURVE",
"345 80 OFFCURVE",
"272 80 CURVE SMOOTH"
);
},
{
closed = 1;
nodes = (
"741 -10 OFFCURVE",
"796 12 OFFCURVE",
"823 30 CURVE",
"790 107 LINE",
"763 93 OFFCURVE",
"726 77 OFFCURVE",
"654 77 CURVE SMOOTH",
"579 77 OFFCURVE",
"535 109 OFFCURVE",
"520 192 CURVE",
"850 192 LINE",
"852 211 OFFCURVE",
"853 230 OFFCURVE",
"853 248 CURVE SMOOTH",
"853 384 OFFCURVE",
"789 471 OFFCURVE",
"644 471 CURVE SMOOTH",
"552 471 OFFCURVE",
"462 396 OFFCURVE",
"462 247 CURVE SMOOTH",
"462 178 OFFCURVE",
"493 -10 OFFCURVE",
"651 -10 CURVE SMOOTH"
);
},
{
closed = 1;
nodes = (
"531 347 OFFCURVE",
"574 380 OFFCURVE",
"641 380 CURVE SMOOTH",
"705 380 OFFCURVE",
"749 354 OFFCURVE",
"748 267 CURVE",
"520 267 LINE"
);
}
);
width = 895;
}
);
leftKerningGroup = a;
leftMetricsKey = a;
rightKerningGroup = e;
rightMetricsKey = e;
unicode = 00E6;
userData = {
com.typemytype.robofont.mark = (
0.656,
1,
0.6,
1
);
};
},
{
glyphname = b;
lastChange = "2018-06-22 22:17:12 +0000";
layers = (
{
anchors = (
{
name = btm;
position = "{343, 0}";
},
{
name = top;
position = "{363, 725}";
}
);
layerId = "12ECCE5E-04E9-4725-8BD5-31F21F15BB81";
paths = (
{
closed = 1;
nodes = (
"466 -10 OFFCURVE",
"573 79 OFFCURVE",
"573 229 CURVE SMOOTH",
"573 373 OFFCURVE",
"488 471 OFFCURVE",
"350 471 CURVE SMOOTH",
"270 471 OFFCURVE",
"198 425 OFFCURVE",
"176 374 CURVE",
"181 452 LINE",
"181 736 LINE",
"75 736 LINE",
"75 0 LINE",
"179 0 LINE",
"181 81 LINE",
"202 37 OFFCURVE",
"263 -10 OFFCURVE",
"343 -10 CURVE SMOOTH"
);
},
{
closed = 1;
nodes = (
"251 80 OFFCURVE",
"191 140 OFFCURVE",
"190 229 CURVE SMOOTH",
"190 236 LINE SMOOTH",
"190 324 OFFCURVE",
"252 379 OFFCURVE",
"325 379 CURVE SMOOTH",
"416 379 OFFCURVE",
"460 315 OFFCURVE",
"460 229 CURVE",
"460 145 OFFCURVE",
"415 80 OFFCURVE",
"325 80 CURVE SMOOTH"
);
}
);
width = 617;
}
);
leftKerningGroup = h;
rightKerningGroup = o;
unicode = 0062;
userData = {
com.typemytype.robofont.mark = (
0.656,
1,
0.6,
1
);
};
},
{
glyphname = c;
lastChange = "2018-06-22 22:17:12 +0000";
layers = (
{
anchors = (
{
name = btm;
position = "{282, 0}";
},
{
name = top;
position = "{261, 725}";
}
);
layerId = "12ECCE5E-04E9-4725-8BD5-31F21F15BB81";
paths = (
{
closed = 1;
nodes = (
"356 -10 OFFCURVE",
"410 15 OFFCURVE",
"434 34 CURVE",
"395 110 LINE",
"375 95 OFFCURVE",
"333 80 OFFCURVE",
"289 80 CURVE SMOOTH",
"206 80 OFFCURVE",
"158 138 OFFCURVE",
"158 236 CURVE SMOOTH",
"158 320 OFFCURVE",
"201 379 OFFCURVE",
"289 379 CURVE SMOOTH",
"344 379 OFFCURVE",
"375 346 OFFCURVE",
"384 337 CURVE",
"432 424 LINE",
"407 446 OFFCURVE",
"357 471 OFFCURVE",
"280 471 CURVE SMOOTH",
"139 471 OFFCURVE",
"44 379 OFFCURVE",
"44 235 CURVE SMOOTH",
"44 80 OFFCURVE",
"151 -10 OFFCURVE",
"285 -10 CURVE SMOOTH"
);
}
);
width = 466;
}
);
leftKerningGroup = o;
rightKerningGroup = c;
unicode = 0063;
userData = {
com.typemytype.robofont.mark = (
0.656,
1,
0.6,
1
);
};
},
{
glyphname = d;
lastChange = "2018-06-22 22:17:12 +0000";
layers = (
{
anchors = (
{
name = btm;
position = "{300, 0}";
},
{
name = car;
position = "{613, 725}";
},
{
name = top;
position = "{226, 725}";
}
);
layerId = "12ECCE5E-04E9-4725-8BD5-31F21F15BB81";
paths = (
{
closed = 1;
nodes = (
"354 -10 OFFCURVE",
"416 37 OFFCURVE",
"437 81 CURVE",
"439 0 LINE",
"542 0 LINE",
"542 736 LINE",
"436 736 LINE",
"436 452 LINE",
"441 374 LINE",
"419 425 OFFCURVE",
"350 471 OFFCURVE",
"270 471 CURVE SMOOTH",
"130 471 OFFCURVE",
"44 376 OFFCURVE",
"44 231 CURVE SMOOTH",
"44 81 OFFCURVE",
"151 -10 OFFCURVE",
"274 -10 CURVE SMOOTH"
);
},
{
closed = 1;
nodes = (
"202 81 OFFCURVE",
"158 145 OFFCURVE",
"158 231 CURVE SMOOTH",
"158 315 OFFCURVE",
"203 380 OFFCURVE",
"292 380 CURVE SMOOTH",
"366 380 OFFCURVE",
"427 320 OFFCURVE",
"427 231 CURVE SMOOTH",
"427 224 LINE SMOOTH",
"427 136 OFFCURVE",
"365 81 OFFCURVE",
"292 81 CURVE SMOOTH"
);
}
);
width = 614;
}
);
leftKerningGroup = o;
rightKerningGroup = l;
unicode = 0064;
userData = {
com.typemytype.robofont.guides = (
{
angle = 90;
isGlobal = 0;
magnetic = 5;
x = 436;
y = 0;
}
);
com.typemytype.robofont.mark = (
0.656,
1,
0.6,
1
);
};
},
{
glyphname = eth;
lastChange = "2018-06-22 22:17:12 +0000";
layers = (
{
layerId = "12ECCE5E-04E9-4725-8BD5-31F21F15BB81";
paths = (
{
closed = 1;
nodes = (
"423 -9 OFFCURVE",
"523 75 OFFCURVE",
"523 281 CURVE SMOOTH",
"523 451 OFFCURVE",
"433 584 OFFCURVE",
"330 659 CURVE",
"386 722 LINE",
"333 774 LINE",
"272 705 LINE",
"236 730 OFFCURVE",
"200 753 OFFCURVE",
"164 772 CURVE",
"118 713 LINE",
"157 691 OFFCURVE",
"186 670 OFFCURVE",
"219 642 CURVE",
"159 582 LINE",
"211 530 LINE",
"272 597 LINE",
"340 540 OFFCURVE",
"383 479 OFFCURVE",
"408 411 CURVE",
"380 434 OFFCURVE",
"337 451 OFFCURVE",
"273 451 CURVE SMOOTH",
"147 451 OFFCURVE",
"44 365 OFFCURVE",
"44 219 CURVE SMOOTH",
"44 83 OFFCURVE",
"150 -9 OFFCURVE",
"287 -9 CURVE SMOOTH"
);
},
{
closed = 1;
nodes = (
"217 83 OFFCURVE",
"159 122 OFFCURVE",
"159 219 CURVE SMOOTH",
"159 316 OFFCURVE",
"202 359 OFFCURVE",
"278 359 CURVE SMOOTH",
"336 359 OFFCURVE",
"370 352 OFFCURVE",
"408 314 CURVE",
"415 289 OFFCURVE",
"419 252 OFFCURVE",
"419 231 CURVE SMOOTH",
"419 136 OFFCURVE",
"354 83 OFFCURVE",
"287 83 CURVE SMOOTH"
);
}
);
width = 565;
}
);
leftKerningGroup = o;
leftMetricsKey = o;
rightKerningGroup = eth;
unicode = 00F0;
userData = {
com.typemytype.robofont.mark = (
0.656,
1,
0.6,
1
);
};
},
{
glyphname = dcroat;
lastChange = "2018-06-22 22:17:12 +0000";
layers = (
{
layerId = "12ECCE5E-04E9-4725-8BD5-31F21F15BB81";
paths = (
{
closed = 1;
nodes = (
"367 -10 OFFCURVE",
"423 31 OFFCURVE",
"454 83 CURVE",
"454 0 LINE",
"562 0 LINE",
"562 550 LINE",
"619 550 LINE",
"619 631 LINE",
"562 631 LINE",
"562 735 LINE",
"454 735 LINE",
"454 631 LINE",
"326 631 LINE",
"326 550 LINE",
"454 550 LINE",
"454 386 LINE",
"422 437 OFFCURVE",
"364 471 OFFCURVE",
"282 471 CURVE SMOOTH",
"160 471 OFFCURVE",
"57 369 OFFCURVE",
"57 229 CURVE SMOOTH",
"57 79 OFFCURVE",
"162 -10 OFFCURVE",
"282 -10 CURVE SMOOTH"
);
},
{
closed = 1;
nodes = (
"215 81 OFFCURVE",
"170 146 OFFCURVE",
"170 231 CURVE SMOOTH",
"170 315 OFFCURVE",
"214 380 OFFCURVE",
"300 380 CURVE SMOOTH",
"380 380 OFFCURVE",
"445 316 OFFCURVE",
"445 228 CURVE SMOOTH",
"445 139 OFFCURVE",
"378 81 OFFCURVE",
"300 81 CURVE SMOOTH"
);
}
);
width = 645;
}
);
leftKerningGroup = o;
rightKerningGroup = l;
unicode = 0111;
userData = {
com.typemytype.robofont.mark = (
0.967,
0.6,
1,
1
);
};
},
{
glyphname = e;
lastChange = "2018-06-22 22:17:12 +0000";
layers = (
{
anchors = (
{
name = btm;
position = "{311, 0}";
},
{
name = top;
position = "{279, 725}";
}
);
layerId = "12ECCE5E-04E9-4725-8BD5-31F21F15BB81";
paths = (
{
closed = 1;
nodes = (
"378 -10 OFFCURVE",
"433 12 OFFCURVE",
"460 30 CURVE",
"427 107 LINE",
"400 93 OFFCURVE",
"363 77 OFFCURVE",
"291 77 CURVE SMOOTH",
"216 77 OFFCURVE",
"172 109 OFFCURVE",
"157 192 CURVE",
"487 192 LINE",
"489 211 OFFCURVE",
"490 230 OFFCURVE",
"490 248 CURVE SMOOTH",
"490 384 OFFCURVE",
"426 471 OFFCURVE",
"281 471 CURVE SMOOTH",
"144 471 OFFCURVE",
"44 378 OFFCURVE",
"44 229 CURVE SMOOTH",
"44 104 OFFCURVE",
"116 -10 OFFCURVE",
"288 -10 CURVE SMOOTH"
);
},
{
closed = 1;
nodes = (
"168 347 OFFCURVE",
"211 380 OFFCURVE",
"278 380 CURVE SMOOTH",
"342 380 OFFCURVE",
"386 354 OFFCURVE",
"385 267 CURVE",
"157 267 LINE"
);
}
);
width = 532;
}
);
leftKerningGroup = o;
rightKerningGroup = e;
unicode = 0065;
userData = {
com.typemytype.robofont.mark = (
0.656,
1,
0.6,
1
);
};
},
{
glyphname = eogonek;
lastChange = "2018-06-22 22:17:12 +0000";
layers = (
{
components = (
{
name = e;
}
);
layerId = "12ECCE5E-04E9-4725-8BD5-31F21F15BB81";
paths = (
{
closed = 1;
nodes = (
"384 -264 OFFCURVE",
"402 -261 OFFCURVE",
"414 -259 CURVE",
"414 -166 LINE",
"407 -167 OFFCURVE",
"390 -168 OFFCURVE",
"381 -168 CURVE SMOOTH",
"329 -168 OFFCURVE",
"311 -135 OFFCURVE",
"311 -108 CURVE SMOOTH",
"311 -45 OFFCURVE",
"369 -3 OFFCURVE",
"414 10 CURVE",
"361 40 LINE",
"314 23 LINE",
"280 4 OFFCURVE",
"214 -51 OFFCURVE",
"214 -130 CURVE SMOOTH",
"214 -227 OFFCURVE",
"277 -264 OFFCURVE",
"365 -264 CURVE SMOOTH"
);
}
);
width = 532;
}
);
leftKerningGroup = o;
leftMetricsKey = e;
widthMetricsKey = e;
rightKerningGroup = e;
unicode = 0119;
userData = {
com.typemytype.robofont.mark = (
0.967,
0.6,
1,
1
);
};
},
{
glyphname = f;
lastChange = "2019-08-21 00:44:00 +0000";
layers = (
{
anchors = (
{
name = btm;
position = "{207, 0}";
},
{
name = top;
position = "{186, 968}";
}
);
layerId = "12ECCE5E-04E9-4725-8BD5-31F21F15BB81";
paths = (
{
closed = 1;
nodes = (
"220 0 LINE",
"220 373 LINE",
"328 373 LINE",
"328 459 LINE",
"220 459 LINE",
"220 562 LINE",
"221 639 OFFCURVE",
"260 649 OFFCURVE",
"288 649 CURVE SMOOTH",
"313 649 OFFCURVE",
"334 634 OFFCURVE",
"341 626 CURVE",
"362 728 LINE",
"353 732 OFFCURVE",
"321 747 OFFCURVE",
"285 747 CURVE SMOOTH",
"171 747 OFFCURVE",
"114 676 OFFCURVE",
"114 558 CURVE SMOOTH",
"114 459 LINE",
"40 459 LINE",
"40 373 LINE",
"114 373 LINE",
"114 0 LINE"
);
}
);
width = 362;
}
);
leftKerningGroup = f;
rightKerningGroup = f;
unicode = 0066;
userData = {
com.typemytype.robofont.mark = (
0.656,
1,
0.6,
1
);
};
},
{
glyphname = g;
lastChange = "2018-06-22 18:32:31 +0000";
layers = (
{
anchors = (
{
name = btm;
position = "{273, 0}";
},
{
name = top;
position = "{310, 725}";
}
);
layerId = "12ECCE5E-04E9-4725-8BD5-31F21F15BB81";
paths = (
{
closed = 1;
nodes = (
"466 -240 OFFCURVE",
"540 -148 OFFCURVE",
"540 3 CURVE",
"540 459 LINE",
"438 459 LINE",
"436 382 LINE",
"420 420 OFFCURVE",
"353 471 OFFCURVE",
"269 471 CURVE SMOOTH",
"130 471 OFFCURVE",
"44 373 OFFCURVE",
"44 232 CURVE SMOOTH",
"44 83 OFFCURVE",
"142 -10 OFFCURVE",
"262 -10 CURVE SMOOTH",
"341 -10 OFFCURVE",
"407 31 OFFCURVE",
"434 81 CURVE",
"434 -1 LINE",
"433 -127 OFFCURVE",
"352 -143 OFFCURVE",
"291 -143 CURVE SMOOTH",
"224 -143 OFFCURVE",
"179 -121 OFFCURVE",
"147 -100 CURVE",
"123 -200 LINE",
"141 -210 OFFCURVE",
"216 -240 OFFCURVE",
"294 -240 CURVE SMOOTH"
);
},
{
closed = 1;
nodes = (
"202 81 OFFCURVE",
"158 145 OFFCURVE",
"158 231 CURVE SMOOTH",
"158 315 OFFCURVE",
"203 380 OFFCURVE",
"292 380 CURVE SMOOTH",
"366 380 OFFCURVE",
"427 320 OFFCURVE",
"427 231 CURVE SMOOTH",
"427 224 LINE SMOOTH",
"427 136 OFFCURVE",
"365 81 OFFCURVE",
"292 81 CURVE SMOOTH"
);
}
);
width = 607;
}
);
leftKerningGroup = o;
rightKerningGroup = g;
unicode = 0067;
userData = {
com.typemytype.robofont.mark = (
0.656,
1,
0.6,
1
);
};
},
{
glyphname = h;
lastChange = "2018-06-22 18:32:31 +0000";
layers = (
{
anchors = (
{
name = btm;
position = "{287, 0}";
},
{
name = top;
position = "{130, 725}";
}
);
layerId = "12ECCE5E-04E9-4725-8BD5-31F21F15BB81";
paths = (
{
closed = 1;
nodes = (
"182 0 LINE",
"182 228 LINE SMOOTH",
"182 327 OFFCURVE",
"256 380 OFFCURVE",
"313 380 CURVE SMOOTH",
"389 380 OFFCURVE",
"402 328 OFFCURVE",
"402 222 CURVE SMOOTH",
"402 0 LINE",
"509 0 LINE",
"509 221 LINE SMOOTH",
"509 374 OFFCURVE",
"484 471 OFFCURVE",
"336 471 CURVE SMOOTH",
"259 471 OFFCURVE",
"201 428 OFFCURVE",
"177 374 CURVE",
"181 459 LINE",
"181 735 LINE",
"76 735 LINE",
"76 0 LINE"
);
}
);
width = 575;
}
);
leftKerningGroup = h;
rightKerningGroup = n;
unicode = 0068;
userData = {
com.typemytype.robofont.mark = (
0.656,
1,
0.6,
1
);
};
},
{
glyphname = hbar;
lastChange = "2018-06-22 18:32:31 +0000";
layers = (
{
layerId = "12ECCE5E-04E9-4725-8BD5-31F21F15BB81";
paths = (
{
closed = 1;
nodes = (
"201 0 LINE",
"201 228 LINE SMOOTH",
"201 333 OFFCURVE",
"279 376 OFFCURVE",
"330 376 CURVE SMOOTH",
"411 376 OFFCURVE",
"433 328 OFFCURVE",
"433 243 CURVE SMOOTH",
"433 0 LINE",
"541 0 LINE",
"541 242 LINE SMOOTH",
"541 381 OFFCURVE",
"517 471 OFFCURVE",
"365 471 CURVE SMOOTH",
"285 471 OFFCURVE",
"227 422 OFFCURVE",
"201 374 CURVE",
"201 552 LINE",
"314 552 LINE",
"314 633 LINE",
"201 633 LINE",
"201 735 LINE",
"93 735 LINE",
"93 633 LINE",
"35 633 LINE",
"35 552 LINE",
"93 552 LINE",
"93 0 LINE"
);
}
);
width = 627;
}
);
leftKerningGroup = h;
rightKerningGroup = n;
unicode = 0127;
userData = {
com.typemytype.robofont.mark = (
0.967,
0.6,
1,
1
);
};
},
{
glyphname = idotless;
lastChange = "2018-06-22 18:32:31 +0000";
layers = (
{
anchors = (
{
name = btm;
position = "{137, 0}";
},
{
name = top;
position = "{135, 725}";
}
);
layerId = "12ECCE5E-04E9-4725-8BD5-31F21F15BB81";
paths = (
{
closed = 1;
nodes = (
"191 0 LINE",
"191 459 LINE",
"79 459 LINE",
"79 0 LINE"
);
}
);
width = 270;
}
);
leftKerningGroup = i;
rightKerningGroup = i;
unicode = 0131;
userData = {
com.typemytype.robofont.guides = (
{
angle = 90;
isGlobal = 0;
magnetic = 5;
x = 135;
y = 0;
}
);
com.typemytype.robofont.mark = (
0.656,
1,
0.6,
1
);
};
},
{
glyphname = iogonek;
lastChange = "2018-06-22 22:17:12 +0000";
layers = (
{
components = (
{
name = i;
}
);
layerId = "12ECCE5E-04E9-4725-8BD5-31F21F15BB81";
paths = (
{
closed = 1;
nodes = (
"161 -264 OFFCURVE",
"179 -261 OFFCURVE",
"191 -259 CURVE",
"191 -166 LINE",
"184 -167 OFFCURVE",
"167 -168 OFFCURVE",
"158 -168 CURVE SMOOTH",
"106 -168 OFFCURVE",
"88 -135 OFFCURVE",
"88 -108 CURVE SMOOTH",
"88 -45 OFFCURVE",
"146 -13 OFFCURVE",
"191 0 CURVE",
"138 30 LINE",
"91 13 LINE",
"57 -6 OFFCURVE",
"-9 -51 OFFCURVE",
"-9 -130 CURVE SMOOTH",
"-9 -227 OFFCURVE",
"54 -264 OFFCURVE",
"142 -264 CURVE SMOOTH"
);
}
);
width = 270;
}
);
leftKerningGroup = i;
rightKerningGroup = i;
unicode = 012F;
userData = {
com.typemytype.robofont.mark = (
0.967,
0.6,
1,
1
);
};
},
{
glyphname = jdotless;
lastChange = "2018-06-22 22:17:12 +0000";
layers = (
{
anchors = (
{
name = top;
position = "{141, 725}";
}
);
layerId = "12ECCE5E-04E9-4725-8BD5-31F21F15BB81";
paths = (
{
closed = 1;
nodes = (
"136 -244 OFFCURVE",
"200 -182 OFFCURVE",
"200 -65 CURVE SMOOTH",
"200 459 LINE",
"92 459 LINE",
"92 -60 LINE SMOOTH",
"92 -139 OFFCURVE",
"69 -151 OFFCURVE",
"30 -151 CURVE SMOOTH",
"10 -151 OFFCURVE",
"-5 -145 OFFCURVE",
"-29 -136 CURVE",
"-52 -233 LINE",
"-21 -241 OFFCURVE",
"2 -244 OFFCURVE",
"28 -244 CURVE SMOOTH"
);
}
);
width = 279;
}
);
leftKerningGroup = j;
rightKerningGroup = j;
unicode = 0237;
},
{
glyphname = k;
lastChange = "2018-06-22 18:32:31 +0000";
layers = (
{
anchors = (
{
name = btm;
position = "{288, 0}";
},
{
name = top;
position = "{350, 725}";
}
);
layerId = "12ECCE5E-04E9-4725-8BD5-31F21F15BB81";
paths = (
{
closed = 1;
nodes = (
"180 0 LINE",
"180 136 LINE",
"255 217 LINE",
"233 214 LINE",
"266 150 LINE",
"359 0 LINE",
"486 0 LINE",
"303 280 LINE",
"300 254 LINE",
"485 459 LINE",
"352 459 LINE",
"177 254 LINE",
"179 332 LINE",
"179 735 LINE",
"76 735 LINE",
"76 0 LINE"
);
}
);
width = 501;
}
);
leftKerningGroup = h;
rightKerningGroup = k;
unicode = 006B;
userData = {
com.typemytype.robofont.mark = (
0.656,
1,
0.6,
1
);
};
},
{
glyphname = kgreenlandic;
lastChange = "2018-06-22 18:32:31 +0000";
layers = (
{
layerId = "12ECCE5E-04E9-4725-8BD5-31F21F15BB81";
paths = (
{
closed = 1;
nodes = (
"181 0 LINE",
"181 129 LINE",
"227 177 LINE",
"361 0 LINE",
"501 0 LINE",
"300 252 LINE",
"500 459 LINE",
"360 459 LINE",
"181 264 LINE",
"181 459 LINE",
"71 459 LINE",
"71 0 LINE"
);
}
);
width = 516;
}
);
leftKerningGroup = n;
leftMetricsKey = n;
rightKerningGroup = k;
rightMetricsKey = k;
unicode = 0138;
userData = {
com.typemytype.robofont.mark = (
0.967,
0.6,
1,
1
);
};
},
{
glyphname = l;
lastChange = "2018-06-22 18:32:31 +0000";
layers = (
{
anchors = (
{
name = btm;
position = "{132, 0}";
},
{
name = car;
position = "{267, 725}";
},
{
name = top;
position = "{135, 725}";
}
);
layerId = "12ECCE5E-04E9-4725-8BD5-31F21F15BB81";
paths = (
{
closed = 1;
nodes = (
"187 0 LINE",
"187 735 LINE",
"80 735 LINE",
"80 0 LINE"
);
}
);
width = 268;
}
);
leftKerningGroup = h;
rightKerningGroup = l;
unicode = 006C;
userData = {
com.typemytype.robofont.mark = (
0.656,
1,
0.6,
1
);
};
},
{
glyphname = lslash;
lastChange = "2018-06-22 18:32:31 +0000";
layers = (
{
layerId = "12ECCE5E-04E9-4725-8BD5-31F21F15BB81";
paths = (
{
closed = 1;
nodes = (
"197 3 LINE",
"197 337 LINE",
"289 377 LINE",
"289 471 LINE",
"197 431 LINE",
"197 739 LINE",
"89 739 LINE",
"89 382 LINE",
"0 343 LINE",
"0 250 LINE",
"89 289 LINE",
"89 3 LINE"
);
}
);
width = 289;
}
);
leftKerningGroup = lslash;
rightKerningGroup = lslash;
unicode = 0142;
userData = {
com.typemytype.robofont.mark = (
0.967,
0.6,
1,
1
);
};
},
{
glyphname = m;
lastChange = "2018-06-22 18:32:31 +0000";
layers = (
{
anchors = (
{
name = btm;
position = "{450, 0}";
},
{
name = top;
position = "{452, 725}";
}
);
layerId = "12ECCE5E-04E9-4725-8BD5-31F21F15BB81";
paths = (
{
closed = 1;
nodes = (
"180 0 LINE",
"180 228 LINE SMOOTH",
"180 313 OFFCURVE",
"243 382 OFFCURVE",
"313 382 CURVE SMOOTH",
"397 382 OFFCURVE",
"397 333 OFFCURVE",
"397 247 CURVE SMOOTH",
"397 0 LINE",
"505 0 LINE",
"505 228 LINE SMOOTH",
"505 316 OFFCURVE",
"545 382 OFFCURVE",
"633 382 CURVE SMOOTH",
"698 382 OFFCURVE",
"713 334 OFFCURVE",
"713 231 CURVE SMOOTH",
"713 0 LINE",
"822 0 LINE",
"822 230 LINE SMOOTH",
"822 383 OFFCURVE",
"801 471 OFFCURVE",
"651 471 CURVE SMOOTH",
"586 471 OFFCURVE",
"521 438 OFFCURVE",
"492 386 CURVE",
"475 436 OFFCURVE",
"432 470 OFFCURVE",
"341 471 CURVE SMOOTH",
"270 471 OFFCURVE",
"209 441 OFFCURVE",
"179 376 CURVE",
"179 459 LINE",
"71 459 LINE",
"71 0 LINE"
);
}
);
width = 889;
}
);
leftKerningGroup = n;
rightKerningGroup = n;
unicode = 006D;
userData = {
com.typemytype.robofont.mark = (
0.656,
1,
0.6,
1
);
};
},
{
glyphname = n;
lastChange = "2018-06-22 18:32:31 +0000";
layers = (
{
anchors = (
{
name = btm;
position = "{299, 0}";
},
{
name = top;
position = "{308, 725}";
}
);
layerId = "12ECCE5E-04E9-4725-8BD5-31F21F15BB81";
paths = (
{
closed = 1;
nodes = (
"179 0 LINE",
"179 228 LINE SMOOTH",
"179 327 OFFCURVE",
"254 382 OFFCURVE",
"312 382 CURVE SMOOTH",
"387 382 OFFCURVE",
"399 324 OFFCURVE",
"399 218 CURVE SMOOTH",
"399 0 LINE",
"507 0 LINE",
"507 221 LINE SMOOTH",
"507 374 OFFCURVE",
"482 471 OFFCURVE",
"334 471 CURVE SMOOTH",
"258 471 OFFCURVE",
"202 429 OFFCURVE",
"178 375 CURVE",
"177 459 LINE",
"71 459 LINE",
"71 0 LINE"
);
}
);
width = 575;
}
);
leftKerningGroup = n;
rightKerningGroup = n;
unicode = 006E;
userData = {
com.typemytype.robofont.mark = (
0.656,
1,
0.6,
1
);
};
},
{
glyphname = eng;
lastChange = "2018-06-22 22:17:12 +0000";
layers = (
{
layerId = "12ECCE5E-04E9-4725-8BD5-31F21F15BB81";
paths = (
{
closed = 1;
nodes = (
"505 -255 OFFCURVE",
"542 -184 OFFCURVE",
"542 -67 CURVE SMOOTH",
"542 242 LINE SMOOTH",
"542 370 OFFCURVE",
"522 471 OFFCURVE",
"370 471 CURVE SMOOTH",
"283 471 OFFCURVE",
"227 425 OFFCURVE",
"201 377 CURVE",
"201 459 LINE",
"93 459 LINE",
"93 0 LINE",
"201 0 LINE",
"201 228 LINE SMOOTH",
"201 333 OFFCURVE",
"273 376 OFFCURVE",
"335 376 CURVE SMOOTH",
"408 376 OFFCURVE",
"434 327 OFFCURVE",
"434 243 CURVE SMOOTH",
"434 -73 LINE SMOOTH",
"434 -135 OFFCURVE",
"414 -162 OFFCURVE",
"372 -162 CURVE SMOOTH",
"354 -162 OFFCURVE",
"330 -156 OFFCURVE",
"303 -146 CURVE",
"282 -243 LINE",
"290 -248 OFFCURVE",
"321 -255 OFFCURVE",
"369 -255 CURVE SMOOTH"
);
}
);
width = 628;
}
);
leftKerningGroup = n;
rightKerningGroup = j;
unicode = 014B;
userData = {
com.typemytype.robofont.mark = (
0.967,
0.6,
1,
1
);
};
},
{
glyphname = o;
lastChange = "2019-10-18 19:55:11 +0000";
layers = (
{
anchors = (
{
name = btm;
position = "{285, 0}";
},
{
name = top;
position = "{285, 725}";
}
);
layerId = "12ECCE5E-04E9-4725-8BD5-31F21F15BB81";
paths = (
{
closed = 1;
nodes = (
"431 -10 OFFCURVE",
"525 96 OFFCURVE",
"525 231 CURVE SMOOTH",
"525 363 OFFCURVE",
"433 471 OFFCURVE",
"285 471 CURVE SMOOTH",
"137 471 OFFCURVE",
"44 363 OFFCURVE",
"44 231 CURVE SMOOTH",
"44 96 OFFCURVE",
"140 -10 OFFCURVE",
"285 -10 CURVE SMOOTH"
);
},
{
closed = 1;
nodes = (
"210 78 OFFCURVE",
"156 145 OFFCURVE",
"156 229 CURVE SMOOTH",
"156 314 OFFCURVE",
"204 383 OFFCURVE",
"282 383 CURVE SMOOTH",
"362 383 OFFCURVE",
"413 314 OFFCURVE",
"413 229 CURVE SMOOTH",
"413 145 OFFCURVE",
"368 78 OFFCURVE",
"288 78 CURVE SMOOTH"
);
}
);
width = 569;
}
);
leftKerningGroup = o;
rightKerningGroup = o;
unicode = 006F;
userData = {
com.typemytype.robofont.mark = (
0.656,
1,
0.6,
1
);
};
},
{
glyphname = ohorn;
lastChange = "2018-06-22 18:32:31 +0000";
layers = (
{
anchors = (
{
name = btm;
position = "{285, 0}";
},
{
name = top;
position = "{285, 725}";
}
);
components = (
{
name = o;
}
);
layerId = "12ECCE5E-04E9-4725-8BD5-31F21F15BB81";
paths = (
{
closed = 1;
nodes = (
"481 410 OFFCURVE",
"558 441 OFFCURVE",
"558 505 CURVE SMOOTH",
"558 546 OFFCURVE",
"556 561 OFFCURVE",
"551 577 CURVE",
"457 577 LINE",
"463 562 OFFCURVE",
"465 547 OFFCURVE",
"465 520 CURVE SMOOTH",
"465 459 OFFCURVE",
"378 459 OFFCURVE",
"361 459 CURVE",
"445 410 LINE"
);
}
);
width = 569;
}
);
leftKerningGroup = o;
rightKerningGroup = o;
unicode = 01A1;
userData = {
com.typemytype.robofont.mark = (
1,
0.6,
0.6,
1
);
};
},
{
glyphname = oogonek;
lastChange = "2018-06-22 22:17:12 +0000";
layers = (
{
anchors = (
{
name = _btm;
position = "{285, 0}";
},
{
name = btm;
position = "{285, 0}";
}
);
components = (
{
name = o;
}
);
layerId = "12ECCE5E-04E9-4725-8BD5-31F21F15BB81";
paths = (
{
closed = 1;
nodes = (
"349 -264 OFFCURVE",
"367 -261 OFFCURVE",
"379 -259 CURVE",
"379 -166 LINE",
"372 -167 OFFCURVE",
"355 -168 OFFCURVE",
"346 -168 CURVE SMOOTH",
"294 -168 OFFCURVE",
"276 -135 OFFCURVE",
"276 -108 CURVE SMOOTH",
"276 -35 OFFCURVE",
"334 -3 OFFCURVE",
"379 10 CURVE",
"326 40 LINE",
"279 23 LINE",
"245 4 OFFCURVE",
"179 -51 OFFCURVE",
"179 -130 CURVE SMOOTH",
"179 -227 OFFCURVE",
"242 -264 OFFCURVE",
"330 -264 CURVE SMOOTH"
);
}
);
width = 569;
}
);
leftKerningGroup = o;
rightKerningGroup = o;
unicode = 01EB;
},
{
glyphname = oslash;
lastChange = "2018-06-22 22:17:12 +0000";
layers = (
{
components = (
{
name = o;
transform = "{1, 0, 0, 1, 2, 0}";
}
);
layerId = "12ECCE5E-04E9-4725-8BD5-31F21F15BB81";
paths = (
{
closed = 1;
nodes = (
"468 543 LINE",
"412 569 LINE",
"115 -84 LINE",
"172 -110 LINE"
);
}
);
width = 575;
}
);
leftKerningGroup = o;
rightKerningGroup = o;
unicode = 00F8;
userData = {
com.typemytype.robofont.mark = (
0.656,
1,
0.6,
1
);
};
},
{
glyphname = oe;
lastChange = "2018-06-22 22:17:12 +0000";
layers = (
{
layerId = "12ECCE5E-04E9-4725-8BD5-31F21F15BB81";
paths = (
{
closed = 1;
nodes = (
"364 -9 OFFCURVE",
"428 22 OFFCURVE",
"469 73 CURVE",
"512 21 OFFCURVE",
"582 -9 OFFCURVE",
"675 -9 CURVE SMOOTH",
"760 -9 OFFCURVE",
"808 7 OFFCURVE",
"844 27 CURVE",
"807 109 LINE",
"780 96 OFFCURVE",
"740 81 OFFCURVE",
"670 81 CURVE SMOOTH",
"594 81 OFFCURVE",
"534 112 OFFCURVE",
"529 196 CURVE",
"866 196 LINE",
"868 215 OFFCURVE",
"869 232 OFFCURVE",
"869 249 CURVE SMOOTH",
"869 386 OFFCURVE",
"807 471 OFFCURVE",
"663 471 CURVE SMOOTH",
"583 471 OFFCURVE",
"514 442 OFFCURVE",
"470 387 CURVE",
"429 438 OFFCURVE",
"365 471 OFFCURVE",
"284 471 CURVE SMOOTH",
"136 471 OFFCURVE",
"44 363 OFFCURVE",
"44 231 CURVE SMOOTH",
"44 96 OFFCURVE",
"138 -9 OFFCURVE",
"284 -9 CURVE SMOOTH"
);
},
{
closed = 1;
nodes = (
"205 80 OFFCURVE",
"154 145 OFFCURVE",
"154 229 CURVE SMOOTH",
"154 314 OFFCURVE",
"205 381 OFFCURVE",
"283 381 CURVE SMOOTH",
"363 381 OFFCURVE",
"414 314 OFFCURVE",
"414 229 CURVE SMOOTH",
"414 145 OFFCURVE",
"363 80 OFFCURVE",
"283 80 CURVE SMOOTH"
);
},
{
closed = 1;
nodes = (
"543 351 OFFCURVE",
"590 380 OFFCURVE",
"654 380 CURVE SMOOTH",
"724 380 OFFCURVE",
"756 355 OFFCURVE",
"763 276 CURVE",
"529 276 LINE"
);
}
);
width = 913;
}
);
leftKerningGroup = o;
rightKerningGroup = e;
unicode = 0153;
userData = {
com.typemytype.robofont.mark = (
0.656,
1,
0.6,
1
);
};
},
{
glyphname = p;
lastChange = "2018-06-22 22:17:12 +0000";
layers = (
{
anchors = (
{
name = btm;
position = "{347, 0}";
},
{
name = top;
position = "{345, 725}";
}
);
layerId = "12ECCE5E-04E9-4725-8BD5-31F21F15BB81";
paths = (
{
closed = 1;
nodes = (
"178 -243 LINE",
"177 69 LINE",
"209 19 OFFCURVE",
"265 -10 OFFCURVE",
"344 -10 CURVE SMOOTH",
"467 -10 OFFCURVE",
"566 84 OFFCURVE",
"566 232 CURVE SMOOTH",
"566 393 OFFCURVE",
"472 471 OFFCURVE",
"349 471 CURVE SMOOTH",
"261 471 OFFCURVE",
"208 429 OFFCURVE",
"177 374 CURVE",
"177 459 LINE",
"73 459 LINE",
"73 -243 LINE"
);
},
{
closed = 1;
nodes = (
"246 81 OFFCURVE",
"183 139 OFFCURVE",
"183 228 CURVE SMOOTH",
"183 235 LINE SMOOTH",
"183 324 OFFCURVE",
"247 378 OFFCURVE",
"319 378 CURVE SMOOTH",
"410 378 OFFCURVE",
"454 316 OFFCURVE",
"454 229 CURVE",
"454 146 OFFCURVE",
"409 81 OFFCURVE",
"319 81 CURVE SMOOTH"
);
}
);
width = 610;
}
);
leftKerningGroup = p;
rightKerningGroup = o;
unicode = 0070;
userData = {
com.typemytype.robofont.mark = (
0.656,
1,
0.6,
1
);
};
},
{
glyphname = thorn;
lastChange = "2018-06-22 22:17:12 +0000";
layers = (
{
anchors = (
{
name = btm;
position = "{343, -10}";
},
{
name = top;
position = "{364, 725}";
}
);
components = (
{
name = p;
}
);
layerId = "12ECCE5E-04E9-4725-8BD5-31F21F15BB81";
paths = (
{
closed = 1;
nodes = (
"177 -243 LINE",
"177 75 LINE",
"208 24 OFFCURVE",
"253 -9 OFFCURVE",
"354 -9 CURVE SMOOTH",
"467 -9 OFFCURVE",
"567 92 OFFCURVE",
"567 232 CURVE SMOOTH",
"567 388 OFFCURVE",
"475 471 OFFCURVE",
"354 471 CURVE SMOOTH",
"265 471 OFFCURVE",
"207 427 OFFCURVE",
"177 375 CURVE",
"177 736 LINE",
"74 736 LINE",
"74 -243 LINE"
);
},
{
closed = 1;
nodes = (
"249 80 OFFCURVE",
"183 140 OFFCURVE",
"183 229 CURVE SMOOTH",
"183 236 LINE SMOOTH",
"183 324 OFFCURVE",
"250 379 OFFCURVE",
"323 379 CURVE SMOOTH",
"414 379 OFFCURVE",
"454 315 OFFCURVE",
"454 229 CURVE SMOOTH",
"454 145 OFFCURVE",
"413 80 OFFCURVE",
"323 80 CURVE SMOOTH"
);
}
);
width = 611;
}
);
leftKerningGroup = thorn;
rightKerningGroup = o;
rightMetricsKey = p;
unicode = 00FE;
userData = {
com.typemytype.robofont.mark = (
0.656,
1,
0.6,
1
);
};
},
{
glyphname = q;
lastChange = "2018-06-22 22:17:12 +0000";
layers = (
{
anchors = (
{
name = btm;
position = "{267, 0}";
},
{
name = top;
position = "{261, 725}";
}
);
layerId = "12ECCE5E-04E9-4725-8BD5-31F21F15BB81";
paths = (
{
closed = 1;
nodes = (
"541 -243 LINE",
"541 459 LINE",
"437 459 LINE",
"436 375 LINE",
"405 431 OFFCURVE",
"354 471 OFFCURVE",
"267 471 CURVE SMOOTH",
"146 471 OFFCURVE",
"44 393 OFFCURVE",
"44 232 CURVE SMOOTH",
"44 84 OFFCURVE",
"144 -10 OFFCURVE",
"267 -10 CURVE SMOOTH",
"346 -10 OFFCURVE",
"404 19 OFFCURVE",
"436 69 CURVE",
"435 -243 LINE"
);
},
{
closed = 1;
nodes = (
"202 80 OFFCURVE",
"158 144 OFFCURVE",
"158 230 CURVE SMOOTH",
"158 314 OFFCURVE",
"203 379 OFFCURVE",
"292 379 CURVE SMOOTH",
"366 379 OFFCURVE",
"427 319 OFFCURVE",
"427 230 CURVE SMOOTH",
"427 223 LINE SMOOTH",
"427 135 OFFCURVE",
"365 80 OFFCURVE",
"292 80 CURVE SMOOTH"
);
}
);
width = 613;
}
);
leftKerningGroup = o;
rightKerningGroup = q;
unicode = 0071;
userData = {
com.typemytype.robofont.mark = (
0.656,
1,
0.6,
1
);
};
},
{
glyphname = r;
lastChange = "2018-06-22 18:32:31 +0000";
layers = (
{
anchors = (
{
name = btm;
position = "{139, 0}";
},
{
name = top;
position = "{202, 725}";
}
);
layerId = "12ECCE5E-04E9-4725-8BD5-31F21F15BB81";
paths = (
{
closed = 1;
nodes = (
"176 0 LINE",
"176 236 LINE SMOOTH",
"176 334 OFFCURVE",
"250 362 OFFCURVE",
"300 362 CURVE SMOOTH",
"319 362 OFFCURVE",
"333 360 OFFCURVE",
"339 356 CURVE",
"354 465 LINE",
"348 468 OFFCURVE",
"330 471 OFFCURVE",
"310 471 CURVE SMOOTH",
"247 471 OFFCURVE",
"197 429 OFFCURVE",
"176 369 CURVE",
"176 459 LINE",
"68 459 LINE",
"68 0 LINE"
);
}
);
width = 359;
}
);
leftKerningGroup = n;
rightKerningGroup = r;
unicode = 0072;
userData = {
com.typemytype.robofont.mark = (
0.656,
1,
0.6,
1
);
};
},
{
glyphname = s;
lastChange = "2018-06-22 22:17:12 +0000";
layers = (
{
anchors = (
{
name = btm;
position = "{221, 0}";
},
{
name = top;
position = "{242, 725}";
}
);
layerId = "12ECCE5E-04E9-4725-8BD5-31F21F15BB81";
paths = (
{
closed = 1;
nodes = (
"327 -10 OFFCURVE",
"411 33 OFFCURVE",
"411 128 CURVE SMOOTH",
"411 197 OFFCURVE",
"366 235 OFFCURVE",
"285 267 CURVE SMOOTH",
"225 290 OFFCURVE",
"173 299 OFFCURVE",
"173 342 CURVE SMOOTH",
"173 370 OFFCURVE",
"195 385 OFFCURVE",
"244 385 CURVE SMOOTH",
"294 385 OFFCURVE",
"333 369 OFFCURVE",
"349 353 CURVE",
"388 439 LINE",
"361 457 OFFCURVE",
"303 471 OFFCURVE",
"247 471 CURVE SMOOTH",
"138 471 OFFCURVE",
"65 423 OFFCURVE",
"65 337 CURVE SMOOTH",
"65 256 OFFCURVE",
"128 218 OFFCURVE",
"195 191 CURVE SMOOTH",
"263 164 OFFCURVE",
"306 158 OFFCURVE",
"306 120 CURVE SMOOTH",
"306 96 OFFCURVE",
"289 75 OFFCURVE",
"229 75 CURVE SMOOTH",
"161 75 OFFCURVE",
"115 101 OFFCURVE",
"92 117 CURVE",
"56 32 LINE",
"85 10 OFFCURVE",
"165 -10 OFFCURVE",
"229 -10 CURVE SMOOTH"
);
}
);
width = 452;
}
);
leftKerningGroup = s;
rightKerningGroup = s;
unicode = 0073;
userData = {
com.typemytype.robofont.mark = (
0.656,
1,
0.6,
1
);
};
},
{
glyphname = germandbls;
lastChange = "2018-06-22 18:32:31 +0000";
layers = (
{
layerId = "12ECCE5E-04E9-4725-8BD5-31F21F15BB81";
paths = (
{
closed = 1;
nodes = (
"192 -92 LINE",
"192 438 LINE SMOOTH",
"192 609 OFFCURVE",
"235 655 OFFCURVE",
"320 655 CURVE SMOOTH",
"378 655 OFFCURVE",
"412 613 OFFCURVE",
"412 557 CURVE SMOOTH",
"412 503 OFFCURVE",
"385 425 OFFCURVE",
"272 425 CURVE",
"272 340 LINE",
"415 340 OFFCURVE",
"457 290 OFFCURVE",
"457 211 CURVE SMOOTH",
"457 158 OFFCURVE",
"431 98 OFFCURVE",
"319 98 CURVE SMOOTH",
"272 98 LINE",
"272 0 LINE",
"308 0 LINE SMOOTH",
"507 0 OFFCURVE",
"573 90 OFFCURVE",
"573 211 CURVE SMOOTH",
"573 300 OFFCURVE",
"539 375 OFFCURVE",
"414 395 CURVE",
"483 427 OFFCURVE",
"521 491 OFFCURVE",
"521 565 CURVE SMOOTH",
"521 631 OFFCURVE",
"481 747 OFFCURVE",
"324 747 CURVE SMOOTH",
"148 747 OFFCURVE",
"85 626 OFFCURVE",
"85 485 CURVE SMOOTH",
"85 -92 LINE"
);
}
);
width = 626;
}
);
leftKerningGroup = h;
rightKerningGroup = germandbls;
unicode = 00DF;
userData = {
com.typemytype.robofont.mark = (
0.656,
1,
0.6,
1
);
};
},
{
color = 7;
glyphname = t;
lastChange = "2018-06-22 20:37:17 +0000";
layers = (
{
anchors = (
{
name = btm;
position = "{167, 0}";
},
{
name = car;
position = "{302, 725}";
},
{
name = top;
position = "{171, 886}";
}
);
layerId = "12ECCE5E-04E9-4725-8BD5-31F21F15BB81";
paths = (
{
closed = 1;
nodes = (
"220 0 LINE",
"220 371 LINE",
"326 371 LINE",
"326 459 LINE",
"220 459 LINE",
"220 670 LINE",
"111 646 LINE",
"111 459 LINE",
"30 459 LINE",
"30 371 LINE",
"111 371 LINE",
"111 0 LINE"
);
}
);
width = 343;
}
);
leftKerningGroup = t;
rightKerningGroup = t;
unicode = 0074;
userData = {
com.typemytype.robofont.mark = (
0.656,
1,
0.6,
1
);
};
},
{
color = 7;
glyphname = tbar;
lastChange = "2018-06-22 20:37:17 +0000";
layers = (
{
layerId = "12ECCE5E-04E9-4725-8BD5-31F21F15BB81";
paths = (
{
closed = 1;
nodes = (
"221 0 LINE",
"221 187 LINE",
"326 187 LINE",
"326 269 LINE",
"221 269 LINE",
"221 368 LINE",
"326 368 LINE",
"326 460 LINE",
"221 460 LINE",
"221 685 LINE",
"113 662 LINE",
"113 460 LINE",
"30 460 LINE",
"30 368 LINE",
"113 368 LINE",
"113 269 LINE",
"30 269 LINE",
"30 187 LINE",
"113 187 LINE",
"113 0 LINE"
);
}
);
width = 343;
}
);
leftKerningGroup = t;
leftMetricsKey = t;
widthMetricsKey = t;
rightKerningGroup = t;
unicode = 0167;
userData = {
com.typemytype.robofont.mark = (
0.967,
0.6,
1,
1
);
};
},
{
glyphname = u;
lastChange = "2018-06-22 22:17:12 +0000";
layers = (
{
anchors = (
{
name = btm;
position = "{222, 0}";
},
{
name = top;
position = "{268, 725}";
}
);
layerId = "12ECCE5E-04E9-4725-8BD5-31F21F15BB81";
paths = (
{
closed = 1;
nodes = (
"302 -10 OFFCURVE",
"350 16 OFFCURVE",
"383 67 CURVE",
"395 0 LINE",
"483 0 LINE",
"483 459 LINE",
"376 459 LINE",
"376 199 LINE SMOOTH",
"376 130 OFFCURVE",
"318 79 OFFCURVE",
"263 79 CURVE SMOOTH",
"184 79 OFFCURVE",
"172 123 OFFCURVE",
"172 229 CURVE SMOOTH",
"172 459 LINE",
"64 459 LINE",
"64 202 LINE SMOOTH",
"64 86 OFFCURVE",
"92 -10 OFFCURVE",
"230 -10 CURVE SMOOTH"
);
}
);
width = 556;
}
);
leftKerningGroup = u;
rightKerningGroup = u;
unicode = 0075;
userData = {
com.typemytype.robofont.mark = (
0.656,
1,
0.6,
1
);
};
},
{
glyphname = uhorn;
lastChange = "2018-06-22 18:32:31 +0000";
layers = (
{
anchors = (
{
name = top;
position = "{268, 725}";
}
);
components = (
{
name = u;
}
);
layerId = "12ECCE5E-04E9-4725-8BD5-31F21F15BB81";
paths = (
{
closed = 1;
nodes = (
"496 410 OFFCURVE",
"556 455 OFFCURVE",
"556 505 CURVE SMOOTH",
"556 546 OFFCURVE",
"554 561 OFFCURVE",
"549 577 CURVE",
"455 577 LINE",
"461 562 OFFCURVE",
"463 547 OFFCURVE",
"463 520 CURVE SMOOTH",
"463 473 OFFCURVE",
"393 459 OFFCURVE",
"376 459 CURVE",
"460 410 LINE"
);
}
);
width = 556;
}
);
leftKerningGroup = u;
rightKerningGroup = u;
unicode = 01B0;
userData = {
com.typemytype.robofont.mark = (
1,
0.6,
0.6,
1
);
};
},
{
glyphname = uogonek;
lastChange = "2018-06-22 22:17:12 +0000";
layers = (
{
background = {
paths = (
{
closed = 1;
nodes = (
"565 -134 LINE",
"541 -146 OFFCURVE",
"517 -149 OFFCURVE",
"497 -149 CURVE SMOOTH",
"458 -149 OFFCURVE",
"435 -135 OFFCURVE",
"435 -101 CURVE SMOOTH",
"435 -58 OFFCURVE",
"468 -4 OFFCURVE",
"538 13 CURVE",
"492 46 LINE",
"435 19 LINE",
"339 -5 OFFCURVE",
"322 -78 OFFCURVE",
"322 -128 CURVE SMOOTH",
"322 -199 OFFCURVE",
"377 -250 OFFCURVE",
"481 -250 CURVE SMOOTH",
"516 -250 OFFCURVE",
"545 -244 OFFCURVE",
"565 -234 CURVE"
);
}
);
};
components = (
{
name = u;
}
);
layerId = "12ECCE5E-04E9-4725-8BD5-31F21F15BB81";
paths = (
{
closed = 1;
nodes = (
"452 -264 OFFCURVE",
"470 -261 OFFCURVE",
"482 -259 CURVE",
"482 -166 LINE",
"475 -167 OFFCURVE",
"458 -168 OFFCURVE",
"449 -168 CURVE SMOOTH",
"407 -168 OFFCURVE",
"390 -135 OFFCURVE",
"390 -108 CURVE SMOOTH",
"390 -45 OFFCURVE",
"447 -13 OFFCURVE",
"482 0 CURVE",
"429 30 LINE",
"392 13 LINE",
"358 -6 OFFCURVE",
"293 -51 OFFCURVE",
"293 -130 CURVE SMOOTH",
"293 -227 OFFCURVE",
"355 -264 OFFCURVE",
"433 -264 CURVE SMOOTH"
);
}
);
width = 556;
}
);
leftKerningGroup = u;
rightKerningGroup = u;
unicode = 0173;
userData = {
com.typemytype.robofont.mark = (
0.967,
0.6,
1,
1
);
};
},
{
color = 8;
glyphname = v;
lastChange = "2019-10-18 19:56:03 +0000";
layers = (
{
anchors = (
{
name = btm;
position = "{252, 0}";
},
{
name = top;
position = "{256, 725}";
}
);
background = {
paths = (
{
closed = 1;
nodes = (
"502 459 LINE",
"382 459 LINE",
"284 255 LINE",
"252 176 LINE",
"220 255 LINE",
"121 459 LINE",
"-2 459 LINE",
"251 -18 LINE"
);
}
);
};
layerId = "12ECCE5E-04E9-4725-8BD5-31F21F15BB81";
paths = (
{
closed = 1;
nodes = (
"502 459 LINE",
"382 459 LINE",
"284 255 LINE",
"252 176 LINE",
"220 255 LINE",
"121 459 LINE",
"-2 459 LINE",
"250 -18 LINE",
"251 -18 LINE"
);
}
);
width = 500;
}
);
leftKerningGroup = v;
rightKerningGroup = v;
unicode = 0076;
userData = {
com.typemytype.robofont.mark = (
0.656,
1,
0.6,
1
);
};
},
{
glyphname = w;
lastChange = "2019-10-18 19:57:02 +0000";
layers = (
{
anchors = (
{
name = btm;
position = "{353, 0}";
},
{
name = top;
position = "{353, 725}";
}
);
background = {
paths = (
{
closed = 1;
nodes = (
"351 249 LINE",
"497 -18 LINE",
"698 459 LINE",
"584 459 LINE",
"488 201 LINE",
"352 454 LINE",
"221 199 LINE",
"119 459 LINE",
"3 459 LINE",
"212 -18 LINE"
);
}
);
};
layerId = "12ECCE5E-04E9-4725-8BD5-31F21F15BB81";
paths = (
{
closed = 1;
nodes = (
"351 249 LINE",
"496 -18 LINE",
"497 -18 LINE",
"698 459 LINE",
"584 459 LINE",
"488 201 LINE",
"352 454 LINE",
"221 199 LINE",
"119 459 LINE",
"3 459 LINE",
"211 -18 LINE",
"212 -18 LINE"
);
}
);
width = 695;
}
);
leftKerningGroup = w;
rightKerningGroup = w;
unicode = 0077;
userData = {
com.typemytype.robofont.mark = (
0.656,
1,
0.6,
1
);
};
},
{
glyphname = x;
lastChange = "2018-06-22 18:32:31 +0000";
layers = (
{
anchors = (
{
name = btm;
position = "{244, 0}";
},
{
name = top;
position = "{247, 725}";
}
);
layerId = "12ECCE5E-04E9-4725-8BD5-31F21F15BB81";
paths = (
{
closed = 1;
nodes = (
"141 0 LINE",
"245 162 LINE",
"354 0 LINE",
"478 0 LINE",
"302 244 LINE",
"464 459 LINE",
"333 459 LINE",
"244 317 LINE",
"150 459 LINE",
"22 459 LINE",
"183 238 LINE",
"11 0 LINE"
);
}
);
width = 490;
}
);
leftKerningGroup = x;
rightKerningGroup = x;
unicode = 0078;
userData = {
com.typemytype.robofont.mark = (
0.656,
1,
0.6,
1
);
};
},
{
glyphname = y;
lastChange = "2018-06-22 22:17:12 +0000";
layers = (
{
anchors = (
{
name = btm;
position = "{399, 0}";
},
{
name = top;
position = "{250, 725}";
}
);
layerId = "12ECCE5E-04E9-4725-8BD5-31F21F15BB81";
paths = (
{
closed = 1;
nodes = (
"216 -252 LINE",
"498 459 LINE",
"380 459 LINE",
"277 167 LINE",
"255 96 LINE",
"233 167 LINE",
"135 459 LINE",
"13 459 LINE",
"203 -14 LINE",
"104 -252 LINE"
);
}
);
width = 497;
}
);
leftKerningGroup = y;
rightKerningGroup = y;
unicode = 0079;
userData = {
com.typemytype.robofont.mark = (
0.656,
1,
0.6,
1
);
};
},
{
glyphname = z;
lastChange = "2018-06-22 18:32:31 +0000";
layers = (
{
anchors = (
{
name = btm;
position = "{231, 0}";
},
{
name = top;
position = "{241, 725}";
}
);
layerId = "12ECCE5E-04E9-4725-8BD5-31F21F15BB81";
paths = (
{
closed = 1;
nodes = (
"413 0 LINE",
"413 89 LINE",
"297 87 LINE",
"189 83 LINE",
"214 121 LINE",
"421 459 LINE",
"64 459 LINE",
"64 370 LINE",
"143 370 LINE",
"254 373 LINE",
"229 337 LINE",
"20 0 LINE"
);
}
);
width = 452;
}
);
leftKerningGroup = z;
rightKerningGroup = z;
unicode = 007A;
userData = {
com.typemytype.robofont.mark = (
0.656,
1,
0.6,
1
);
};
},
{
glyphname = ordfeminine;
lastChange = "2018-06-22 21:17:43 +0000";
layers = (
{
layerId = "12ECCE5E-04E9-4725-8BD5-31F21F15BB81";
paths = (
{
closed = 1;
nodes = (
"289 434 OFFCURVE",
"335 450 OFFCURVE",
"348 486 CURVE",
"353 486 LINE",
"353 439 LINE",
"454 439 LINE",
"454 807 LINE",
"353 807 LINE",
"353 750 LINE",
"348 750 LINE",
"340 787 OFFCURVE",
"289 815 OFFCURVE",
"241 815 CURVE SMOOTH",
"138 815 OFFCURVE",
"83 738 OFFCURVE",
"83 620 CURVE SMOOTH",
"83 512 OFFCURVE",
"145 434 OFFCURVE",
"242 434 CURVE SMOOTH"
);
},
{
closed = 1;
nodes = (
"214 515 OFFCURVE",
"178 559 OFFCURVE",
"178 619 CURVE SMOOTH",
"178 689 OFFCURVE",
"212 731 OFFCURVE",
"263 731 CURVE SMOOTH",
"324 731 OFFCURVE",
"354 659 OFFCURVE",
"354 620 CURVE",
"354 577 OFFCURVE",
"324 515 OFFCURVE",
"263 515 CURVE SMOOTH"
);
}
);
width = 562;
}
);
leftKerningGroup = ordfeminine;
rightKerningGroup = ordfeminine;
unicode = 00AA;
userData = {
com.typemytype.robofont.mark = (
0.656,
1,
0.6,
1
);
};
},
{
glyphname = ordmasculine;
lastChange = "2018-06-22 21:17:39 +0000";
layers = (
{
layerId = "12ECCE5E-04E9-4725-8BD5-31F21F15BB81";
paths = (
{
closed = 1;
nodes = (
"375 433 OFFCURVE",
"459 500 OFFCURVE",
"459 623 CURVE SMOOTH",
"459 744 OFFCURVE",
"377 816 OFFCURVE",
"272 816 CURVE SMOOTH",
"169 816 OFFCURVE",
"85 744 OFFCURVE",
"85 623 CURVE SMOOTH",
"85 500 OFFCURVE",
"170 433 OFFCURVE",
"272 433 CURVE SMOOTH"
);
},
{
closed = 1;
nodes = (
"223 516 OFFCURVE",
"184 553 OFFCURVE",
"184 623 CURVE SMOOTH",
"184 692 OFFCURVE",
"223 731 OFFCURVE",
"271 731 CURVE SMOOTH",
"322 731 OFFCURVE",
"360 690 OFFCURVE",
"360 623 CURVE SMOOTH",
"360 554 OFFCURVE",
"322 516 OFFCURVE",
"271 516 CURVE SMOOTH"
);
}
);
width = 543;
}
);
leftKerningGroup = ordmasculine;
rightKerningGroup = ordmasculine;
unicode = 00BA;
userData = {
com.typemytype.robofont.mark = (
0.656,
1,
0.6,
1
);
};
},
{
glyphname = Delta;
lastChange = "2018-06-22 18:32:31 +0000";
layers = (
{
layerId = "12ECCE5E-04E9-4725-8BD5-31F21F15BB81";
paths = (
{
closed = 1;
nodes = (
"761 0 LINE",
"416 758 LINE",
"69 0 LINE"
);
},
{
closed = 1;
nodes = (
"416 528 LINE",
"602 96 LINE",
"228 96 LINE"
);
}
);
width = 830;
}
);
leftKerningGroup = Delta;
rightKerningGroup = Delta;
unicode = "0394,03B4";
userData = {
com.typemytype.robofont.guides = (
{
angle = 0;
isGlobal = 0;
magnetic = 5;
x = 0;
y = 52;
}
);
};
},
{
glyphname = Omega;
lastChange = "2018-06-22 18:32:31 +0000";
layers = (
{
layerId = "12ECCE5E-04E9-4725-8BD5-31F21F15BB81";
paths = (
{
closed = 1;
nodes = (
"402 0 LINE",
"402 79 LINE",
"272 180 OFFCURVE",
"246 290 OFFCURVE",
"246 394 CURVE SMOOTH",
"246 541 OFFCURVE",
"310 641 OFFCURVE",
"461 641 CURVE SMOOTH",
"613 641 OFFCURVE",
"678 541 OFFCURVE",
"678 394 CURVE SMOOTH",
"678 290 OFFCURVE",
"651 180 OFFCURVE",
"521 79 CURVE",
"521 0 LINE",
"817 0 LINE",
"817 99 LINE",
"678 99 LINE",
"750 164 OFFCURVE",
"804 264 OFFCURVE",
"804 394 CURVE SMOOTH",
"804 630 OFFCURVE",
"637 747 OFFCURVE",
"461 747 CURVE SMOOTH",
"287 747 OFFCURVE",
"119 630 OFFCURVE",
"119 394 CURVE SMOOTH",
"119 264 OFFCURVE",
"174 164 OFFCURVE",
"246 99 CURVE",
"106 99 LINE",
"106 0 LINE"
);
}
);
width = 923;
}
);
leftKerningGroup = Omega;
rightKerningGroup = Omega;
unicode = "03A9,03C9";
},
{
glyphname = mu;
lastChange = "2018-06-22 18:32:31 +0000";
layers = (
{
layerId = "12ECCE5E-04E9-4725-8BD5-31F21F15BB81";
paths = (
{
closed = 1;
nodes = (
"217 -173 LINE",
"217 9 LINE",
"238 -7 OFFCURVE",
"266 -15 OFFCURVE",
"294 -15 CURVE SMOOTH",
"352 -15 OFFCURVE",
"399 17 OFFCURVE",
"429 56 CURVE",
"429 -7 LINE",
"541 -7 LINE",
"541 463 LINE",
"429 463 LINE",
"429 228 LINE SMOOTH",
"429 123 OFFCURVE",
"389 81 OFFCURVE",
"313 81 CURVE SMOOTH",
"233 81 OFFCURVE",
"219 129 OFFCURVE",
"217 216 CURVE SMOOTH",
"213 463 LINE",
"103 463 LINE",
"106 -173 LINE"
);
}
);
width = 646;
}
);
leftKerningGroup = p;
rightKerningGroup = u;
unicode = 03BC;
},
{
glyphname = pi;
lastChange = "2018-06-22 18:32:31 +0000";
layers = (
{
layerId = "12ECCE5E-04E9-4725-8BD5-31F21F15BB81";
paths = (
{
closed = 1;
nodes = (
"253 0 LINE",
"276 37 OFFCURVE",
"296 140 OFFCURVE",
"296 459 CURVE",
"439 459 LINE",
"439 140 OFFCURVE",
"453 37 OFFCURVE",
"460 0 CURVE",
"572 0 LINE",
"561 37 OFFCURVE",
"551 151 OFFCURVE",
"551 459 CURVE",
"643 459 LINE",
"643 552 LINE",
"208 552 LINE SMOOTH",
"171 552 OFFCURVE",
"109 545 OFFCURVE",
"92 541 CURVE",
"92 449 LINE",
"108 452 OFFCURVE",
"140 458 OFFCURVE",
"185 459 CURVE",
"185 162 OFFCURVE",
"166 37 OFFCURVE",
"142 0 CURVE"
);
}
);
width = 737;
}
);
leftKerningGroup = pi;
rightKerningGroup = pi;
unicode = 03C0;
userData = {
com.typemytype.robofont.mark = (
0.6,
0.986,
1,
1
);
};
},
{
glyphname = zero;
lastChange = "2018-06-22 18:32:31 +0000";
layers = (
{
layerId = "12ECCE5E-04E9-4725-8BD5-31F21F15BB81";
paths = (
{
closed = 1;
nodes = (
"517 -9 OFFCURVE",
"591 157 OFFCURVE",
"591 370 CURVE SMOOTH",
"591 589 OFFCURVE",
"523 747 OFFCURVE",
"324 747 CURVE SMOOTH",
"124 747 OFFCURVE",
"56 583 OFFCURVE",
"56 370 CURVE SMOOTH",
"56 163 OFFCURVE",
"129 -9 OFFCURVE",
"324 -9 CURVE SMOOTH"
);
},
{
closed = 1;
nodes = (
"203 93 OFFCURVE",
"178 236 OFFCURVE",
"178 370 CURVE SMOOTH",
"178 516 OFFCURVE",
"203 646 OFFCURVE",
"324 646 CURVE SMOOTH",
"445 646 OFFCURVE",
"469 516 OFFCURVE",
"469 370 CURVE SMOOTH",
"469 235 OFFCURVE",
"445 93 OFFCURVE",
"324 93 CURVE SMOOTH"
);
}
);
width = 647;
}
);
leftKerningGroup = zero;
rightKerningGroup = zero;
unicode = 0030;
userData = {
com.typemytype.robofont.mark = (
0.656,
1,
0.6,
1
);
};
},
{
glyphname = one;
lastChange = "2018-06-22 18:32:31 +0000";
layers = (
{
layerId = "12ECCE5E-04E9-4725-8BD5-31F21F15BB81";
paths = (
{
closed = 1;
nodes = (
"242 0 LINE",
"242 756 LINE",
"129 724 LINE",
"129 0 LINE"
);
}
);
width = 370;
}
);
leftKerningGroup = one;
rightKerningGroup = one;
unicode = 0031;
userData = {
com.typemytype.robofont.mark = (
0.656,
1,
0.6,
1
);
};
},
{
glyphname = two;
lastChange = "2018-06-22 18:32:31 +0000";
layers = (
{
layerId = "12ECCE5E-04E9-4725-8BD5-31F21F15BB81";
paths = (
{
closed = 1;
nodes = (
"571 0 LINE",
"571 99 LINE",
"286 99 LINE",
"422 271 LINE",
"498 364 OFFCURVE",
"542 453 OFFCURVE",
"542 539 CURVE SMOOTH",
"542 670 OFFCURVE",
"454 747 OFFCURVE",
"313 747 CURVE SMOOTH",
"173 747 OFFCURVE",
"95 641 OFFCURVE",
"75 588 CURVE",
"168 538 LINE",
"188 577 OFFCURVE",
"227 643 OFFCURVE",
"307 643 CURVE SMOOTH",
"393 643 OFFCURVE",
"428 598 OFFCURVE",
"428 526 CURVE SMOOTH",
"428 455 OFFCURVE",
"357 361 OFFCURVE",
"318 309 CURVE",
"71 0 LINE"
);
}
);
width = 646;
}
);
leftKerningGroup = two;
rightKerningGroup = two;
unicode = 0032;
userData = {
com.typemytype.robofont.mark = (
0.656,
1,
0.6,
1
);
};
},
{
color = 8;
glyphname = three;
lastChange = "2018-06-22 22:17:12 +0000";
layers = (
{
layerId = "12ECCE5E-04E9-4725-8BD5-31F21F15BB81";
paths = (
{
closed = 1;
nodes = (
"461 -10 OFFCURVE",
"565 95 OFFCURVE",
"565 234 CURVE SMOOTH",
"565 344 OFFCURVE",
"483 433 OFFCURVE",
"353 438 CURVE",
"561 735 LINE",
"86 735 LINE",
"86 637 LINE",
"362 637 LINE",
"178 351 LINE",
"203 355 OFFCURVE",
"239 357 OFFCURVE",
"271 357 CURVE SMOOTH",
"376 357 OFFCURVE",
"443 305 OFFCURVE",
"443 226 CURVE SMOOTH",
"443 117 OFFCURVE",
"360 90 OFFCURVE",
"271 90 CURVE SMOOTH",
"202 90 OFFCURVE",
"134 121 OFFCURVE",
"102 146 CURVE",
"55 51 LINE",
"111 8 OFFCURVE",
"200 -10 OFFCURVE",
"277 -10 CURVE SMOOTH"
);
}
);
width = 637;
}
);
leftKerningGroup = three;
rightKerningGroup = three;
unicode = 0033;
userData = {
com.typemytype.robofont.mark = (
0.656,
1,
0.6,
1
);
};
},
{
color = 8;
glyphname = four;
lastChange = "2018-06-22 22:17:12 +0000";
layers = (
{
layerId = "12ECCE5E-04E9-4725-8BD5-31F21F15BB81";
paths = (
{
closed = 1;
nodes = (
"498 0 LINE",
"498 184 LINE",
"600 184 LINE",
"600 289 LINE",
"498 289 LINE",
"498 456 LINE",
"387 456 LINE",
"381 289 LINE",
"201 289 LINE",
"352 735 LINE",
"248 774 LINE",
"45 184 LINE",
"381 184 LINE",
"381 0 LINE"
);
}
);
width = 654;
}
);
leftKerningGroup = four;
rightKerningGroup = four;
unicode = 0034;
userData = {
com.typemytype.robofont.mark = (
0.656,
1,
0.6,
1
);
};
},
{
glyphname = five;
lastChange = "2018-06-22 22:17:12 +0000";
layers = (
{
layerId = "12ECCE5E-04E9-4725-8BD5-31F21F15BB81";
paths = (
{
closed = 1;
nodes = (
"475 -10 OFFCURVE",
"567 98 OFFCURVE",
"567 244 CURVE SMOOTH",
"567 385 OFFCURVE",
"472 471 OFFCURVE",
"318 471 CURVE SMOOTH",
"279 471 OFFCURVE",
"252 468 OFFCURVE",
"234 463 CURVE",
"244 637 LINE",
"512 637 LINE",
"512 735 LINE",
"135 735 LINE",
"120 349 LINE",
"147 364 OFFCURVE",
"224 376 OFFCURVE",
"283 376 CURVE SMOOTH",
"409 376 OFFCURVE",
"450 307 OFFCURVE",
"450 233 CURVE SMOOTH",
"450 145 OFFCURVE",
"384 92 OFFCURVE",
"295 92 CURVE SMOOTH",
"214 92 OFFCURVE",
"152 132 OFFCURVE",
"134 146 CURVE",
"83 50 LINE",
"119 15 OFFCURVE",
"210 -10 OFFCURVE",
"298 -10 CURVE SMOOTH"
);
}
);
width = 646;
}
);
leftKerningGroup = five;
rightKerningGroup = five;
unicode = 0035;
userData = {
com.typemytype.robofont.mark = (
0.656,
1,
0.6,
1
);
};
},
{
glyphname = six;
lastChange = "2018-06-22 22:17:12 +0000";
layers = (
{
layerId = "12ECCE5E-04E9-4725-8BD5-31F21F15BB81";
paths = (
{
closed = 1;
nodes = (
"470 -10 OFFCURVE",
"578 81 OFFCURVE",
"578 229 CURVE SMOOTH",
"578 361 OFFCURVE",
"492 465 OFFCURVE",
"355 465 CURVE SMOOTH",
"305 465 OFFCURVE",
"270 450 OFFCURVE",
"250 432 CURVE",
"262 446 OFFCURVE",
"278 491 OFFCURVE",
"423 717 CURVE",
"327 773 LINE",
"86 369 OFFCURVE",
"74 318 OFFCURVE",
"74 234 CURVE SMOOTH",
"74 82 OFFCURVE",
"184 -10 OFFCURVE",
"320 -10 CURVE SMOOTH"
);
},
{
closed = 1;
nodes = (
"248 86 OFFCURVE",
"189 146 OFFCURVE",
"189 231 CURVE SMOOTH",
"189 318 OFFCURVE",
"251 369 OFFCURVE",
"330 369 CURVE SMOOTH",
"405 369 OFFCURVE",
"463 321 OFFCURVE",
"463 229 CURVE SMOOTH",
"463 147 OFFCURVE",
"412 86 OFFCURVE",
"327 86 CURVE SMOOTH"
);
}
);
width = 646;
}
);
leftKerningGroup = six;
rightKerningGroup = six;
unicode = 0036;
userData = {
com.typemytype.robofont.mark = (
0.656,
1,
0.6,
1
);
};
},
{
glyphname = seven;
lastChange = "2018-06-22 18:32:31 +0000";
layers = (
{
layerId = "12ECCE5E-04E9-4725-8BD5-31F21F15BB81";
paths = (
{
closed = 1;
nodes = (
"245 0 LINE",
"503 735 LINE",
"20 735 LINE",
"20 637 LINE",
"362 637 LINE",
"117 0 LINE"
);
}
);
width = 533;
}
);
leftKerningGroup = seven;
rightKerningGroup = seven;
unicode = 0037;
userData = {
com.typemytype.robofont.mark = (
0.656,
1,
0.6,
1
);
};
},
{
color = 8;
glyphname = eight;
lastChange = "2018-06-22 22:17:12 +0000";
layers = (
{
layerId = "12ECCE5E-04E9-4725-8BD5-31F21F15BB81";
paths = (
{
closed = 1;
nodes = (
"460 -10 OFFCURVE",
"576 77 OFFCURVE",
"576 214 CURVE SMOOTH",
"576 310 OFFCURVE",
"515 363 OFFCURVE",
"453 389 CURVE",
"503 416 OFFCURVE",
"545 465 OFFCURVE",
"545 540 CURVE SMOOTH",
"545 659 OFFCURVE",
"449 735 OFFCURVE",
"322 735 CURVE SMOOTH",
"196 735 OFFCURVE",
"99 661 OFFCURVE",
"99 540 CURVE SMOOTH",
"99 471 OFFCURVE",
"138 418 OFFCURVE",
"187 390 CURVE",
"126 365 OFFCURVE",
"68 311 OFFCURVE",
"68 214 CURVE SMOOTH",
"68 77 OFFCURVE",
"183 -10 OFFCURVE",
"322 -10 CURVE SMOOTH"
);
},
{
closed = 1;
nodes = (
"235 86 OFFCURVE",
"181 141 OFFCURVE",
"181 214 CURVE SMOOTH",
"181 290 OFFCURVE",
"242 341 OFFCURVE",
"322 341 CURVE SMOOTH",
"402 341 OFFCURVE",
"462 288 OFFCURVE",
"462 214 CURVE SMOOTH",
"462 141 OFFCURVE",
"408 86 OFFCURVE",
"322 86 CURVE SMOOTH"
);
},
{
closed = 1;
nodes = (
"257 436 OFFCURVE",
"212 483 OFFCURVE",
"212 543 CURVE SMOOTH",
"212 604 OFFCURVE",
"255 647 OFFCURVE",
"322 647 CURVE SMOOTH",
"387 647 OFFCURVE",
"431 604 OFFCURVE",
"431 543 CURVE SMOOTH",
"431 483 OFFCURVE",
"381 436 OFFCURVE",
"322 436 CURVE SMOOTH"
);
}
);
width = 646;
}
);
leftKerningGroup = eight;
rightKerningGroup = eight;
unicode = 0038;
userData = {
com.typemytype.robofont.guides = (
{
angle = 90;
isGlobal = 0;
magnetic = 5;
x = 215;
y = 0;
},
{
angle = 90;
isGlobal = 0;
magnetic = 5;
x = 101;
y = 0;
},
{
angle = 90;
isGlobal = 0;
magnetic = 5;
x = 322;
y = 0;
}
);
com.typemytype.robofont.mark = (
0.656,
1,
0.6,
1
);
};
},
{
glyphname = nine;
lastChange = "2018-06-22 18:32:31 +0000";
layers = (
{
layerId = "12ECCE5E-04E9-4725-8BD5-31F21F15BB81";
paths = (
{
closed = 1;
nodes = (
"355 0 LINE",
"567 366 OFFCURVE",
"579 418 OFFCURVE",
"579 502 CURVE SMOOTH",
"579 655 OFFCURVE",
"470 747 OFFCURVE",
"334 747 CURVE SMOOTH",
"176 747 OFFCURVE",
"71 650 OFFCURVE",
"71 507 CURVE SMOOTH",
"71 375 OFFCURVE",
"162 271 OFFCURVE",
"297 271 CURVE SMOOTH",
"354 271 OFFCURVE",
"385 287 OFFCURVE",
"404 304 CURVE",
"392 290 OFFCURVE",
"369 250 OFFCURVE",
"354 225 CURVE",
"225 0 LINE"
);
},
{
closed = 1;
nodes = (
"251 367 OFFCURVE",
"186 415 OFFCURVE",
"186 506 CURVE SMOOTH",
"186 588 OFFCURVE",
"240 650 OFFCURVE",
"327 650 CURVE SMOOTH",
"406 650 OFFCURVE",
"464 590 OFFCURVE",
"464 505 CURVE SMOOTH",
"464 417 OFFCURVE",
"403 367 OFFCURVE",
"324 367 CURVE SMOOTH"
);
}
);
width = 646;
}
);
leftKerningGroup = nine;
rightKerningGroup = nine;
unicode = 0039;
userData = {
com.typemytype.robofont.mark = (
0.656,
1,
0.6,
1
);
};
},
{
glyphname = zero.lt;
lastChange = "2018-06-22 18:32:31 +0000";
layers = (
{
layerId = "12ECCE5E-04E9-4725-8BD5-31F21F15BB81";
paths = (
{
closed = 1;
nodes = (
"502 -9 OFFCURVE",
"575 157 OFFCURVE",
"575 370 CURVE SMOOTH",
"575 589 OFFCURVE",
"507 747 OFFCURVE",
"308 747 CURVE SMOOTH",
"108 747 OFFCURVE",
"42 583 OFFCURVE",
"42 370 CURVE SMOOTH",
"42 163 OFFCURVE",
"114 -9 OFFCURVE",
"308 -9 CURVE SMOOTH"
);
},
{
closed = 1;
nodes = (
"187 93 OFFCURVE",
"163 236 OFFCURVE",
"163 370 CURVE SMOOTH",
"163 516 OFFCURVE",
"187 646 OFFCURVE",
"308 646 CURVE SMOOTH",
"430 646 OFFCURVE",
"453 516 OFFCURVE",
"453 370 CURVE SMOOTH",
"453 235 OFFCURVE",
"430 93 OFFCURVE",
"308 93 CURVE SMOOTH"
);
}
);
width = 617;
}
);
},
{
glyphname = one.lt;
lastChange = "2018-06-22 18:32:31 +0000";
layers = (
{
layerId = "12ECCE5E-04E9-4725-8BD5-31F21F15BB81";
paths = (
{
closed = 1;
nodes = (
"388 21 LINE",
"388 744 LINE",
"275 712 LINE",
"275 21 LINE"
);
},
{
closed = 1;
nodes = (
"527 0 LINE",
"527 89 LINE",
"115 89 LINE",
"115 0 LINE"
);
},
{
closed = 1;
nodes = (
"378 648 LINE",
"388 744 LINE",
"108 680 LINE",
"128 576 LINE"
);
}
);
width = 617;
}
);
widthMetricsKey = zero.lt;
},
{
glyphname = two.lt;
lastChange = "2018-06-22 18:32:31 +0000";
layers = (
{
layerId = "12ECCE5E-04E9-4725-8BD5-31F21F15BB81";
paths = (
{
closed = 1;
nodes = (
"551 0 LINE",
"551 99 LINE",
"266 99 LINE",
"402 271 LINE",
"478 364 OFFCURVE",
"522 453 OFFCURVE",
"522 539 CURVE SMOOTH",
"522 670 OFFCURVE",
"434 747 OFFCURVE",
"293 747 CURVE SMOOTH",
"153 747 OFFCURVE",
"75 641 OFFCURVE",
"55 588 CURVE",
"148 538 LINE",
"168 577 OFFCURVE",
"207 643 OFFCURVE",
"287 643 CURVE SMOOTH",
"373 643 OFFCURVE",
"408 598 OFFCURVE",
"408 526 CURVE SMOOTH",
"408 455 OFFCURVE",
"337 361 OFFCURVE",
"298 309 CURVE",
"51 0 LINE"
);
}
);
width = 617;
}
);
widthMetricsKey = zero.lt;
},
{
glyphname = three.lt;
lastChange = "2018-06-22 22:17:12 +0000";
layers = (
{
layerId = "12ECCE5E-04E9-4725-8BD5-31F21F15BB81";
paths = (
{
closed = 1;
nodes = (
"466 -10 OFFCURVE",
"570 95 OFFCURVE",
"570 234 CURVE SMOOTH",
"570 344 OFFCURVE",
"488 433 OFFCURVE",
"358 438 CURVE",
"566 735 LINE",
"94 735 LINE",
"94 637 LINE",
"367 637 LINE",
"183 351 LINE",
"208 355 OFFCURVE",
"243 357 OFFCURVE",
"276 357 CURVE SMOOTH",
"381 357 OFFCURVE",
"446 305 OFFCURVE",
"446 226 CURVE SMOOTH",
"446 117 OFFCURVE",
"366 90 OFFCURVE",
"276 90 CURVE SMOOTH",
"207 90 OFFCURVE",
"138 121 OFFCURVE",
"107 146 CURVE",
"60 51 LINE",
"116 8 OFFCURVE",
"205 -10 OFFCURVE",
"282 -10 CURVE SMOOTH"
);
}
);
width = 617;
}
);
widthMetricsKey = zero.lt;
},
{
color = 8;
glyphname = four.lt;
lastChange = "2018-06-22 22:17:12 +0000";
layers = (
{
layerId = "12ECCE5E-04E9-4725-8BD5-31F21F15BB81";
paths = (
{
closed = 1;
nodes = (
"484 0 LINE",
"484 184 LINE",
"586 184 LINE",
"586 289 LINE",
"484 289 LINE",
"484 456 LINE",
"373 456 LINE",
"367 289 LINE",
"188 289 LINE",
"338 735 LINE",
"235 774 LINE",
"31 184 LINE",
"367 184 LINE",
"367 0 LINE"
);
}
);
width = 617;
}
);
widthMetricsKey = zero.lt;
},
{
glyphname = five.lt;
lastChange = "2018-06-22 22:17:12 +0000";
layers = (
{
layerId = "12ECCE5E-04E9-4725-8BD5-31F21F15BB81";
paths = (
{
closed = 1;
nodes = (
"463 -10 OFFCURVE",
"555 98 OFFCURVE",
"555 244 CURVE SMOOTH",
"555 385 OFFCURVE",
"459 471 OFFCURVE",
"306 471 CURVE SMOOTH",
"266 471 OFFCURVE",
"240 468 OFFCURVE",
"222 463 CURVE",
"231 637 LINE",
"500 637 LINE",
"500 735 LINE",
"123 735 LINE",
"108 349 LINE",
"135 364 OFFCURVE",
"211 376 OFFCURVE",
"271 376 CURVE SMOOTH",
"396 376 OFFCURVE",
"438 307 OFFCURVE",
"438 233 CURVE SMOOTH",
"438 145 OFFCURVE",
"372 92 OFFCURVE",
"282 92 CURVE SMOOTH",
"202 92 OFFCURVE",
"140 132 OFFCURVE",
"122 146 CURVE",
"71 50 LINE",
"107 15 OFFCURVE",
"198 -10 OFFCURVE",
"285 -10 CURVE SMOOTH"
);
}
);
width = 617;
}
);
widthMetricsKey = zero.lt;
},
{
glyphname = six.lt;
lastChange = "2018-06-22 22:17:12 +0000";
layers = (
{
layerId = "12ECCE5E-04E9-4725-8BD5-31F21F15BB81";
paths = (
{
closed = 1;
nodes = (
"454 -10 OFFCURVE",
"563 81 OFFCURVE",
"563 229 CURVE SMOOTH",
"563 361 OFFCURVE",
"477 465 OFFCURVE",
"340 465 CURVE SMOOTH",
"289 465 OFFCURVE",
"255 450 OFFCURVE",
"235 432 CURVE",
"247 446 OFFCURVE",
"263 491 OFFCURVE",
"408 717 CURVE",
"311 773 LINE",
"71 369 OFFCURVE",
"59 318 OFFCURVE",
"59 234 CURVE SMOOTH",
"59 82 OFFCURVE",
"168 -10 OFFCURVE",
"304 -10 CURVE SMOOTH"
);
},
{
closed = 1;
nodes = (
"233 86 OFFCURVE",
"174 146 OFFCURVE",
"174 231 CURVE SMOOTH",
"174 318 OFFCURVE",
"236 369 OFFCURVE",
"315 369 CURVE SMOOTH",
"390 369 OFFCURVE",
"448 321 OFFCURVE",
"448 229 CURVE SMOOTH",
"448 147 OFFCURVE",
"396 86 OFFCURVE",
"311 86 CURVE SMOOTH"
);
}
);
width = 617;
}
);
widthMetricsKey = zero.lt;
},
{
glyphname = seven.lt;
lastChange = "2018-06-22 18:32:31 +0000";
layers = (
{
layerId = "12ECCE5E-04E9-4725-8BD5-31F21F15BB81";
paths = (
{
closed = 1;
nodes = (
"306 0 LINE",
"564 735 LINE",
"81 735 LINE",
"81 637 LINE",
"423 637 LINE",
"179 0 LINE"
);
}
);
width = 617;
}
);
widthMetricsKey = zero.lt;
},
{
color = 8;
glyphname = eight.lt;
lastChange = "2018-06-22 22:17:12 +0000";
layers = (
{
layerId = "12ECCE5E-04E9-4725-8BD5-31F21F15BB81";
paths = (
{
closed = 1;
nodes = (
"447 -10 OFFCURVE",
"562 77 OFFCURVE",
"562 214 CURVE SMOOTH",
"562 310 OFFCURVE",
"501 363 OFFCURVE",
"439 389 CURVE",
"489 416 OFFCURVE",
"532 465 OFFCURVE",
"532 540 CURVE SMOOTH",
"532 659 OFFCURVE",
"436 735 OFFCURVE",
"309 735 CURVE SMOOTH",
"183 735 OFFCURVE",
"86 661 OFFCURVE",
"86 540 CURVE SMOOTH",
"86 471 OFFCURVE",
"126 418 OFFCURVE",
"175 390 CURVE",
"114 365 OFFCURVE",
"55 311 OFFCURVE",
"55 214 CURVE SMOOTH",
"55 77 OFFCURVE",
"170 -10 OFFCURVE",
"309 -10 CURVE SMOOTH"
);
},
{
closed = 1;
nodes = (
"222 86 OFFCURVE",
"168 140 OFFCURVE",
"168 213 CURVE SMOOTH",
"168 289 OFFCURVE",
"229 342 OFFCURVE",
"309 342 CURVE SMOOTH",
"389 342 OFFCURVE",
"448 287 OFFCURVE",
"448 213 CURVE SMOOTH",
"448 140 OFFCURVE",
"395 86 OFFCURVE",
"309 86 CURVE SMOOTH"
);
},
{
closed = 1;
nodes = (
"244 436 OFFCURVE",
"199 484 OFFCURVE",
"199 544 CURVE SMOOTH",
"199 605 OFFCURVE",
"242 647 OFFCURVE",
"309 647 CURVE SMOOTH",
"374 647 OFFCURVE",
"418 605 OFFCURVE",
"418 544 CURVE SMOOTH",
"418 484 OFFCURVE",
"368 436 OFFCURVE",
"309 436 CURVE SMOOTH"
);
}
);
width = 617;
}
);
widthMetricsKey = zero.lt;
userData = {
com.typemytype.robofont.guides = (
{
angle = 90;
isGlobal = 0;
magnetic = 5;
x = 216;
y = 0;
},
{
angle = 90;
isGlobal = 0;
magnetic = 5;
x = 102;
y = 0;
},
{
angle = 90;
isGlobal = 0;
magnetic = 5;
x = 323;
y = 0;
}
);
};
},
{
glyphname = nine.lt;
lastChange = "2018-06-22 18:32:31 +0000";
layers = (
{
layerId = "12ECCE5E-04E9-4725-8BD5-31F21F15BB81";
paths = (
{
closed = 1;
nodes = (
"338 0 LINE",
"549 366 OFFCURVE",
"561 418 OFFCURVE",
"561 502 CURVE SMOOTH",
"561 655 OFFCURVE",
"452 747 OFFCURVE",
"316 747 CURVE SMOOTH",
"158 747 OFFCURVE",
"53 650 OFFCURVE",
"53 507 CURVE SMOOTH",
"53 375 OFFCURVE",
"144 271 OFFCURVE",
"279 271 CURVE SMOOTH",
"336 271 OFFCURVE",
"367 287 OFFCURVE",
"386 304 CURVE",
"374 290 OFFCURVE",
"351 250 OFFCURVE",
"336 225 CURVE",
"207 0 LINE"
);
},
{
closed = 1;
nodes = (
"234 367 OFFCURVE",
"168 415 OFFCURVE",
"168 506 CURVE SMOOTH",
"168 588 OFFCURVE",
"222 650 OFFCURVE",
"309 650 CURVE SMOOTH",
"388 650 OFFCURVE",
"446 590 OFFCURVE",
"446 505 CURVE SMOOTH",
"446 417 OFFCURVE",
"385 367 OFFCURVE",
"306 367 CURVE SMOOTH"
);
}
);
width = 617;
}
);
widthMetricsKey = zero.lt;
},
{
glyphname = zero.lt.zero;
lastChange = "2018-06-22 18:32:31 +0000";
layers = (
{
components = (
{
name = zero.lt;
}
);
layerId = "12ECCE5E-04E9-4725-8BD5-31F21F15BB81";
paths = (
{
closed = 1;
nodes = (
"245 91 LINE",
"452 673 LINE",
"373 673 LINE",
"166 91 LINE"
);
}
);
width = 617;
}
);
leftKerningGroup = zero.lt.zero;
widthMetricsKey = zero.lt;
rightKerningGroup = zero.lt.zero;
},
{
glyphname = zero.osf;
lastChange = "2018-06-22 18:32:31 +0000";
layers = (
{
background = {
paths = (
{
closed = 0;
nodes = (
"544 341 LINE SMOOTH",
"544 483 OFFCURVE",
"483 584 OFFCURVE",
"301 584 CURVE SMOOTH",
"119 584 OFFCURVE",
"58 478 OFFCURVE",
"58 341 CURVE SMOOTH"
);
},
{
closed = 0;
nodes = (
"180 341 LINE SMOOTH",
"180 423 OFFCURVE",
"200 483 OFFCURVE",
"301 483 CURVE SMOOTH",
"403 483 OFFCURVE",
"422 423 OFFCURVE",
"422 341 CURVE SMOOTH"
);
}
);
};
layerId = "12ECCE5E-04E9-4725-8BD5-31F21F15BB81";
paths = (
{
closed = 1;
nodes = (
"478 -9 OFFCURVE",
"547 145 OFFCURVE",
"547 294 CURVE SMOOTH",
"547 446 OFFCURVE",
"483 584 OFFCURVE",
"301 584 CURVE SMOOTH",
"119 584 OFFCURVE",
"55 441 OFFCURVE",
"55 294 CURVE SMOOTH",
"55 145 OFFCURVE",
"124 -9 OFFCURVE",
"301 -9 CURVE SMOOTH"
);
},
{
closed = 1;
nodes = (
"200 93 OFFCURVE",
"177 213 OFFCURVE",
"177 294 CURVE SMOOTH",
"177 386 OFFCURVE",
"200 483 OFFCURVE",
"301 483 CURVE SMOOTH",
"403 483 OFFCURVE",
"425 386 OFFCURVE",
"425 294 CURVE SMOOTH",
"425 212 OFFCURVE",
"403 93 OFFCURVE",
"301 93 CURVE SMOOTH"
);
}
);
width = 602;
}
);
leftKerningGroup = zero.osf;
rightKerningGroup = zero.osf;
},
{
glyphname = one.osf;
lastChange = "2018-06-22 18:32:31 +0000";
layers = (
{
layerId = "12ECCE5E-04E9-4725-8BD5-31F21F15BB81";
paths = (
{
closed = 1;
nodes = (
"242 0 LINE",
"242 584 LINE",
"129 552 LINE",
"129 0 LINE"
);
}
);
width = 370;
}
);
leftKerningGroup = one.osf;
rightKerningGroup = one.osf;
},
{
glyphname = two.osf;
lastChange = "2018-06-22 18:32:31 +0000";
layers = (
{
layerId = "12ECCE5E-04E9-4725-8BD5-31F21F15BB81";
paths = (
{
closed = 1;
nodes = (
"510 0 LINE",
"510 99 LINE",
"299 99 LINE",
"382 166 OFFCURVE",
"487 267 OFFCURVE",
"487 375 CURVE SMOOTH",
"487 506 OFFCURVE",
"413 584 OFFCURVE",
"273 584 CURVE SMOOTH",
"133 584 OFFCURVE",
"77 492 OFFCURVE",
"57 439 CURVE",
"150 389 LINE",
"170 428 OFFCURVE",
"187 480 OFFCURVE",
"267 480 CURVE SMOOTH",
"353 480 OFFCURVE",
"373 424 OFFCURVE",
"373 382 CURVE SMOOTH",
"373 285 OFFCURVE",
"263 198 OFFCURVE",
"50 0 CURVE"
);
}
);
width = 560;
}
);
leftKerningGroup = two.osf;
rightKerningGroup = two.osf;
},
{
glyphname = three.osf;
lastChange = "2018-06-22 22:17:12 +0000";
layers = (
{
layerId = "12ECCE5E-04E9-4725-8BD5-31F21F15BB81";
paths = (
{
closed = 1;
nodes = (
"451 -152 OFFCURVE",
"547 -42 OFFCURVE",
"547 97 CURVE SMOOTH",
"547 207 OFFCURVE",
"471 291 OFFCURVE",
"341 297 CURVE",
"549 574 LINE",
"84 574 LINE",
"84 476 LINE",
"350 476 LINE",
"166 209 LINE",
"191 214 OFFCURVE",
"227 216 OFFCURVE",
"259 216 CURVE SMOOTH",
"364 216 OFFCURVE",
"423 168 OFFCURVE",
"423 89 CURVE SMOOTH",
"423 -20 OFFCURVE",
"360 -51 OFFCURVE",
"261 -51 CURVE SMOOTH",
"192 -51 OFFCURVE",
"129 -21 OFFCURVE",
"97 5 CURVE",
"50 -91 LINE",
"106 -133 OFFCURVE",
"190 -152 OFFCURVE",
"267 -152 CURVE SMOOTH"
);
}
);
width = 599;
}
);
leftKerningGroup = three.osf;
rightKerningGroup = three.osf;
},
{
color = 8;
glyphname = four.osf;
lastChange = "2018-06-22 22:17:12 +0000";
layers = (
{
layerId = "12ECCE5E-04E9-4725-8BD5-31F21F15BB81";
paths = (
{
closed = 1;
nodes = (
"470 -184 LINE",
"470 0 LINE",
"575 0 LINE",
"575 102 LINE",
"470 102 LINE",
"470 272 LINE",
"365 272 LINE",
"356 102 LINE",
"174 102 LINE",
"335 552 LINE",
"223 583 LINE",
"20 0 LINE",
"356 0 LINE",
"356 -184 LINE"
);
}
);
width = 623;
}
);
leftKerningGroup = four.osf;
rightKerningGroup = four.osf;
},
{
glyphname = five.osf;
lastChange = "2018-06-22 22:17:12 +0000";
layers = (
{
layerId = "12ECCE5E-04E9-4725-8BD5-31F21F15BB81";
paths = (
{
closed = 1;
nodes = (
"427 -140 OFFCURVE",
"513 -35 OFFCURVE",
"513 112 CURVE SMOOTH",
"513 256 OFFCURVE",
"416 330 OFFCURVE",
"285 330 CURVE SMOOTH",
"246 330 OFFCURVE",
"219 326 OFFCURVE",
"201 322 CURVE",
"211 476 LINE",
"479 476 LINE",
"479 574 LINE",
"102 574 LINE",
"87 207 LINE",
"114 223 OFFCURVE",
"201 235 OFFCURVE",
"250 235 CURVE SMOOTH",
"343 235 OFFCURVE",
"396 184 OFFCURVE",
"396 101 CURVE SMOOTH",
"396 -1 OFFCURVE",
"325 -38 OFFCURVE",
"248 -38 CURVE SMOOTH",
"167 -38 OFFCURVE",
"117 0 OFFCURVE",
"99 15 CURVE",
"50 -79 LINE",
"86 -114 OFFCURVE",
"174 -140 OFFCURVE",
"262 -140 CURVE SMOOTH"
);
}
);
width = 563;
}
);
leftKerningGroup = five.osf;
rightKerningGroup = five.osf;
},
{
glyphname = six.osf;
lastChange = "2018-06-22 22:17:12 +0000";
layers = (
{
layerId = "12ECCE5E-04E9-4725-8BD5-31F21F15BB81";
paths = (
{
closed = 1;
nodes = (
"451 -10 OFFCURVE",
"559 81 OFFCURVE",
"559 229 CURVE SMOOTH",
"559 361 OFFCURVE",
"473 465 OFFCURVE",
"336 465 CURVE SMOOTH",
"286 465 OFFCURVE",
"251 450 OFFCURVE",
"231 432 CURVE",
"243 446 OFFCURVE",
"259 491 OFFCURVE",
"404 717 CURVE",
"308 773 LINE",
"67 369 OFFCURVE",
"55 318 OFFCURVE",
"55 234 CURVE SMOOTH",
"55 82 OFFCURVE",
"165 -10 OFFCURVE",
"301 -10 CURVE SMOOTH"
);
},
{
closed = 1;
nodes = (
"229 86 OFFCURVE",
"170 146 OFFCURVE",
"170 231 CURVE SMOOTH",
"170 318 OFFCURVE",
"232 369 OFFCURVE",
"311 369 CURVE SMOOTH",
"386 369 OFFCURVE",
"444 321 OFFCURVE",
"444 229 CURVE SMOOTH",
"444 147 OFFCURVE",
"393 86 OFFCURVE",
"308 86 CURVE SMOOTH"
);
}
);
width = 614;
}
);
leftKerningGroup = six.osf;
rightKerningGroup = six.osf;
},
{
glyphname = seven.osf;
lastChange = "2018-06-22 18:58:23 +0000";
layers = (
{
layerId = "12ECCE5E-04E9-4725-8BD5-31F21F15BB81";
paths = (
{
closed = 1;
nodes = (
"265 -141 LINE",
"523 574 LINE",
"40 574 LINE",
"40 476 LINE",
"382 476 LINE",
"137 -141 LINE"
);
}
);
width = 553;
}
);
leftKerningGroup = seven.osf;
rightKerningGroup = seven.osf;
},
{
color = 8;
glyphname = eight.osf;
lastChange = "2018-06-22 22:17:12 +0000";
layers = (
{
layerId = "12ECCE5E-04E9-4725-8BD5-31F21F15BB81";
paths = (
{
closed = 1;
nodes = (
"447 -10 OFFCURVE",
"563 77 OFFCURVE",
"563 214 CURVE SMOOTH",
"563 310 OFFCURVE",
"501 363 OFFCURVE",
"439 389 CURVE",
"489 416 OFFCURVE",
"532 465 OFFCURVE",
"532 540 CURVE SMOOTH",
"532 659 OFFCURVE",
"436 735 OFFCURVE",
"309 735 CURVE SMOOTH",
"183 735 OFFCURVE",
"86 661 OFFCURVE",
"86 540 CURVE SMOOTH",
"86 471 OFFCURVE",
"126 418 OFFCURVE",
"175 390 CURVE",
"114 365 OFFCURVE",
"55 311 OFFCURVE",
"55 214 CURVE SMOOTH",
"55 77 OFFCURVE",
"170 -10 OFFCURVE",
"309 -10 CURVE SMOOTH"
);
},
{
closed = 1;
nodes = (
"222 86 OFFCURVE",
"168 141 OFFCURVE",
"168 214 CURVE SMOOTH",
"168 290 OFFCURVE",
"229 342 OFFCURVE",
"309 342 CURVE SMOOTH",
"389 342 OFFCURVE",
"449 288 OFFCURVE",
"449 214 CURVE SMOOTH",
"449 141 OFFCURVE",
"395 86 OFFCURVE",
"309 86 CURVE SMOOTH"
);
},
{
closed = 1;
nodes = (
"244 436 OFFCURVE",
"199 484 OFFCURVE",
"199 544 CURVE SMOOTH",
"199 605 OFFCURVE",
"242 647 OFFCURVE",
"309 647 CURVE SMOOTH",
"374 647 OFFCURVE",
"418 605 OFFCURVE",
"418 544 CURVE SMOOTH",
"418 484 OFFCURVE",
"368 436 OFFCURVE",
"309 436 CURVE SMOOTH"
);
}
);
width = 618;
}
);
leftKerningGroup = eight.osf;
rightKerningGroup = eight.osf;
userData = {
com.typemytype.robofont.guides = (
{
angle = 90;
isGlobal = 0;
magnetic = 5;
x = 215;
y = 0;
},
{
angle = 90;
isGlobal = 0;
magnetic = 5;
x = 101;
y = 0;
},
{
angle = 90;
isGlobal = 0;
magnetic = 5;
x = 322;
y = 0;
}
);
};
},
{
glyphname = nine.osf;
lastChange = "2018-06-22 18:32:31 +0000";
layers = (
{
layerId = "12ECCE5E-04E9-4725-8BD5-31F21F15BB81";
paths = (
{
closed = 1;
nodes = (
"339 -139 LINE",
"551 227 OFFCURVE",
"563 256 OFFCURVE",
"563 339 CURVE SMOOTH",
"563 492 OFFCURVE",
"454 584 OFFCURVE",
"318 584 CURVE SMOOTH",
"160 584 OFFCURVE",
"55 487 OFFCURVE",
"55 344 CURVE SMOOTH",
"55 212 OFFCURVE",
"146 108 OFFCURVE",
"281 108 CURVE SMOOTH",
"338 108 OFFCURVE",
"369 124 OFFCURVE",
"388 141 CURVE",
"376 127 OFFCURVE",
"353 87 OFFCURVE",
"338 62 CURVE",
"209 -139 LINE"
);
},
{
closed = 1;
nodes = (
"235 204 OFFCURVE",
"170 252 OFFCURVE",
"170 343 CURVE SMOOTH",
"170 425 OFFCURVE",
"224 487 OFFCURVE",
"311 487 CURVE SMOOTH",
"390 487 OFFCURVE",
"448 427 OFFCURVE",
"448 342 CURVE SMOOTH",
"448 255 OFFCURVE",
"387 204 OFFCURVE",
"308 204 CURVE SMOOTH"
);
}
);
width = 618;
}
);
leftKerningGroup = nine.osf;
rightKerningGroup = nine.osf;
},
{
glyphname = zero.osf.zero;
lastChange = "2018-06-22 18:32:31 +0000";
layers = (
{
components = (
{
name = zero.osf;
}
);
layerId = "12ECCE5E-04E9-4725-8BD5-31F21F15BB81";
paths = (
{
closed = 1;
nodes = (
"257 91 LINE",
"434 500 LINE",
"355 500 LINE",
"177 91 LINE"
);
}
);
width = 602;
}
);
leftKerningGroup = zero.osf;
leftMetricsKey = zero.osf;
widthMetricsKey = zero.osf;
rightKerningGroup = zero.osf;
},
{
glyphname = zero.tosf;
lastChange = "2018-06-22 18:32:31 +0000";
layers = (
{
background = {
paths = (
{
closed = 0;
nodes = (
"542 341 LINE SMOOTH",
"542 483 OFFCURVE",
"481 584 OFFCURVE",
"299 584 CURVE SMOOTH",
"117 584 OFFCURVE",
"56 478 OFFCURVE",
"56 341 CURVE SMOOTH"
);
},
{
closed = 0;
nodes = (
"178 341 LINE SMOOTH",
"178 423 OFFCURVE",
"198 483 OFFCURVE",
"299 483 CURVE SMOOTH",
"401 483 OFFCURVE",
"420 423 OFFCURVE",
"420 341 CURVE SMOOTH"
);
}
);
};
layerId = "12ECCE5E-04E9-4725-8BD5-31F21F15BB81";
paths = (
{
closed = 1;
nodes = (
"485 -9 OFFCURVE",
"551 145 OFFCURVE",
"551 294 CURVE SMOOTH",
"551 446 OFFCURVE",
"490 584 OFFCURVE",
"308 584 CURVE SMOOTH",
"126 584 OFFCURVE",
"66 441 OFFCURVE",
"66 294 CURVE SMOOTH",
"66 145 OFFCURVE",
"131 -9 OFFCURVE",
"308 -9 CURVE SMOOTH"
);
},
{
closed = 1;
nodes = (
"207 93 OFFCURVE",
"188 213 OFFCURVE",
"188 294 CURVE SMOOTH",
"188 386 OFFCURVE",
"207 483 OFFCURVE",
"308 483 CURVE SMOOTH",
"410 483 OFFCURVE",
"429 386 OFFCURVE",
"429 294 CURVE SMOOTH",
"429 212 OFFCURVE",
"410 93 OFFCURVE",
"308 93 CURVE SMOOTH"
);
}
);
width = 617;
}
);
},
{
glyphname = one.tosf;
lastChange = "2018-06-22 18:32:31 +0000";
layers = (
{
layerId = "12ECCE5E-04E9-4725-8BD5-31F21F15BB81";
paths = (
{
closed = 1;
nodes = (
"380 21 LINE",
"380 584 LINE",
"267 552 LINE",
"267 21 LINE"
);
},
{
closed = 1;
nodes = (
"527 0 LINE",
"527 89 LINE",
"115 89 LINE",
"115 0 LINE"
);
},
{
closed = 1;
nodes = (
"370 488 LINE",
"380 584 LINE",
"100 520 LINE",
"120 416 LINE"
);
}
);
width = 617;
}
);
},
{
glyphname = two.tosf;
lastChange = "2018-06-22 18:32:31 +0000";
layers = (
{
layerId = "12ECCE5E-04E9-4725-8BD5-31F21F15BB81";
paths = (
{
closed = 1;
nodes = (
"559 0 LINE",
"559 99 LINE",
"318 99 LINE",
"401 166 OFFCURVE",
"516 255 OFFCURVE",
"516 363 CURVE SMOOTH",
"516 494 OFFCURVE",
"442 584 OFFCURVE",
"302 584 CURVE SMOOTH",
"162 584 OFFCURVE",
"103 492 OFFCURVE",
"83 439 CURVE",
"176 389 LINE",
"196 428 OFFCURVE",
"216 480 OFFCURVE",
"296 480 CURVE SMOOTH",
"382 480 OFFCURVE",
"402 412 OFFCURVE",
"402 370 CURVE SMOOTH",
"402 273 OFFCURVE",
"302 218 OFFCURVE",
"59 0 CURVE"
);
}
);
width = 617;
}
);
},
{
color = 8;
glyphname = three.tosf;
lastChange = "2018-06-22 22:17:12 +0000";
layers = (
{
layerId = "12ECCE5E-04E9-4725-8BD5-31F21F15BB81";
paths = (
{
closed = 1;
nodes = (
"463 -152 OFFCURVE",
"551 -47 OFFCURVE",
"551 92 CURVE SMOOTH",
"551 202 OFFCURVE",
"475 291 OFFCURVE",
"345 297 CURVE",
"553 574 LINE",
"91 574 LINE",
"91 476 LINE",
"354 476 LINE",
"170 209 LINE",
"195 214 OFFCURVE",
"231 216 OFFCURVE",
"263 216 CURVE SMOOTH",
"368 216 OFFCURVE",
"427 163 OFFCURVE",
"427 84 CURVE SMOOTH",
"427 -25 OFFCURVE",
"362 -51 OFFCURVE",
"273 -51 CURVE SMOOTH",
"204 -51 OFFCURVE",
"136 -21 OFFCURVE",
"104 5 CURVE",
"57 -91 LINE",
"113 -133 OFFCURVE",
"202 -152 OFFCURVE",
"279 -152 CURVE SMOOTH"
);
}
);
width = 613;
}
);
},
{
color = 8;
glyphname = four.tosf;
lastChange = "2018-06-22 22:17:12 +0000";
layers = (
{
layerId = "12ECCE5E-04E9-4725-8BD5-31F21F15BB81";
paths = (
{
closed = 1;
nodes = (
"473 -184 LINE",
"473 0 LINE",
"579 0 LINE",
"579 105 LINE",
"473 105 LINE",
"473 272 LINE",
"365 272 LINE",
"360 105 LINE",
"180 105 LINE",
"331 552 LINE",
"227 590 LINE",
"24 0 LINE",
"360 0 LINE",
"360 -184 LINE"
);
}
);
width = 617;
}
);
},
{
glyphname = five.tosf;
lastChange = "2018-06-22 22:17:12 +0000";
layers = (
{
layerId = "12ECCE5E-04E9-4725-8BD5-31F21F15BB81";
paths = (
{
closed = 1;
nodes = (
"465 -140 OFFCURVE",
"557 -32 OFFCURVE",
"557 115 CURVE SMOOTH",
"557 256 OFFCURVE",
"462 330 OFFCURVE",
"308 330 CURVE SMOOTH",
"269 330 OFFCURVE",
"242 326 OFFCURVE",
"224 322 CURVE",
"234 476 LINE",
"502 476 LINE",
"502 574 LINE",
"125 574 LINE",
"110 207 LINE",
"137 223 OFFCURVE",
"214 235 OFFCURVE",
"273 235 CURVE SMOOTH",
"399 235 OFFCURVE",
"440 177 OFFCURVE",
"440 104 CURVE SMOOTH",
"440 15 OFFCURVE",
"374 -38 OFFCURVE",
"285 -38 CURVE SMOOTH",
"204 -38 OFFCURVE",
"142 2 OFFCURVE",
"124 17 CURVE",
"73 -79 LINE",
"109 -114 OFFCURVE",
"200 -140 OFFCURVE",
"288 -140 CURVE SMOOTH"
);
}
);
width = 617;
}
);
},
{
glyphname = six.tosf;
lastChange = "2018-06-22 22:17:12 +0000";
layers = (
{
layerId = "12ECCE5E-04E9-4725-8BD5-31F21F15BB81";
paths = (
{
closed = 1;
nodes = (
"457 -10 OFFCURVE",
"565 81 OFFCURVE",
"565 229 CURVE SMOOTH",
"565 361 OFFCURVE",
"479 465 OFFCURVE",
"342 465 CURVE SMOOTH",
"292 465 OFFCURVE",
"257 450 OFFCURVE",
"237 432 CURVE",
"249 446 OFFCURVE",
"265 491 OFFCURVE",
"410 717 CURVE",
"314 773 LINE",
"73 369 OFFCURVE",
"61 318 OFFCURVE",
"61 234 CURVE SMOOTH",
"61 82 OFFCURVE",
"171 -10 OFFCURVE",
"307 -10 CURVE SMOOTH"
);
},
{
closed = 1;
nodes = (
"235 86 OFFCURVE",
"176 146 OFFCURVE",
"176 231 CURVE SMOOTH",
"176 318 OFFCURVE",
"238 369 OFFCURVE",
"317 369 CURVE SMOOTH",
"392 369 OFFCURVE",
"450 321 OFFCURVE",
"450 229 CURVE SMOOTH",
"450 147 OFFCURVE",
"399 86 OFFCURVE",
"314 86 CURVE SMOOTH"
);
}
);
width = 617;
}
);
},
{
glyphname = seven.tosf;
lastChange = "2018-06-22 18:32:31 +0000";
layers = (
{
layerId = "12ECCE5E-04E9-4725-8BD5-31F21F15BB81";
paths = (
{
closed = 1;
nodes = (
"306 -141 LINE",
"564 574 LINE",
"81 574 LINE",
"81 476 LINE",
"423 476 LINE",
"178 -141 LINE"
);
}
);
width = 617;
}
);
},
{
color = 8;
glyphname = eight.tosf;
lastChange = "2018-06-22 22:17:12 +0000";
layers = (
{
layerId = "12ECCE5E-04E9-4725-8BD5-31F21F15BB81";
paths = (
{
closed = 1;
nodes = (
"447 -10 OFFCURVE",
"562 77 OFFCURVE",
"562 214 CURVE SMOOTH",
"562 310 OFFCURVE",
"500 363 OFFCURVE",
"438 389 CURVE",
"488 416 OFFCURVE",
"532 465 OFFCURVE",
"532 540 CURVE SMOOTH",
"532 659 OFFCURVE",
"436 735 OFFCURVE",
"309 735 CURVE SMOOTH",
"183 735 OFFCURVE",
"86 661 OFFCURVE",
"86 540 CURVE SMOOTH",
"86 471 OFFCURVE",
"127 418 OFFCURVE",
"176 390 CURVE",
"115 365 OFFCURVE",
"55 311 OFFCURVE",
"55 214 CURVE SMOOTH",
"55 77 OFFCURVE",
"170 -10 OFFCURVE",
"309 -10 CURVE SMOOTH"
);
},
{
closed = 1;
nodes = (
"222 86 OFFCURVE",
"168 140 OFFCURVE",
"168 213 CURVE SMOOTH",
"168 289 OFFCURVE",
"229 342 OFFCURVE",
"309 342 CURVE SMOOTH",
"389 342 OFFCURVE",
"448 287 OFFCURVE",
"448 213 CURVE SMOOTH",
"448 140 OFFCURVE",
"395 86 OFFCURVE",
"309 86 CURVE SMOOTH"
);
},
{
closed = 1;
nodes = (
"244 436 OFFCURVE",
"199 484 OFFCURVE",
"199 544 CURVE SMOOTH",
"199 605 OFFCURVE",
"242 647 OFFCURVE",
"309 647 CURVE SMOOTH",
"374 647 OFFCURVE",
"418 605 OFFCURVE",
"418 544 CURVE SMOOTH",
"418 484 OFFCURVE",
"368 436 OFFCURVE",
"309 436 CURVE SMOOTH"
);
}
);
width = 617;
}
);
userData = {
com.typemytype.robofont.guides = (
{
angle = 90;
isGlobal = 0;
magnetic = 5;
x = 215;
y = 0;
},
{
angle = 90;
isGlobal = 0;
magnetic = 5;
x = 101;
y = 0;
},
{
angle = 90;
isGlobal = 0;
magnetic = 5;
x = 322;
y = 0;
}
);
};
},
{
glyphname = nine.tosf;
lastChange = "2018-06-22 18:32:31 +0000";
layers = (
{
layerId = "12ECCE5E-04E9-4725-8BD5-31F21F15BB81";
paths = (
{
closed = 1;
nodes = (
"341 -139 LINE",
"543 201 OFFCURVE",
"565 256 OFFCURVE",
"565 339 CURVE SMOOTH",
"565 492 OFFCURVE",
"456 584 OFFCURVE",
"320 584 CURVE SMOOTH",
"162 584 OFFCURVE",
"57 487 OFFCURVE",
"57 344 CURVE SMOOTH",
"57 212 OFFCURVE",
"148 108 OFFCURVE",
"283 108 CURVE SMOOTH",
"340 108 OFFCURVE",
"371 124 OFFCURVE",
"390 141 CURVE",
"378 127 OFFCURVE",
"355 87 OFFCURVE",
"340 62 CURVE SMOOTH",
"211 -139 LINE"
);
},
{
closed = 1;
nodes = (
"237 204 OFFCURVE",
"172 252 OFFCURVE",
"172 343 CURVE SMOOTH",
"172 425 OFFCURVE",
"226 487 OFFCURVE",
"313 487 CURVE SMOOTH",
"392 487 OFFCURVE",
"450 427 OFFCURVE",
"450 342 CURVE SMOOTH",
"450 255 OFFCURVE",
"389 204 OFFCURVE",
"310 204 CURVE SMOOTH"
);
}
);
width = 617;
}
);
},
{
glyphname = zero.tosf.zero;
lastChange = "2018-06-22 18:32:31 +0000";
layers = (
{
components = (
{
name = zero.tosf;
}
);
layerId = "12ECCE5E-04E9-4725-8BD5-31F21F15BB81";
paths = (
{
closed = 1;
nodes = (
"273 91 LINE",
"450 500 LINE",
"371 500 LINE",
"193 91 LINE"
);
}
);
width = 617;
}
);
leftMetricsKey = zero.tosf;
widthMetricsKey = zero.tosf;
},
{
glyphname = zero.zero;
lastChange = "2018-06-22 18:32:31 +0000";
layers = (
{
components = (
{
name = zero;
}
);
layerId = "12ECCE5E-04E9-4725-8BD5-31F21F15BB81";
paths = (
{
closed = 1;
nodes = (
"257 91 LINE",
"464 673 LINE",
"385 673 LINE",
"177 91 LINE"
);
}
);
width = 647;
}
);
leftKerningGroup = zero;
rightKerningGroup = zero;
},
{
glyphname = zero.dnom;
lastChange = "2018-06-22 18:32:31 +0000";
layers = (
{
layerId = "12ECCE5E-04E9-4725-8BD5-31F21F15BB81";
paths = (
{
closed = 1;
nodes = (
"359 -6 OFFCURVE",
"411 97 OFFCURVE",
"411 228 CURVE SMOOTH",
"411 362 OFFCURVE",
"364 460 OFFCURVE",
"222 460 CURVE SMOOTH",
"76 460 OFFCURVE",
"30 359 OFFCURVE",
"30 228 CURVE SMOOTH",
"30 100 OFFCURVE",
"80 -6 OFFCURVE",
"222 -6 CURVE SMOOTH"
);
},
{
closed = 1;
nodes = (
"152 82 OFFCURVE",
"140 156 OFFCURVE",
"140 228 CURVE SMOOTH",
"140 303 OFFCURVE",
"152 372 OFFCURVE",
"222 372 CURVE SMOOTH",
"289 372 OFFCURVE",
"300 303 OFFCURVE",
"300 228 CURVE SMOOTH",
"300 155 OFFCURVE",
"289 82 OFFCURVE",
"222 82 CURVE SMOOTH"
);
}
);
width = 441;
}
);
leftKerningGroup = zero.dnom;
rightKerningGroup = zero.dnom;
userData = {
com.typemytype.robofont.mark = (
0.6,
0.986,
1,
1
);
};
},
{
glyphname = one.dnom;
lastChange = "2018-06-22 21:17:00 +0000";
layers = (
{
layerId = "12ECCE5E-04E9-4725-8BD5-31F21F15BB81";
paths = (
{
closed = 1;
nodes = (
"183 0 LINE",
"183 468 LINE",
"81 443 LINE",
"81 0 LINE"
);
}
);
width = 264;
}
);
leftKerningGroup = one.dnom;
rightKerningGroup = one.dnom;
userData = {
com.typemytype.robofont.mark = (
0.6,
0.986,
1,
1
);
};
},
{
glyphname = two.dnom;
lastChange = "2018-06-22 18:32:31 +0000";
layers = (
{
layerId = "12ECCE5E-04E9-4725-8BD5-31F21F15BB81";
paths = (
{
closed = 1;
nodes = (
"403 0 LINE",
"403 86 LINE",
"234 86 LINE",
"257 112 OFFCURVE",
"279 136 OFFCURVE",
"302 162 CURVE SMOOTH",
"351 217 OFFCURVE",
"383 274 OFFCURVE",
"383 326 CURVE SMOOTH",
"383 408 OFFCURVE",
"320 460 OFFCURVE",
"220 460 CURVE SMOOTH",
"120 460 OFFCURVE",
"59 384 OFFCURVE",
"43 343 CURVE",
"130 304 LINE",
"145 329 OFFCURVE",
"171 370 OFFCURVE",
"216 370 CURVE SMOOTH",
"262 370 OFFCURVE",
"282 349 OFFCURVE",
"282 319 CURVE SMOOTH",
"282 289 OFFCURVE",
"238 233 OFFCURVE",
"212 199 CURVE",
"28 0 LINE"
);
}
);
width = 450;
}
);
leftKerningGroup = two.dnom;
rightKerningGroup = two.dnom;
userData = {
com.typemytype.robofont.mark = (
0.6,
0.986,
1,
1
);
};
},
{
glyphname = three.dnom;
lastChange = "2018-06-22 22:17:12 +0000";
layers = (
{
layerId = "12ECCE5E-04E9-4725-8BD5-31F21F15BB81";
paths = (
{
closed = 1;
nodes = (
"318 -7 OFFCURVE",
"391 59 OFFCURVE",
"391 149 CURVE SMOOTH",
"391 213 OFFCURVE",
"344 266 OFFCURVE",
"266 278 CURVE",
"405 454 LINE",
"52 454 LINE",
"52 368 LINE",
"217 368 LINE",
"92 195 LINE",
"136 201 OFFCURVE",
"168 205 OFFCURVE",
"185 205 CURVE SMOOTH",
"245 205 OFFCURVE",
"281 182 OFFCURVE",
"281 144 CURVE SMOOTH",
"281 93 OFFCURVE",
"234 80 OFFCURVE",
"185 80 CURVE SMOOTH",
"142 80 OFFCURVE",
"94 102 OFFCURVE",
"69 119 CURVE",
"25 38 LINE",
"70 8 OFFCURVE",
"136 -7 OFFCURVE",
"189 -7 CURVE SMOOTH"
);
}
);
width = 440;
}
);
leftKerningGroup = three.dnom;
rightKerningGroup = three.dnom;
userData = {
com.typemytype.robofont.mark = (
0.6,
0.986,
1,
1
);
};
},
{
glyphname = four.dnom;
lastChange = "2019-08-21 00:24:53 +0000";
layers = (
{
layerId = "12ECCE5E-04E9-4725-8BD5-31F21F15BB81";
paths = (
{
closed = 1;
nodes = (
"356 0 LINE",
"356 107 LINE",
"423 107 LINE",
"423 195 LINE",
"356 195 LINE",
"356 291 LINE",
"250 291 LINE",
"250 195 LINE",
"169 195 LINE",
"265 447 LINE",
"168 481 LINE",
"20 107 LINE",
"250 107 LINE",
"250 0 LINE"
);
}
);
width = 453;
}
);
leftKerningGroup = four.dnom;
rightKerningGroup = four.dnom;
userData = {
com.typemytype.robofont.mark = (
0.6,
0.986,
1,
1
);
};
},
{
glyphname = five.dnom;
lastChange = "2018-06-22 22:17:12 +0000";
layers = (
{
layerId = "12ECCE5E-04E9-4725-8BD5-31F21F15BB81";
paths = (
{
closed = 1;
nodes = (
"323 -7 OFFCURVE",
"389 61 OFFCURVE",
"389 155 CURVE SMOOTH",
"389 246 OFFCURVE",
"321 300 OFFCURVE",
"213 300 CURVE SMOOTH",
"195 300 OFFCURVE",
"180 300 OFFCURVE",
"170 299 CURVE",
"173 322 LINE",
"173 323 OFFCURVE",
"173 325 OFFCURVE",
"173 327 CURVE SMOOTH",
"173 328 OFFCURVE",
"174 330 OFFCURVE",
"174 331 CURVE",
"177 368 LINE",
"355 368 LINE",
"355 454 LINE",
"75 454 LINE",
"67 191 LINE",
"96 207 OFFCURVE",
"150 216 OFFCURVE",
"189 216 CURVE SMOOTH",
"260 216 OFFCURVE",
"284 183 OFFCURVE",
"284 149 CURVE SMOOTH",
"284 107 OFFCURVE",
"246 81 OFFCURVE",
"198 81 CURVE SMOOTH",
"147 81 OFFCURVE",
"102 109 OFFCURVE",
"87 119 CURVE",
"40 40 LINE",
"71 15 OFFCURVE",
"139 -7 OFFCURVE",
"200 -7 CURVE SMOOTH"
);
}
);
width = 434;
}
);
leftKerningGroup = five.dnom;
rightKerningGroup = five.dnom;
userData = {
com.typemytype.robofont.mark = (
0.6,
0.986,
1,
1
);
};
},
{
glyphname = six.dnom;
lastChange = "2018-06-22 22:17:12 +0000";
layers = (
{
layerId = "12ECCE5E-04E9-4725-8BD5-31F21F15BB81";
paths = (
{
closed = 1;
nodes = (
"323 -6 OFFCURVE",
"400 51 OFFCURVE",
"400 146 CURVE SMOOTH",
"400 231 OFFCURVE",
"338 296 OFFCURVE",
"239 296 CURVE SMOOTH",
"226 296 OFFCURVE",
"218 296 OFFCURVE",
"208 294 CURVE",
"223 318 OFFCURVE",
"250 358 OFFCURVE",
"304 430 CURVE",
"216 478 LINE",
"49 230 OFFCURVE",
"40 199 OFFCURVE",
"40 149 CURVE SMOOTH",
"40 52 OFFCURVE",
"118 -6 OFFCURVE",
"217 -6 CURVE SMOOTH"
);
},
{
closed = 1;
nodes = (
"177 78 OFFCURVE",
"145 108 OFFCURVE",
"145 147 CURVE SMOOTH",
"145 188 OFFCURVE",
"179 213 OFFCURVE",
"222 213 CURVE SMOOTH",
"264 213 OFFCURVE",
"295 189 OFFCURVE",
"295 146 CURVE SMOOTH",
"295 109 OFFCURVE",
"268 78 OFFCURVE",
"221 78 CURVE SMOOTH"
);
}
);
width = 440;
}
);
leftKerningGroup = six.dnom;
rightKerningGroup = six.dnom;
userData = {
com.typemytype.robofont.mark = (
0.6,
0.986,
1,
1
);
};
},
{
glyphname = seven.dnom;
lastChange = "2018-06-22 18:32:31 +0000";
layers = (
{
layerId = "12ECCE5E-04E9-4725-8BD5-31F21F15BB81";
paths = (
{
closed = 1;
nodes = (
"199 0 LINE",
"380 454 LINE",
"25 454 LINE",
"25 368 LINE",
"242 368 LINE",
"80 0 LINE"
);
}
);
width = 400;
}
);
leftKerningGroup = seven.dnom;
rightKerningGroup = seven.dnom;
userData = {
com.typemytype.robofont.mark = (
0.6,
0.986,
1,
1
);
};
},
{
glyphname = eight.dnom;
lastChange = "2018-06-22 22:17:12 +0000";
layers = (
{
layerId = "12ECCE5E-04E9-4725-8BD5-31F21F15BB81";
paths = (
{
closed = 1;
nodes = (
"325 -6 OFFCURVE",
"407 50 OFFCURVE",
"407 138 CURVE SMOOTH",
"407 186 OFFCURVE",
"376 220 OFFCURVE",
"344 242 CURVE",
"370 260 OFFCURVE",
"387 293 OFFCURVE",
"387 331 CURVE SMOOTH",
"387 409 OFFCURVE",
"317 460 OFFCURVE",
"228 460 CURVE SMOOTH",
"136 460 OFFCURVE",
"66 410 OFFCURVE",
"66 331 CURVE SMOOTH",
"66 293 OFFCURVE",
"82 261 OFFCURVE",
"108 242 CURVE",
"75 221 OFFCURVE",
"45 186 OFFCURVE",
"45 138 CURVE SMOOTH",
"45 50 OFFCURVE",
"126 -6 OFFCURVE",
"228 -6 CURVE SMOOTH"
);
},
{
closed = 1;
nodes = (
"177 79 OFFCURVE",
"150 105 OFFCURVE",
"150 138 CURVE SMOOTH",
"150 174 OFFCURVE",
"181 196 OFFCURVE",
"228 196 CURVE SMOOTH",
"271 196 OFFCURVE",
"302 173 OFFCURVE",
"302 138 CURVE SMOOTH",
"302 105 OFFCURVE",
"274 79 OFFCURVE",
"228 79 CURVE SMOOTH"
);
},
{
closed = 1;
nodes = (
"192 280 OFFCURVE",
"167 304 OFFCURVE",
"167 331 CURVE SMOOTH",
"167 360 OFFCURVE",
"191 380 OFFCURVE",
"228 380 CURVE SMOOTH",
"260 380 OFFCURVE",
"284 360 OFFCURVE",
"284 331 CURVE SMOOTH",
"284 304 OFFCURVE",
"256 280 OFFCURVE",
"228 280 CURVE SMOOTH"
);
}
);
width = 452;
}
);
leftKerningGroup = eight.dnom;
rightKerningGroup = eight.dnom;
userData = {
com.typemytype.robofont.guides = (
{
angle = 90;
isGlobal = 0;
magnetic = 5;
x = 147;
y = 0;
},
{
angle = 90;
isGlobal = 0;
magnetic = 5;
x = 69;
y = 0;
},
{
angle = 90;
isGlobal = 0;
magnetic = 5;
x = 221;
y = 0;
}
);
com.typemytype.robofont.mark = (
0.6,
0.986,
1,
1
);
};
},
{
glyphname = nine.dnom;
lastChange = "2018-06-22 18:32:31 +0000";
layers = (
{
layerId = "12ECCE5E-04E9-4725-8BD5-31F21F15BB81";
paths = (
{
closed = 1;
nodes = (
"249 0 LINE",
"394 219 OFFCURVE",
"402 254 OFFCURVE",
"402 303 CURVE SMOOTH",
"402 401 OFFCURVE",
"325 460 OFFCURVE",
"226 460 CURVE SMOOTH",
"115 460 OFFCURVE",
"40 399 OFFCURVE",
"40 307 CURVE SMOOTH",
"40 221 OFFCURVE",
"105 156 OFFCURVE",
"204 156 CURVE SMOOTH",
"214 156 OFFCURVE",
"224 156 OFFCURVE",
"231 157 CURVE",
"227 152 LINE",
"130 0 LINE"
);
},
{
closed = 1;
nodes = (
"181 241 OFFCURVE",
"145 261 OFFCURVE",
"145 306 CURVE SMOOTH",
"145 344 OFFCURVE",
"174 375 OFFCURVE",
"223 375 CURVE SMOOTH",
"266 375 OFFCURVE",
"297 345 OFFCURVE",
"297 305 CURVE SMOOTH",
"297 263 OFFCURVE",
"264 241 OFFCURVE",
"222 241 CURVE SMOOTH"
);
}
);
width = 442;
}
);
leftKerningGroup = nine.dnom;
rightKerningGroup = nine.dnom;
userData = {
com.typemytype.robofont.mark = (
0.6,
0.986,
1,
1
);
};
},
{
glyphname = fraction;
lastChange = "2018-06-22 18:32:31 +0000";
layers = (
{
layerId = "12ECCE5E-04E9-4725-8BD5-31F21F15BB81";
paths = (
{
closed = 1;
nodes = (
"-17 0 LINE",
"345 748 LINE",
"245 748 LINE",
"-118 0 LINE"
);
}
);
width = 233;
}
);
leftKerningGroup = fraction;
rightKerningGroup = fraction;
unicode = 2044;
userData = {
com.typemytype.robofont.mark = (
0.656,
1,
0.6,
1
);
};
},
{
glyphname = period;
lastChange = "2018-06-22 22:17:12 +0000";
layers = (
{
layerId = "12ECCE5E-04E9-4725-8BD5-31F21F15BB81";
paths = (
{
closed = 1;
nodes = (
"186 -10 OFFCURVE",
"217 21 OFFCURVE",
"217 61 CURVE SMOOTH",
"217 102 OFFCURVE",
"187 133 OFFCURVE",
"145 133 CURVE SMOOTH",
"104 133 OFFCURVE",
"73 102 OFFCURVE",
"73 61 CURVE SMOOTH",
"73 21 OFFCURVE",
"105 -10 OFFCURVE",
"145 -10 CURVE SMOOTH"
);
}
);
width = 291;
}
);
leftKerningGroup = period;
rightKerningGroup = period;
unicode = 002E;
userData = {
com.typemytype.robofont.mark = (
0.656,
1,
0.6,
1
);
};
},
{
glyphname = comma;
lastChange = "2018-06-22 22:17:12 +0000";
layers = (
{
layerId = "12ECCE5E-04E9-4725-8BD5-31F21F15BB81";
paths = (
{
closed = 1;
nodes = (
"117 -167 LINE",
"155 -114 OFFCURVE",
"208 -25 OFFCURVE",
"208 42 CURVE SMOOTH",
"208 103 OFFCURVE",
"179 133 OFFCURVE",
"138 133 CURVE SMOOTH",
"97 133 OFFCURVE",
"66 102 OFFCURVE",
"66 61 CURVE SMOOTH",
"66 36 OFFCURVE",
"73 5 OFFCURVE",
"113 -8 CURVE",
"96 -68 OFFCURVE",
"74 -120 OFFCURVE",
"52 -167 CURVE"
);
}
);
width = 277;
}
);
leftKerningGroup = period;
rightKerningGroup = period;
unicode = 002C;
userData = {
com.typemytype.robofont.mark = (
0.656,
1,
0.6,
1
);
};
},
{
glyphname = ellipsis;
lastChange = "2018-06-22 22:17:12 +0000";
layers = (
{
layerId = "12ECCE5E-04E9-4725-8BD5-31F21F15BB81";
paths = (
{
closed = 1;
nodes = (
"767 -10 OFFCURVE",
"798 21 OFFCURVE",
"798 61 CURVE SMOOTH",
"798 102 OFFCURVE",
"768 133 OFFCURVE",
"726 133 CURVE SMOOTH",
"686 133 OFFCURVE",
"654 102 OFFCURVE",
"654 61 CURVE SMOOTH",
"654 21 OFFCURVE",
"686 -10 OFFCURVE",
"726 -10 CURVE SMOOTH"
);
},
{
closed = 1;
nodes = (
"186 -10 OFFCURVE",
"217 21 OFFCURVE",
"217 61 CURVE SMOOTH",
"217 102 OFFCURVE",
"187 133 OFFCURVE",
"145 133 CURVE SMOOTH",
"104 133 OFFCURVE",
"73 102 OFFCURVE",
"73 61 CURVE SMOOTH",
"73 21 OFFCURVE",
"105 -10 OFFCURVE",
"145 -10 CURVE SMOOTH"
);
},
{
closed = 1;
nodes = (
"476 -10 OFFCURVE",
"508 21 OFFCURVE",
"508 61 CURVE SMOOTH",
"508 102 OFFCURVE",
"477 133 OFFCURVE",
"436 133 CURVE SMOOTH",
"395 133 OFFCURVE",
"364 102 OFFCURVE",
"364 61 CURVE SMOOTH",
"364 21 OFFCURVE",
"396 -10 OFFCURVE",
"436 -10 CURVE SMOOTH"
);
}
);
width = 872;
}
);
leftKerningGroup = period;
rightKerningGroup = period;
unicode = 2026;
userData = {
com.typemytype.robofont.mark = (
0.656,
1,
0.6,
1
);
};
},
{
glyphname = exclam;
lastChange = "2018-06-22 22:17:12 +0000";
layers = (
{
layerId = "12ECCE5E-04E9-4725-8BD5-31F21F15BB81";
paths = (
{
closed = 1;
nodes = (
"192 261 LINE",
"211 759 LINE",
"83 759 LINE",
"102 261 LINE"
);
},
{
closed = 1;
nodes = (
"186 -11 OFFCURVE",
"217 20 OFFCURVE",
"217 61 CURVE SMOOTH",
"217 101 OFFCURVE",
"187 133 OFFCURVE",
"145 133 CURVE SMOOTH",
"104 133 OFFCURVE",
"73 101 OFFCURVE",
"73 61 CURVE SMOOTH",
"73 20 OFFCURVE",
"105 -11 OFFCURVE",
"145 -11 CURVE SMOOTH"
);
}
);
width = 291;
}
);
leftKerningGroup = exclam;
rightKerningGroup = exclam;
unicode = 0021;
userData = {
com.typemytype.robofont.mark = (
0.656,
1,
0.6,
1
);
};
},
{
glyphname = question;
lastChange = "2018-06-22 22:17:12 +0000";
layers = (
{
layerId = "12ECCE5E-04E9-4725-8BD5-31F21F15BB81";
paths = (
{
closed = 1;
nodes = (
"278 227 LINE",
"278 227 OFFCURVE",
"276 249 OFFCURVE",
"276 270 CURVE SMOOTH",
"276 375 OFFCURVE",
"465 384 OFFCURVE",
"465 562 CURVE SMOOTH",
"465 664 OFFCURVE",
"376 747 OFFCURVE",
"244 747 CURVE SMOOTH",
"85 747 OFFCURVE",
"40 643 OFFCURVE",
"30 625 CURVE",
"130 575 LINE",
"136 596 OFFCURVE",
"171 646 OFFCURVE",
"238 646 CURVE SMOOTH",
"308 646 OFFCURVE",
"346 604 OFFCURVE",
"346 552 CURVE SMOOTH",
"346 425 OFFCURVE",
"167 413 OFFCURVE",
"167 273 CURVE SMOOTH",
"167 247 OFFCURVE",
"173 227 OFFCURVE",
"173 227 CURVE"
);
},
{
closed = 1;
nodes = (
"275 -10 OFFCURVE",
"307 21 OFFCURVE",
"307 61 CURVE SMOOTH",
"307 102 OFFCURVE",
"275 133 OFFCURVE",
"235 133 CURVE SMOOTH",
"193 133 OFFCURVE",
"163 102 OFFCURVE",
"163 61 CURVE SMOOTH",
"163 21 OFFCURVE",
"193 -10 OFFCURVE",
"235 -10 CURVE SMOOTH"
);
}
);
width = 519;
}
);
leftKerningGroup = question;
rightKerningGroup = question;
unicode = 003F;
userData = {
com.typemytype.robofont.mark = (
0.656,
1,
0.6,
1
);
};
},
{
glyphname = periodcentered;
lastChange = "2018-06-22 18:32:31 +0000";
layers = (
{
layerId = "12ECCE5E-04E9-4725-8BD5-31F21F15BB81";
paths = (
{
closed = 1;
nodes = (
"271 275 OFFCURVE",
"303 306 OFFCURVE",
"303 348 CURVE SMOOTH",
"303 388 OFFCURVE",
"271 419 OFFCURVE",
"229 419 CURVE SMOOTH",
"188 419 OFFCURVE",
"158 388 OFFCURVE",
"158 348 CURVE SMOOTH",
"158 306 OFFCURVE",
"189 275 OFFCURVE",
"229 275 CURVE SMOOTH"
);
}
);
width = 460;
}
);
leftKerningGroup = period;
rightKerningGroup = period;
unicode = 00B7;
userData = {
com.typemytype.robofont.mark = (
0.656,
1,
0.6,
1
);
};
},
{
glyphname = bullet;
lastChange = "2018-06-22 18:32:31 +0000";
layers = (
{
layerId = "12ECCE5E-04E9-4725-8BD5-31F21F15BB81";
paths = (
{
closed = 1;
nodes = (
"337 228 OFFCURVE",
"387 277 OFFCURVE",
"387 337 CURVE SMOOTH",
"387 396 OFFCURVE",
"338 446 OFFCURVE",
"277 446 CURVE SMOOTH",
"217 446 OFFCURVE",
"168 396 OFFCURVE",
"168 337 CURVE SMOOTH",
"168 277 OFFCURVE",
"217 228 OFFCURVE",
"277 228 CURVE SMOOTH"
);
}
);
width = 555;
}
);
leftKerningGroup = bullet;
rightKerningGroup = bullet;
unicode = 2022;
userData = {
com.typemytype.robofont.mark = (
0.656,
1,
0.6,
1
);
};
},
{
glyphname = asterisk;
lastChange = "2018-06-22 21:23:46 +0000";
layers = (
{
layerId = "12ECCE5E-04E9-4725-8BD5-31F21F15BB81";
paths = (
{
closed = 1;
nodes = (
"380 362 LINE",
"335 563 LINE",
"491 427 LINE",
"556 537 LINE",
"354 600 LINE",
"556 665 LINE",
"490 776 LINE",
"335 637 LINE",
"380 840 LINE",
"252 840 LINE",
"293 636 LINE",
"144 776 LINE",
"78 665 LINE",
"271 600 LINE",
"78 537 LINE",
"143 427 LINE",
"293 562 LINE",
"253 362 LINE"
);
}
);
width = 635;
}
);
leftKerningGroup = asterisk;
rightKerningGroup = asterisk;
unicode = 002A;
userData = {
com.typemytype.robofont.mark = (
0.656,
1,
0.6,
1
);
};
},
{
glyphname = numbersign;
lastChange = "2018-06-22 18:32:31 +0000";
layers = (
{
layerId = "12ECCE5E-04E9-4725-8BD5-31F21F15BB81";
paths = (
{
closed = 1;
nodes = (
"272 2 LINE",
"304 177 LINE",
"457 177 LINE",
"425 2 LINE",
"528 2 LINE",
"560 177 LINE",
"696 177 LINE",
"696 271 LINE",
"576 271 LINE",
"609 449 LINE",
"734 449 LINE",
"734 542 LINE",
"626 542 LINE",
"659 722 LINE",
"557 722 LINE",
"524 542 LINE",
"370 542 LINE",
"403 722 LINE",
"300 722 LINE",
"268 542 LINE",
"134 542 LINE",
"134 449 LINE",
"250 449 LINE",
"218 271 LINE",
"96 271 LINE",
"96 177 LINE",
"201 177 LINE",
"169 2 LINE"
);
},
{
closed = 1;
nodes = (
"353 449 LINE",
"507 449 LINE",
"474 271 LINE",
"321 271 LINE"
);
}
);
width = 830;
}
);
leftKerningGroup = numbersign;
rightKerningGroup = numbersign;
unicode = 0023;
userData = {
com.typemytype.robofont.mark = (
0.656,
1,
0.6,
1
);
};
},
{
glyphname = slash;
lastChange = "2018-06-22 18:32:31 +0000";
layers = (
{
layerId = "12ECCE5E-04E9-4725-8BD5-31F21F15BB81";
paths = (
{
closed = 1;
nodes = (
"171 -92 LINE",
"387 827 LINE",
"290 827 LINE",
"74 -92 LINE"
);
}
);
width = 461;
}
);
leftKerningGroup = slash;
rightKerningGroup = slash;
unicode = 002F;
userData = {
com.typemytype.robofont.mark = (
0.656,
1,
0.6,
1
);
};
},
{
glyphname = backslash;
lastChange = "2018-06-22 22:17:12 +0000";
layers = (
{
layerId = "12ECCE5E-04E9-4725-8BD5-31F21F15BB81";
paths = (
{
closed = 1;
nodes = (
"387 -92 LINE",
"171 827 LINE",
"74 827 LINE",
"290 -92 LINE"
);
}
);
width = 461;
}
);
leftKerningGroup = backslash;
rightKerningGroup = backslash;
unicode = 005C;
userData = {
com.typemytype.robofont.mark = (
0.656,
1,
0.6,
1
);
};
},
{
glyphname = periodcentered.case;
lastChange = "2018-06-22 18:32:31 +0000";
layers = (
{
layerId = "12ECCE5E-04E9-4725-8BD5-31F21F15BB81";
paths = (
{
closed = 1;
nodes = (
"271 317 OFFCURVE",
"303 349 OFFCURVE",
"303 390 CURVE SMOOTH",
"303 430 OFFCURVE",
"271 461 OFFCURVE",
"229 461 CURVE SMOOTH",
"188 461 OFFCURVE",
"158 430 OFFCURVE",
"158 390 CURVE SMOOTH",
"158 349 OFFCURVE",
"189 317 OFFCURVE",
"229 317 CURVE SMOOTH"
);
}
);
width = 460;
}
);
leftKerningGroup = period;
rightKerningGroup = period;
},
{
glyphname = bullet.case;
lastChange = "2018-06-22 18:32:31 +0000";
layers = (
{
layerId = "12ECCE5E-04E9-4725-8BD5-31F21F15BB81";
paths = (
{
closed = 1;
nodes = (
"337 264 OFFCURVE",
"387 313 OFFCURVE",
"387 374 CURVE SMOOTH",
"387 433 OFFCURVE",
"338 483 OFFCURVE",
"277 483 CURVE SMOOTH",
"217 483 OFFCURVE",
"168 433 OFFCURVE",
"168 374 CURVE SMOOTH",
"168 313 OFFCURVE",
"217 264 OFFCURVE",
"277 264 CURVE SMOOTH"
);
}
);
width = 555;
}
);
leftKerningGroup = bullet.case;
rightKerningGroup = bullet.case;
},
{
glyphname = periodcentered.loclCAT;
lastChange = "2018-06-22 18:32:31 +0000";
layers = (
{
layerId = "12ECCE5E-04E9-4725-8BD5-31F21F15BB81";
paths = (
{
closed = 1;
nodes = (
"7 275 OFFCURVE",
"39 306 OFFCURVE",
"39 348 CURVE SMOOTH",
"39 388 OFFCURVE",
"7 419 OFFCURVE",
"-35 419 CURVE SMOOTH",
"-76 419 OFFCURVE",
"-106 388 OFFCURVE",
"-106 348 CURVE SMOOTH",
"-106 306 OFFCURVE",
"-75 275 OFFCURVE",
"-35 275 CURVE SMOOTH"
);
}
);
width = 49;
}
);
leftKerningGroup = periodcentered.loclCAT;
rightKerningGroup = periodcentered.loclCAT;
userData = {
com.typemytype.robofont.mark = (
0.967,
0.6,
1,
1
);
};
},
{
color = 8;
glyphname = parenleft;
lastChange = "2018-06-22 22:17:12 +0000";
layers = (
{
layerId = "12ECCE5E-04E9-4725-8BD5-31F21F15BB81";
paths = (
{
closed = 1;
nodes = (
"398 -152 LINE",
"313 -89 OFFCURVE",
"186 79 OFFCURVE",
"186 334 CURVE SMOOTH",
"186 589 OFFCURVE",
"313 758 OFFCURVE",
"398 820 CURVE",
"340 886 LINE",
"285 857 OFFCURVE",
"85 667 OFFCURVE",
"85 334 CURVE SMOOTH",
"85 1 OFFCURVE",
"285 -189 OFFCURVE",
"340 -217 CURVE"
);
}
);
width = 461;
}
);
leftKerningGroup = parenleft;
rightKerningGroup = parenleft;
unicode = 0028;
userData = {
com.typemytype.robofont.mark = (
0.656,
1,
0.6,
1
);
};
},
{
color = 8;
glyphname = braceleft;
lastChange = "2018-06-22 22:17:12 +0000";
layers = (
{
layerId = "12ECCE5E-04E9-4725-8BD5-31F21F15BB81";
paths = (
{
closed = 1;
nodes = (
"357 -224 OFFCURVE",
"375 -222 OFFCURVE",
"391 -221 CURVE",
"393 -136 LINE",
"383 -140 OFFCURVE",
"368 -143 OFFCURVE",
"352 -143 CURVE SMOOTH",
"321 -143 OFFCURVE",
"288 -131 OFFCURVE",
"288 -93 CURVE SMOOTH",
"288 167 LINE SMOOTH",
"288 243 OFFCURVE",
"244 296 OFFCURVE",
"187 302 CURVE",
"244 309 OFFCURVE",
"288 380 OFFCURVE",
"288 451 CURVE SMOOTH",
"288 728 LINE SMOOTH",
"288 765 OFFCURVE",
"319 776 OFFCURVE",
"349 776 CURVE SMOOTH",
"366 776 OFFCURVE",
"382 772 OFFCURVE",
"393 768 CURVE",
"391 852 LINE",
"375 854 OFFCURVE",
"357 855 OFFCURVE",
"334 855 CURVE SMOOTH",
"245 855 OFFCURVE",
"186 814 OFFCURVE",
"186 703 CURVE SMOOTH",
"186 479 LINE SMOOTH",
"186 359 OFFCURVE",
"132 348 OFFCURVE",
"73 348 CURVE",
"73 265 LINE",
"132 265 OFFCURVE",
"186 250 OFFCURVE",
"186 127 CURVE SMOOTH",
"186 -68 LINE SMOOTH",
"186 -180 OFFCURVE",
"241 -221 OFFCURVE",
"334 -224 CURVE SMOOTH"
);
}
);
width = 461;
}
);
leftKerningGroup = braceleft;
rightKerningGroup = braceleft;
unicode = 007B;
userData = {
com.typemytype.robofont.mark = (
0.656,
1,
0.6,
1
);
};
},
{
color = 8;
glyphname = bracketleft;
lastChange = "2018-06-22 21:22:17 +0000";
layers = (
{
layerId = "12ECCE5E-04E9-4725-8BD5-31F21F15BB81";
paths = (
{
closed = 1;
nodes = (
"382 -202 LINE",
"382 -119 LINE",
"276 -119 LINE",
"276 759 LINE",
"382 759 LINE",
"382 842 LINE",
"167 842 LINE",
"167 -202 LINE"
);
}
);
width = 459;
}
);
leftKerningGroup = bracketleft;
rightKerningGroup = bracketleft;
unicode = 005B;
userData = {
com.typemytype.robofont.mark = (
0.656,
1,
0.6,
1
);
};
},
{
glyphname = parenleft.case;
lastChange = "2018-06-22 22:17:12 +0000";
layers = (
{
layerId = "12ECCE5E-04E9-4725-8BD5-31F21F15BB81";
paths = (
{
closed = 1;
nodes = (
"398 -132 LINE",
"313 -70 OFFCURVE",
"187 99 OFFCURVE",
"187 354 CURVE SMOOTH",
"187 608 OFFCURVE",
"313 777 OFFCURVE",
"398 840 CURVE",
"340 906 LINE",
"285 877 OFFCURVE",
"85 687 OFFCURVE",
"85 354 CURVE SMOOTH",
"85 21 OFFCURVE",
"285 -169 OFFCURVE",
"340 -198 CURVE"
);
}
);
width = 461;
}
);
leftKerningGroup = parenleft.case;
rightKerningGroup = parenleft.case;
},
{
glyphname = braceleft.case;
lastChange = "2018-06-22 22:17:12 +0000";
layers = (
{
layerId = "12ECCE5E-04E9-4725-8BD5-31F21F15BB81";
paths = (
{
closed = 1;
nodes = (
"357 -205 OFFCURVE",
"375 -203 OFFCURVE",
"391 -202 CURVE",
"393 -117 LINE",
"383 -121 OFFCURVE",
"369 -124 OFFCURVE",
"353 -124 CURVE SMOOTH",
"322 -124 OFFCURVE",
"288 -112 OFFCURVE",
"288 -73 CURVE SMOOTH",
"288 186 LINE SMOOTH",
"288 263 OFFCURVE",
"244 316 OFFCURVE",
"187 322 CURVE",
"244 328 OFFCURVE",
"288 399 OFFCURVE",
"288 470 CURVE SMOOTH",
"288 747 LINE SMOOTH",
"288 784 OFFCURVE",
"319 795 OFFCURVE",
"349 795 CURVE SMOOTH",
"366 795 OFFCURVE",
"382 791 OFFCURVE",
"393 787 CURVE",
"391 872 LINE",
"375 873 OFFCURVE",
"357 875 OFFCURVE",
"334 875 CURVE SMOOTH",
"245 875 OFFCURVE",
"186 834 OFFCURVE",
"186 723 CURVE SMOOTH",
"186 499 LINE SMOOTH",
"186 378 OFFCURVE",
"132 367 OFFCURVE",
"73 367 CURVE",
"73 284 LINE",
"132 284 OFFCURVE",
"186 269 OFFCURVE",
"186 147 CURVE SMOOTH",
"186 -49 LINE SMOOTH",
"186 -160 OFFCURVE",
"241 -202 OFFCURVE",
"334 -205 CURVE SMOOTH"
);
}
);
width = 461;
}
);
leftKerningGroup = braceleft.case;
rightKerningGroup = braceleft.case;
},
{
glyphname = bracketleft.case;
lastChange = "2018-06-22 18:32:31 +0000";
layers = (
{
layerId = "12ECCE5E-04E9-4725-8BD5-31F21F15BB81";
paths = (
{
closed = 1;
nodes = (
"382 -183 LINE",
"382 -99 LINE",
"276 -99 LINE",
"276 778 LINE",
"382 778 LINE",
"382 862 LINE",
"167 862 LINE",
"167 -183 LINE"
);
}
);
width = 459;
}
);
leftKerningGroup = bracketleft.case;
rightKerningGroup = bracketleft.case;
},
{
glyphname = hyphen;
lastChange = "2018-06-22 21:22:58 +0000";
layers = (
{
layerId = "12ECCE5E-04E9-4725-8BD5-31F21F15BB81";
paths = (
{
closed = 1;
nodes = (
"453 203 LINE",
"453 299 LINE",
"110 299 LINE",
"110 203 LINE"
);
}
);
width = 563;
}
);
leftKerningGroup = hyphen;
rightKerningGroup = hyphen;
unicode = 002D;
userData = {
com.typemytype.robofont.mark = (
0.656,
1,
0.6,
1
);
};
},
{
color = 0;
glyphname = softhyphen;
lastChange = "2018-06-22 21:22:27 +0000";
layers = (
{
layerId = "12ECCE5E-04E9-4725-8BD5-31F21F15BB81";
paths = (
{
closed = 1;
nodes = (
"453 271 LINE",
"453 368 LINE",
"110 368 LINE",
"110 271 LINE"
);
}
);
width = 563;
}
);
leftKerningGroup = hyphen;
leftMetricsKey = hyphen;
rightKerningGroup = hyphen;
rightMetricsKey = hyphen;
unicode = 00AD;
userData = {
com.typemytype.robofont.mark = (
0.656,
1,
0.6,
1
);
};
},
{
glyphname = endash;
lastChange = "2018-06-22 21:15:10 +0000";
layers = (
{
layerId = "12ECCE5E-04E9-4725-8BD5-31F21F15BB81";
paths = (
{
closed = 1;
nodes = (
"721 203 LINE",
"721 299 LINE",
"110 299 LINE",
"110 203 LINE"
);
}
);
width = 831;
}
);
leftKerningGroup = hyphen;
leftMetricsKey = hyphen;
rightKerningGroup = hyphen;
rightMetricsKey = hyphen;
unicode = 2013;
userData = {
com.typemytype.robofont.mark = (
0.656,
1,
0.6,
1
);
};
},
{
glyphname = emdash;
lastChange = "2018-06-22 21:15:13 +0000";
layers = (
{
layerId = "12ECCE5E-04E9-4725-8BD5-31F21F15BB81";
paths = (
{
closed = 1;
nodes = (
"900 203 LINE",
"900 299 LINE",
"110 299 LINE",
"110 203 LINE"
);
}
);
width = 1010;
}
);
leftKerningGroup = hyphen;
leftMetricsKey = hyphen;
rightKerningGroup = hyphen;
rightMetricsKey = hyphen;
unicode = 2014;
userData = {
com.typemytype.robofont.mark = (
0.656,
1,
0.6,
1
);
};
},
{
glyphname = figuredash;
lastChange = "2018-06-22 21:15:16 +0000";
layers = (
{
layerId = "12ECCE5E-04E9-4725-8BD5-31F21F15BB81";
paths = (
{
closed = 1;
nodes = (
"870 203 LINE",
"870 299 LINE",
"110 299 LINE",
"110 203 LINE"
);
}
);
width = 980;
}
);
leftKerningGroup = hyphen;
leftMetricsKey = hyphen;
rightKerningGroup = hyphen;
rightMetricsKey = hyphen;
unicode = 2012;
userData = {
com.typemytype.robofont.mark = (
0.6,
0.609,
1,
1
);
};
},
{
glyphname = underscore;
lastChange = "2018-06-22 22:17:12 +0000";
layers = (
{
layerId = "12ECCE5E-04E9-4725-8BD5-31F21F15BB81";
paths = (
{
closed = 1;
nodes = (
"750 -173 LINE",
"750 -102 LINE",
"-11 -102 LINE",
"-11 -173 LINE"
);
}
);
width = 739;
}
);
leftKerningGroup = underscore;
rightKerningGroup = underscore;
unicode = 005F;
userData = {
com.typemytype.robofont.mark = (
0.656,
1,
0.6,
1
);
};
},
{
color = 8;
glyphname = quoteleft;
lastChange = "2018-06-22 18:51:52 +0000";
layers = (
{
layerId = "12ECCE5E-04E9-4725-8BD5-31F21F15BB81";
paths = (
{
closed = 1;
nodes = (
"165 520 OFFCURVE",
"198 558 OFFCURVE",
"198 600 CURVE",
"198 626 OFFCURVE",
"177 656 OFFCURVE",
"157 668 CURVE",
"160 729 OFFCURVE",
"177 797 OFFCURVE",
"203 844 CURVE",
"140 844 LINE",
"96 807 OFFCURVE",
"40 692 OFFCURVE",
"40 610 CURVE SMOOTH",
"40 568 OFFCURVE",
"72 520 OFFCURVE",
"119 520 CURVE SMOOTH"
);
}
);
width = 273;
}
);
leftKerningGroup = quoteleft;
rightKerningGroup = quoteleft;
unicode = 2018;
userData = {
com.typemytype.robofont.mark = (
0.656,
1,
0.6,
1
);
};
},
{
color = 8;
glyphname = quoteright;
lastChange = "2018-06-22 22:17:12 +0000";
layers = (
{
layerId = "12ECCE5E-04E9-4725-8BD5-31F21F15BB81";
paths = (
{
closed = 1;
nodes = (
"133 520 LINE",
"177 557 OFFCURVE",
"233 672 OFFCURVE",
"233 754 CURVE SMOOTH",
"233 796 OFFCURVE",
"201 844 OFFCURVE",
"154 844 CURVE SMOOTH",
"108 844 OFFCURVE",
"75 806 OFFCURVE",
"75 764 CURVE",
"75 738 OFFCURVE",
"96 708 OFFCURVE",
"116 696 CURVE",
"113 610 OFFCURVE",
"96 567 OFFCURVE",
"70 520 CURVE"
);
}
);
width = 273;
}
);
leftKerningGroup = quoteright;
rightKerningGroup = quoteright;
unicode = 2019;
userData = {
com.typemytype.robofont.mark = (
0.656,
1,
0.6,
1
);
};
},
{
color = 8;
glyphname = quotereversed;
lastChange = "2018-06-22 22:17:12 +0000";
layers = (
{
layerId = "12ECCE5E-04E9-4725-8BD5-31F21F15BB81";
paths = (
{
closed = 1;
nodes = (
"203 525 LINE",
"177 572 OFFCURVE",
"160 635 OFFCURVE",
"157 696 CURVE",
"177 708 OFFCURVE",
"198 738 OFFCURVE",
"198 764 CURVE",
"198 806 OFFCURVE",
"165 844 OFFCURVE",
"119 844 CURVE SMOOTH",
"72 844 OFFCURVE",
"40 796 OFFCURVE",
"40 754 CURVE SMOOTH",
"40 672 OFFCURVE",
"96 562 OFFCURVE",
"140 525 CURVE"
);
}
);
width = 273;
}
);
leftKerningGroup = quoteleft;
leftMetricsKey = quoteleft;
rightKerningGroup = quoteleft;
rightMetricsKey = quoteleft;
unicode = 201B;
},
{
glyphname = guilsinglleft;
lastChange = "2018-06-22 22:17:12 +0000";
layers = (
{
layerId = "12ECCE5E-04E9-4725-8BD5-31F21F15BB81";
paths = (
{
closed = 1;
nodes = (
"370 126 LINE",
"205 308 LINE",
"374 487 LINE",
"312 562 LINE",
"60 309 LINE",
"312 57 LINE"
);
}
);
width = 454;
}
);
leftKerningGroup = guilsinglleft;
rightKerningGroup = guilsinglleft;
unicode = 2039;
userData = {
com.typemytype.robofont.mark = (
0.656,
1,
0.6,
1
);
};
},
{
color = 8;
glyphname = quotesingle;
lastChange = "2018-06-22 20:31:04 +0000";
layers = (
{
layerId = "12ECCE5E-04E9-4725-8BD5-31F21F15BB81";
paths = (
{
closed = 1;
nodes = (
"144 545 LINE",
"174 844 LINE",
"68 844 LINE",
"45 545 LINE"
);
}
);
width = 219;
}
);
leftKerningGroup = quotesingle;
rightKerningGroup = quotesingle;
unicode = 0027;
userData = {
com.typemytype.robofont.mark = (
0.656,
1,
0.6,
1
);
};
},
{
glyphname = "leftanglebracket-math";
lastChange = "2018-06-22 18:32:31 +0000";
layers = (
{
layerId = "12ECCE5E-04E9-4725-8BD5-31F21F15BB81";
paths = (
{
closed = 1;
nodes = (
"323 -226 LINE",
"153 249 LINE",
"323 723 LINE",
"221 723 LINE",
"60 249 LINE",
"222 -226 LINE"
);
}
);
width = 383;
}
);
leftKerningGroup = "leftanglebracket-math";
rightKerningGroup = "leftanglebracket-math";
unicode = 27E8;
},
{
glyphname = "rightanglebracket-math";
lastChange = "2018-06-22 22:17:12 +0000";
layers = (
{
layerId = "12ECCE5E-04E9-4725-8BD5-31F21F15BB81";
paths = (
{
closed = 1;
nodes = (
"192 -226 LINE",
"353 248 LINE",
"201 723 LINE",
"90 723 LINE",
"260 249 LINE",
"90 -226 LINE"
);
}
);
width = 413;
}
);
leftKerningGroup = "rightanglebracket-math";
rightKerningGroup = "rightanglebracket-math";
unicode = 27E9;
},
{
glyphname = .notdef;
lastChange = "2018-06-22 18:32:31 +0000";
layers = (
{
layerId = "12ECCE5E-04E9-4725-8BD5-31F21F15BB81";
paths = (
{
closed = 1;
nodes = (
"778 0 LINE",
"778 691 LINE",
"86 691 LINE",
"86 0 LINE"
);
},
{
closed = 1;
nodes = (
"215 189 LINE",
"382 344 LINE",
"214 509 LINE",
"270 566 LINE",
"433 394 LINE",
"593 565 LINE",
"651 509 LINE",
"481 346 LINE",
"651 178 LINE",
"596 123 LINE",
"431 295 LINE",
"273 123 LINE"
);
}
);
width = 864;
}
);
leftKerningGroup = .notdef;
rightKerningGroup = .notdef;
},
{
glyphname = cedi;
lastChange = "2018-06-22 22:17:12 +0000";
layers = (
{
layerId = "12ECCE5E-04E9-4725-8BD5-31F21F15BB81";
paths = (
{
closed = 1;
nodes = (
"525 -10 OFFCURVE",
"610 13 OFFCURVE",
"634 31 CURVE",
"603 127 LINE",
"584 117 OFFCURVE",
"530 93 OFFCURVE",
"442 93 CURVE SMOOTH",
"290 93 OFFCURVE",
"185 201 OFFCURVE",
"185 374 CURVE SMOOTH",
"185 524 OFFCURVE",
"285 649 OFFCURVE",
"441 649 CURVE SMOOTH",
"521 649 OFFCURVE",
"581 617 OFFCURVE",
"597 602 CURVE",
"640 702 LINE",
"625 713 OFFCURVE",
"555 747 OFFCURVE",
"441 747 CURVE",
"223 747 OFFCURVE",
"64 585 OFFCURVE",
"64 368 CURVE SMOOTH",
"64 153 OFFCURVE",
"207 -10 OFFCURVE",
"449 -10 CURVE SMOOTH"
);
},
{
closed = 1;
nodes = (
"476 -126 LINE",
"476 855 LINE",
"380 855 LINE",
"380 -126 LINE"
);
}
);
width = 685;
}
);
leftKerningGroup = O;
leftMetricsKey = colonsign;
rightKerningGroup = C;
rightMetricsKey = colonsign;
unicode = 20B5;
},
{
glyphname = cent;
lastChange = "2018-06-22 22:17:12 +0000";
layers = (
{
layerId = "12ECCE5E-04E9-4725-8BD5-31F21F15BB81";
paths = (
{
closed = 1;
nodes = (
"327 -184 LINE",
"327 -12 LINE",
"396 -11 OFFCURVE",
"434 7 OFFCURVE",
"474 32 CURVE",
"425 117 LINE",
"398 95 OFFCURVE",
"369 80 OFFCURVE",
"327 79 CURVE",
"327 377 LINE",
"381 375 OFFCURVE",
"413 350 OFFCURVE",
"423 333 CURVE",
"484 418 LINE",
"459 439 OFFCURVE",
"407 467 OFFCURVE",
"327 469 CURVE",
"327 643 LINE",
"263 643 LINE",
"263 463 LINE",
"146 440 OFFCURVE",
"71 350 OFFCURVE",
"71 227 CURVE SMOOTH",
"71 114 OFFCURVE",
"134 16 OFFCURVE",
"263 -6 CURVE",
"263 -184 LINE"
);
},
{
closed = 1;
nodes = (
"212 111 OFFCURVE",
"186 163 OFFCURVE",
"186 233 CURVE SMOOTH",
"186 290 OFFCURVE",
"212 344 OFFCURVE",
"263 366 CURVE",
"263 90 LINE"
);
}
);
width = 555;
}
);
leftKerningGroup = o;
rightKerningGroup = c;
unicode = 00A2;
userData = {
com.typemytype.robofont.mark = (
0.656,
1,
0.6,
1
);
};
},
{
glyphname = colonsign;
lastChange = "2018-06-22 22:17:12 +0000";
layers = (
{
anchors = (
{
name = btm;
position = "{423, -10}";
},
{
name = top;
position = "{411, 725}";
}
);
layerId = "12ECCE5E-04E9-4725-8BD5-31F21F15BB81";
paths = (
{
closed = 1;
nodes = (
"525 -10 OFFCURVE",
"610 13 OFFCURVE",
"634 31 CURVE",
"603 127 LINE",
"584 117 OFFCURVE",
"530 93 OFFCURVE",
"442 93 CURVE SMOOTH",
"290 93 OFFCURVE",
"185 201 OFFCURVE",
"185 374 CURVE SMOOTH",
"185 524 OFFCURVE",
"285 649 OFFCURVE",
"441 649 CURVE SMOOTH",
"521 649 OFFCURVE",
"581 617 OFFCURVE",
"597 602 CURVE",
"640 702 LINE",
"625 713 OFFCURVE",
"555 747 OFFCURVE",
"441 747 CURVE",
"223 747 OFFCURVE",
"64 585 OFFCURVE",
"64 368 CURVE SMOOTH",
"64 153 OFFCURVE",
"207 -10 OFFCURVE",
"449 -10 CURVE SMOOTH"
);
},
{
closed = 1;
nodes = (
"279 -68 LINE",
"439 827 LINE",
"362 827 LINE",
"202 -68 LINE"
);
},
{
closed = 1;
nodes = (
"417 -68 LINE",
"578 827 LINE",
"501 827 LINE",
"340 -68 LINE"
);
}
);
width = 685;
}
);
leftKerningGroup = colonsign;
rightKerningGroup = colonsign;
unicode = 20A1;
userData = {
com.typemytype.robofont.mark = (
0.967,
0.6,
1,
1
);
};
},
{
glyphname = currency;
lastChange = "2018-06-22 22:22:34 +0000";
layers = (
{
layerId = "12ECCE5E-04E9-4725-8BD5-31F21F15BB81";
paths = (
{
closed = 1;
nodes = (
"226 72 LINE",
"255 56 OFFCURVE",
"289 47 OFFCURVE",
"323 47 CURVE SMOOTH",
"358 47 OFFCURVE",
"390 56 OFFCURVE",
"418 72 CURVE",
"489 2 LINE",
"559 73 LINE",
"490 143 LINE",
"503 168 OFFCURVE",
"511 198 OFFCURVE",
"511 231 CURVE SMOOTH",
"511 264 OFFCURVE",
"502 295 OFFCURVE",
"487 321 CURVE",
"559 394 LINE",
"489 465 LINE",
"414 390 LINE",
"387 404 OFFCURVE",
"355 412 OFFCURVE",
"323 412 CURVE SMOOTH",
"291 412 OFFCURVE",
"259 403 OFFCURVE",
"232 389 CURVE",
"157 465 LINE",
"87 394 LINE",
"158 321 LINE",
"144 295 OFFCURVE",
"135 264 OFFCURVE",
"135 231 CURVE SMOOTH",
"135 198 OFFCURVE",
"142 168 OFFCURVE",
"156 143 CURVE",
"87 73 LINE",
"157 2 LINE"
);
},
{
closed = 1;
nodes = (
"268 126 OFFCURVE",
"219 169 OFFCURVE",
"219 231 CURVE SMOOTH",
"219 292 OFFCURVE",
"269 333 OFFCURVE",
"323 333 CURVE SMOOTH",
"378 333 OFFCURVE",
"426 292 OFFCURVE",
"426 232 CURVE SMOOTH",
"426 169 OFFCURVE",
"378 126 OFFCURVE",
"323 126 CURVE SMOOTH"
);
}
);
width = 646;
}
);
leftKerningGroup = currency;
rightKerningGroup = currency;
unicode = 00A4;
userData = {
com.typemytype.robofont.mark = (
0.656,
1,
0.6,
1
);
};
},
{
glyphname = dollar;
lastChange = "2018-06-22 22:17:12 +0000";
layers = (
{
layerId = "12ECCE5E-04E9-4725-8BD5-31F21F15BB81";
paths = (
{
closed = 1;
nodes = (
"349 -108 LINE",
"349 -6 LINE",
"458 9 OFFCURVE",
"534 81 OFFCURVE",
"534 202 CURVE SMOOTH",
"534 263 OFFCURVE",
"509 307 OFFCURVE",
"474 340 CURVE SMOOTH",
"438 374 OFFCURVE",
"392 396 OFFCURVE",
"349 420 CURVE",
"349 642 LINE",
"396 637 OFFCURVE",
"436 615 OFFCURVE",
"456 594 CURVE",
"509 687 LINE",
"483 708 OFFCURVE",
"433 742 OFFCURVE",
"349 745 CURVE",
"349 844 LINE",
"286 844 LINE",
"286 742 LINE",
"187 728 OFFCURVE",
"112 664 OFFCURVE",
"112 549 CURVE SMOOTH",
"112 458 OFFCURVE",
"157 406 OFFCURVE",
"209 370 CURVE SMOOTH",
"234 353 OFFCURVE",
"261 339 OFFCURVE",
"286 326 CURVE",
"286 95 LINE",
"230 101 OFFCURVE",
"173 132 OFFCURVE",
"153 149 CURVE",
"101 52 LINE",
"131 23 OFFCURVE",
"207 -6 OFFCURVE",
"286 -9 CURVE",
"286 -108 LINE"
);
},
{
closed = 1;
nodes = (
"349 291 LINE",
"389 266 OFFCURVE",
"417 236 OFFCURVE",
"417 187 CURVE SMOOTH",
"417 142 OFFCURVE",
"389 113 OFFCURVE",
"349 101 CURVE"
);
},
{
closed = 1;
nodes = (
"250 481 OFFCURVE",
"224 510 OFFCURVE",
"224 552 CURVE SMOOTH",
"224 596 OFFCURVE",
"250 625 OFFCURVE",
"286 637 CURVE",
"286 456 LINE"
);
}
);
width = 636;
}
);
leftKerningGroup = dollar;
rightKerningGroup = dollar;
unicode = 0024;
userData = {
com.typemytype.robofont.mark = (
0.656,
1,
0.6,
1
);
};
},
{
glyphname = dong;
lastChange = "2018-06-22 22:17:12 +0000";
layers = (
{
anchors = (
{
name = btm;
position = "{287, -10}";
},
{
name = top;
position = "{234, 725}";
}
);
layerId = "12ECCE5E-04E9-4725-8BD5-31F21F15BB81";
paths = (
{
closed = 1;
nodes = (
"348 129 OFFCURVE",
"409 160 OFFCURVE",
"439 211 CURVE",
"439 139 LINE",
"547 139 LINE",
"547 760 LINE",
"439 760 LINE",
"439 475 LINE",
"422 516 OFFCURVE",
"359 561 OFFCURVE",
"277 561 CURVE SMOOTH",
"165 561 OFFCURVE",
"62 501 OFFCURVE",
"62 349 CURVE SMOOTH",
"62 200 OFFCURVE",
"172 129 OFFCURVE",
"282 129 CURVE SMOOTH"
);
},
{
closed = 1;
nodes = (
"604 0 LINE",
"604 78 LINE",
"92 78 LINE",
"92 0 LINE"
);
},
{
closed = 1;
nodes = (
"219 221 OFFCURVE",
"175 277 OFFCURVE",
"175 350 CURVE SMOOTH",
"175 422 OFFCURVE",
"213 470 OFFCURVE",
"286 470 CURVE SMOOTH",
"365 470 OFFCURVE",
"431 420 OFFCURVE",
"431 343 CURVE SMOOTH",
"431 266 OFFCURVE",
"368 221 OFFCURVE",
"291 221 CURVE SMOOTH"
);
},
{
closed = 1;
nodes = (
"623 609 LINE",
"642 679 LINE",
"356 679 LINE",
"337 609 LINE"
);
}
);
width = 646;
}
);
leftKerningGroup = dong;
rightKerningGroup = dong;
unicode = 20AB;
userData = {
com.typemytype.robofont.mark = (
0.967,
0.6,
1,
1
);
};
},
{
glyphname = euro;
lastChange = "2018-06-22 22:17:12 +0000";
layers = (
{
layerId = "12ECCE5E-04E9-4725-8BD5-31F21F15BB81";
paths = (
{
closed = 1;
nodes = (
"595 -8 OFFCURVE",
"667 15 OFFCURVE",
"694 47 CURVE",
"690 154 LINE",
"644 108 OFFCURVE",
"591 92 OFFCURVE",
"525 92 CURVE SMOOTH",
"414 92 OFFCURVE",
"334 155 OFFCURVE",
"298 253 CURVE",
"574 253 LINE",
"591 333 LINE",
"280 333 LINE",
"278 349 OFFCURVE",
"277 365 OFFCURVE",
"277 382 CURVE SMOOTH",
"277 392 OFFCURVE",
"277 401 OFFCURVE",
"278 412 CURVE",
"615 412 LINE",
"633 491 LINE",
"292 491 LINE",
"322 584 OFFCURVE",
"394 649 OFFCURVE",
"516 649 CURVE SMOOTH",
"589 649 OFFCURVE",
"639 622 OFFCURVE",
"692 579 CURVE",
"692 694 LINE",
"672 716 OFFCURVE",
"613 755 OFFCURVE",
"513 755 CURVE SMOOTH",
"342 755 OFFCURVE",
"212 646 OFFCURVE",
"168 491 CURVE",
"75 491 LINE",
"56 412 LINE",
"154 412 LINE",
"152 397 OFFCURVE",
"152 384 OFFCURVE",
"152 369 CURVE SMOOTH",
"152 357 OFFCURVE",
"152 345 OFFCURVE",
"153 333 CURVE",
"76 333 LINE",
"57 253 LINE",
"167 253 LINE",
"209 99 OFFCURVE",
"339 -8 OFFCURVE",
"523 -8 CURVE SMOOTH"
);
}
);
width = 797;
}
);
leftKerningGroup = euro;
rightKerningGroup = euro;
unicode = 20AC;
userData = {
com.typemytype.robofont.mark = (
0.656,
1,
0.6,
1
);
};
},
{
glyphname = florin;
lastChange = "2018-06-22 18:32:31 +0000";
layers = (
{
layerId = "12ECCE5E-04E9-4725-8BD5-31F21F15BB81";
paths = (
{
closed = 1;
nodes = (
"194 -92 LINE",
"243 368 LINE",
"358 368 LINE",
"367 459 LINE",
"252 459 LINE",
"264 562 LINE SMOOTH",
"272 638 OFFCURVE",
"311 650 OFFCURVE",
"348 650 CURVE SMOOTH",
"379 650 OFFCURVE",
"394 637 OFFCURVE",
"408 629 CURVE",
"438 728 LINE",
"429 732 OFFCURVE",
"398 747 OFFCURVE",
"358 747 CURVE SMOOTH",
"237 747 OFFCURVE",
"168 680 OFFCURVE",
"156 561 CURVE SMOOTH",
"145 459 LINE",
"65 459 LINE",
"55 368 LINE",
"135 368 LINE",
"85 -92 LINE"
);
}
);
width = 462;
}
);
leftKerningGroup = florin;
rightKerningGroup = florin;
unicode = 0192;
userData = {
com.typemytype.robofont.mark = (
0.967,
0.6,
1,
1
);
};
},
{
glyphname = franc;
lastChange = "2018-06-22 22:17:12 +0000";
layers = (
{
layerId = "12ECCE5E-04E9-4725-8BD5-31F21F15BB81";
paths = (
{
closed = 1;
nodes = (
"245 0 LINE",
"245 334 LINE",
"425 334 LINE",
"425 438 LINE",
"245 438 LINE",
"245 637 LINE",
"478 637 LINE",
"478 735 LINE",
"133 735 LINE",
"133 0 LINE"
);
},
{
closed = 1;
nodes = (
"339 125 LINE",
"355 206 LINE",
"56 206 LINE",
"37 125 LINE"
);
}
);
width = 531;
}
);
leftKerningGroup = franc;
rightKerningGroup = franc;
unicode = 20A3;
userData = {
com.typemytype.robofont.mark = (
0.967,
0.6,
1,
1
);
};
},
{
glyphname = guarani;
lastChange = "2018-06-22 18:32:31 +0000";
layers = (
{
components = (
{
name = G;
}
);
layerId = "12ECCE5E-04E9-4725-8BD5-31F21F15BB81";
paths = (
{
closed = 1;
nodes = (
"467 654 LINE",
"467 840 LINE",
"365 840 LINE",
"365 654 LINE"
);
},
{
closed = 1;
nodes = (
"467 -137 LINE",
"467 49 LINE",
"365 49 LINE",
"365 -137 LINE"
);
}
);
width = 744;
}
);
leftKerningGroup = O;
rightKerningGroup = G;
unicode = 20B2;
},
{
glyphname = kip;
lastChange = "2018-06-22 22:17:12 +0000";
layers = (
{
anchors = (
{
name = btm;
position = "{365, -10}";
},
{
name = top;
position = "{350, 725}";
}
);
background = {
paths = (
{
closed = 1;
nodes = (
"626 0 LINE",
"340 375 LINE",
"343 330 LINE",
"610 697 LINE",
"463 697 LINE",
"227 342 LINE",
"466 0 LINE"
);
},
{
closed = 1;
nodes = (
"236 0 LINE",
"236 697 LINE",
"114 697 LINE",
"114 0 LINE"
);
}
);
};
layerId = "12ECCE5E-04E9-4725-8BD5-31F21F15BB81";
paths = (
{
closed = 1;
nodes = (
"657 0 LINE",
"353 403 LINE",
"360 372 LINE",
"621 735 LINE",
"487 735 LINE",
"241 369 LINE",
"221 335 LINE",
"303 363 LINE",
"275 338 LINE",
"520 0 LINE"
);
},
{
closed = 1;
nodes = (
"235 0 LINE",
"235 735 LINE",
"125 735 LINE",
"125 0 LINE"
);
},
{
closed = 1;
nodes = (
"591 335 LINE",
"591 433 LINE",
"29 433 LINE",
"29 335 LINE"
);
}
);
width = 652;
}
);
leftKerningGroup = kip;
rightKerningGroup = kip;
unicode = 20AD;
},
{
glyphname = lira;
lastChange = "2019-08-20 23:15:36 +0000";
layers = (
{
layerId = "12ECCE5E-04E9-4725-8BD5-31F21F15BB81";
paths = (
{
closed = 1;
nodes = (
"606 0 LINE",
"606 99 LINE",
"268 99 LINE",
"303 166 OFFCURVE",
"324 247 OFFCURVE",
"324 321 CURVE SMOOTH",
"324 444 OFFCURVE",
"279 513 OFFCURVE",
"279 558 CURVE SMOOTH",
"279 646 OFFCURVE",
"345 673 OFFCURVE",
"412 673 CURVE SMOOTH",
"468 673 OFFCURVE",
"515 648 OFFCURVE",
"542 612 CURVE",
"597 712 LINE",
"561 749 OFFCURVE",
"491 780 OFFCURVE",
"405 780 CURVE SMOOTH",
"293 780 OFFCURVE",
"156 722 OFFCURVE",
"156 553 CURVE SMOOTH",
"156 496 OFFCURVE",
"201 446 OFFCURVE",
"211 308 CURVE SMOOTH",
"211 302 OFFCURVE",
"212 296 OFFCURVE",
"212 290 CURVE SMOOTH",
"212 191 OFFCURVE",
"151 79 OFFCURVE",
"101 0 CURVE"
);
},
{
closed = 1;
nodes = (
"473 226 LINE",
"490 306 LINE",
"76 306 LINE",
"57 226 LINE"
);
},
{
closed = 1;
nodes = (
"494 409 LINE",
"513 488 LINE",
"75 488 LINE",
"56 409 LINE"
);
}
);
width = 692;
}
);
leftKerningGroup = lira;
rightKerningGroup = lira;
unicode = 20A4;
userData = {
com.typemytype.robofont.mark = (
0.967,
0.6,
1,
1
);
};
},
{
glyphname = liraTurkish;
lastChange = "2018-06-22 18:32:31 +0000";
layers = (
{
layerId = "12ECCE5E-04E9-4725-8BD5-31F21F15BB81";
paths = (
{
closed = 1;
nodes = (
"263 0 LINE SMOOTH",
"422 0 OFFCURVE",
"582 44 OFFCURVE",
"582 273 CURVE",
"468 273 LINE",
"468 148 OFFCURVE",
"426 106 OFFCURVE",
"283 106 CURVE",
"283 268 LINE",
"425 351 LINE",
"425 440 LINE",
"283 358 LINE",
"283 475 LINE",
"435 561 LINE",
"435 651 LINE",
"283 564 LINE",
"283 735 LINE",
"166 735 LINE",
"166 508 LINE",
"58 447 LINE",
"58 357 LINE",
"166 418 LINE",
"166 301 LINE",
"63 242 LINE",
"63 152 LINE",
"166 211 LINE",
"166 0 LINE"
);
}
);
width = 600;
}
);
leftKerningGroup = liraTurkish;
rightKerningGroup = liraTurkish;
unicode = 20BA;
},
{
glyphname = manat;
lastChange = "2018-06-22 18:32:31 +0000";
layers = (
{
layerId = "12ECCE5E-04E9-4725-8BD5-31F21F15BB81";
paths = (
{
closed = 1;
nodes = (
"172 0 LINE",
"172 445 LINE SMOOTH",
"172 563 OFFCURVE",
"281 602 OFFCURVE",
"350 602 CURVE SMOOTH",
"420 602 OFFCURVE",
"531 563 OFFCURVE",
"531 445 CURVE SMOOTH",
"531 0 LINE",
"653 0 LINE",
"653 431 LINE SMOOTH",
"653 631 OFFCURVE",
"495 697 OFFCURVE",
"348 697 CURVE SMOOTH",
"215 697 OFFCURVE",
"50 631 OFFCURVE",
"50 431 CURVE SMOOTH",
"50 0 LINE"
);
},
{
closed = 1;
nodes = (
"410 109 LINE",
"410 830 LINE",
"290 830 LINE",
"290 109 LINE"
);
}
);
width = 703;
}
);
leftKerningGroup = manat;
rightKerningGroup = manat;
unicode = 20BC;
},
{
glyphname = naira;
lastChange = "2018-06-22 22:17:12 +0000";
layers = (
{
anchors = (
{
name = btm;
position = "{419, -10}";
},
{
name = top;
position = "{412, 725}";
}
);
background = {
paths = (
{
closed = 1;
nodes = (
"255 0 LINE",
"255 461 LINE",
"695 -18 LINE",
"695 735 LINE",
"582 735 LINE",
"582 267 LINE",
"143 753 LINE",
"143 0 LINE"
);
}
);
};
components = (
{
name = N;
transform = "{1, 0, 0, 1, 66, 0}";
}
);
layerId = "12ECCE5E-04E9-4725-8BD5-31F21F15BB81";
paths = (
{
closed = 1;
nodes = (
"801 461 LINE",
"820 541 LINE",
"49 541 LINE",
"30 461 LINE"
);
},
{
closed = 1;
nodes = (
"791 187 LINE",
"807 267 LINE",
"50 267 LINE",
"32 187 LINE"
);
}
);
width = 838;
}
);
leftKerningGroup = naira;
rightKerningGroup = naira;
unicode = 20A6;
userData = {
com.typemytype.robofont.guides = (
{
angle = 0;
isGlobal = 0;
magnetic = 5;
x = 0;
y = 1146;
}
);
com.typemytype.robofont.mark = (
0.967,
0.6,
1,
1
);
};
},
{
glyphname = peseta;
lastChange = "2018-06-22 22:17:12 +0000";
layers = (
{
anchors = (
{
name = btm;
position = "{385, -10}";
},
{
name = top;
position = "{385, 725}";
}
);
layerId = "12ECCE5E-04E9-4725-8BD5-31F21F15BB81";
paths = (
{
closed = 1;
nodes = (
"250 0 LINE",
"250 224 LINE",
"270 224 LINE SMOOTH",
"472 224 OFFCURVE",
"563 321 OFFCURVE",
"563 492 CURVE SMOOTH",
"563 634 OFFCURVE",
"479 735 OFFCURVE",
"271 735 CURVE SMOOTH",
"137 735 LINE",
"137 0 LINE"
);
},
{
closed = 1;
nodes = (
"250 637 LINE",
"294 637 LINE SMOOTH",
"417 637 OFFCURVE",
"450 561 OFFCURVE",
"450 479 CURVE SMOOTH",
"450 412 OFFCURVE",
"423 322 OFFCURVE",
"292 322 CURVE SMOOTH",
"250 322 LINE"
);
},
{
closed = 1;
nodes = (
"643 443 LINE",
"661 522 LINE",
"65 522 LINE",
"46 443 LINE"
);
}
);
width = 689;
}
);
leftKerningGroup = peseta;
rightKerningGroup = peseta;
unicode = 20A7;
userData = {
com.typemytype.robofont.mark = (
0.967,
0.6,
1,
1
);
};
},
{
glyphname = peso;
lastChange = "2018-06-22 22:17:12 +0000";
layers = (
{
anchors = (
{
name = btm;
position = "{445, -10}";
},
{
name = top;
position = "{445, 725}";
}
);
layerId = "12ECCE5E-04E9-4725-8BD5-31F21F15BB81";
paths = (
{
closed = 1;
nodes = (
"250 0 LINE",
"250 146 LINE",
"270 146 LINE SMOOTH",
"472 146 OFFCURVE",
"563 281 OFFCURVE",
"563 452 CURVE SMOOTH",
"563 594 OFFCURVE",
"479 735 OFFCURVE",
"271 735 CURVE SMOOTH",
"137 735 LINE",
"137 0 LINE"
);
},
{
closed = 1;
nodes = (
"638 323 LINE",
"654 403 LINE",
"63 403 LINE",
"44 323 LINE"
);
},
{
closed = 1;
nodes = (
"250 637 LINE",
"294 637 LINE SMOOTH",
"417 637 OFFCURVE",
"450 531 OFFCURVE",
"450 450 CURVE SMOOTH",
"450 352 OFFCURVE",
"423 245 OFFCURVE",
"292 245 CURVE SMOOTH",
"250 245 LINE"
);
},
{
closed = 1;
nodes = (
"648 489 LINE",
"667 569 LINE",
"62 569 LINE",
"43 489 LINE"
);
}
);
width = 689;
}
);
leftKerningGroup = peso;
rightKerningGroup = peso;
unicode = 20B1;
userData = {
com.typemytype.robofont.mark = (
0.967,
0.6,
1,
1
);
};
},
{
glyphname = ruble;
lastChange = "2018-06-22 22:17:12 +0000";
layers = (
{
layerId = "12ECCE5E-04E9-4725-8BD5-31F21F15BB81";
paths = (
{
closed = 1;
nodes = (
"250 0 LINE",
"250 224 LINE",
"270 224 LINE SMOOTH",
"472 224 OFFCURVE",
"563 321 OFFCURVE",
"563 492 CURVE SMOOTH",
"563 634 OFFCURVE",
"479 735 OFFCURVE",
"271 735 CURVE SMOOTH",
"137 735 LINE",
"137 0 LINE"
);
},
{
closed = 1;
nodes = (
"423 84 LINE",
"441 163 LINE",
"65 163 LINE",
"46 84 LINE"
);
},
{
closed = 1;
nodes = (
"191 232 LINE",
"209 321 LINE",
"53 321 LINE",
"34 232 LINE"
);
},
{
closed = 1;
nodes = (
"250 637 LINE",
"294 637 LINE SMOOTH",
"417 637 OFFCURVE",
"450 561 OFFCURVE",
"450 479 CURVE SMOOTH",
"450 412 OFFCURVE",
"433 322 OFFCURVE",
"292 322 CURVE SMOOTH",
"250 322 LINE"
);
}
);
width = 600;
}
);
leftKerningGroup = ruble;
rightKerningGroup = ruble;
unicode = 20BD;
},
{
glyphname = rupeeIndian;
lastChange = "2018-06-22 18:32:31 +0000";
layers = (
{
background = {
paths = (
{
closed = 1;
nodes = (
"43 431 LINE",
"648 431 LINE",
"667 511 LINE",
"62 511 LINE"
);
}
);
};
layerId = "12ECCE5E-04E9-4725-8BD5-31F21F15BB81";
paths = (
{
closed = 1;
nodes = (
"518 0 LINE",
"361 245 LINE",
"436 267 OFFCURVE",
"491 359 OFFCURVE",
"505 432 CURVE",
"584 432 LINE",
"584 511 LINE",
"508 511 LINE",
"503 552 OFFCURVE",
"467 623 OFFCURVE",
"439 641 CURVE",
"584 641 LINE",
"584 735 LINE",
"82 735 LINE",
"82 641 LINE",
"245 641 LINE SMOOTH",
"327 641 OFFCURVE",
"366 574 OFFCURVE",
"378 511 CURVE",
"82 511 LINE",
"82 432 LINE",
"376 432 LINE",
"362 385 OFFCURVE",
"325 323 OFFCURVE",
"267 317 CURVE",
"82 317 LINE",
"82 226 LINE",
"233 226 LINE",
"367 0 LINE"
);
}
);
width = 634;
}
);
leftKerningGroup = rupeeIndian;
rightKerningGroup = rupeeIndian;
unicode = 20B9;
},
{
color = 8;
glyphname = sheqel;
lastChange = "2018-06-22 22:17:12 +0000";
layers = (
{
layerId = "12ECCE5E-04E9-4725-8BD5-31F21F15BB81";
paths = (
{
closed = 1;
nodes = (
"749 0 LINE",
"749 735 LINE",
"649 735 LINE",
"649 91 LINE",
"444 91 LINE SMOOTH",
"360 91 OFFCURVE",
"355 130 OFFCURVE",
"355 200 CURVE SMOOTH",
"355 533 LINE",
"256 533 LINE",
"256 210 LINE SMOOTH",
"256 55 OFFCURVE",
"276 0 OFFCURVE",
"401 0 CURVE SMOOTH"
);
},
{
closed = 1;
nodes = (
"160 0 LINE",
"160 644 LINE",
"365 644 LINE",
"449 644 OFFCURVE",
"454 605 OFFCURVE",
"454 535 CURVE SMOOTH",
"454 203 LINE",
"553 203 LINE",
"553 525 LINE SMOOTH",
"553 681 OFFCURVE",
"513 735 OFFCURVE",
"408 735 CURVE",
"60 735 LINE",
"60 0 LINE"
);
}
);
width = 809;
}
);
leftKerningGroup = sheqel;
rightKerningGroup = sheqel;
unicode = 20AA;
},
{
glyphname = sterling;
lastChange = "2018-06-22 18:32:31 +0000";
layers = (
{
layerId = "12ECCE5E-04E9-4725-8BD5-31F21F15BB81";
paths = (
{
closed = 1;
nodes = (
"607 0 LINE",
"607 99 LINE",
"269 99 LINE",
"303 166 OFFCURVE",
"325 247 OFFCURVE",
"325 321 CURVE",
"513 321 LINE",
"513 417 LINE",
"310 417 LINE",
"298 461 OFFCURVE",
"280 516 OFFCURVE",
"280 558 CURVE SMOOTH",
"280 646 OFFCURVE",
"345 673 OFFCURVE",
"413 673 CURVE SMOOTH",
"469 673 OFFCURVE",
"515 648 OFFCURVE",
"542 612 CURVE",
"597 712 LINE",
"561 749 OFFCURVE",
"491 780 OFFCURVE",
"406 780 CURVE SMOOTH",
"294 780 OFFCURVE",
"156 722 OFFCURVE",
"156 553 CURVE SMOOTH",
"156 498 OFFCURVE",
"173 460 OFFCURVE",
"188 417 CURVE",
"100 417 LINE",
"100 321 LINE",
"210 321 LINE",
"211 308 LINE SMOOTH",
"218 204 OFFCURVE",
"154 84 OFFCURVE",
"102 0 CURVE"
);
}
);
width = 692;
}
);
leftKerningGroup = sterling;
rightKerningGroup = sterling;
unicode = 00A3;
userData = {
com.typemytype.robofont.mark = (
0.656,
1,
0.6,
1
);
};
},
{
glyphname = tugrik;
lastChange = "2018-06-22 18:32:31 +0000";
layers = (
{
layerId = "12ECCE5E-04E9-4725-8BD5-31F21F15BB81";
paths = (
{
closed = 1;
nodes = (
"320 0 LINE",
"320 164 LINE",
"422 211 LINE",
"422 302 LINE",
"320 254 LINE",
"320 359 LINE",
"432 413 LINE",
"432 502 LINE",
"320 449 LINE",
"320 622 LINE",
"481 622 LINE",
"481 735 LINE",
"30 735 LINE",
"30 622 LINE",
"194 622 LINE",
"194 389 LINE",
"86 338 LINE",
"86 248 LINE",
"194 299 LINE",
"194 192 LINE",
"91 143 LINE",
"91 53 LINE",
"194 102 LINE",
"194 0 LINE"
);
}
);
width = 511;
}
);
leftKerningGroup = tugrik;
rightKerningGroup = tugrik;
unicode = 20AE;
},
{
glyphname = won;
lastChange = "2018-06-22 22:17:12 +0000";
layers = (
{
anchors = (
{
name = btm;
position = "{589, -10}";
},
{
name = top;
position = "{592, 725}";
}
);
layerId = "12ECCE5E-04E9-4725-8BD5-31F21F15BB81";
paths = (
{
closed = 1;
nodes = (
"592 493 LINE",
"798 -14 LINE",
"1092 735 LINE",
"977 735 LINE",
"796 254 LINE",
"592 750 LINE",
"388 254 LINE",
"207 735 LINE",
"92 735 LINE",
"386 -14 LINE"
);
},
{
closed = 1;
nodes = (
"1117 454 LINE",
"1135 533 LINE",
"69 533 LINE",
"50 454 LINE"
);
}
);
width = 1185;
}
);
leftKerningGroup = won;
rightKerningGroup = won;
unicode = 20A9;
userData = {
com.typemytype.robofont.guides = (
{
angle = 90;
isGlobal = 0;
magnetic = 5;
x = 558;
y = 0;
}
);
};
},
{
color = 9;
glyphname = yen;
lastChange = "2018-06-22 22:17:12 +0000";
layers = (
{
layerId = "12ECCE5E-04E9-4725-8BD5-31F21F15BB81";
paths = (
{
closed = 1;
nodes = (
"399 0 LINE",
"399 132 LINE",
"599 132 LINE",
"599 213 LINE",
"399 213 LINE",
"399 322 LINE",
"599 322 LINE",
"599 401 LINE",
"447 401 LINE",
"653 735 LINE",
"517 735 LINE",
"343 424 LINE",
"169 735 LINE",
"32 735 LINE",
"240 401 LINE",
"87 401 LINE",
"87 322 LINE",
"287 322 LINE",
"287 213 LINE",
"87 213 LINE",
"87 132 LINE",
"287 132 LINE",
"287 0 LINE"
);
}
);
width = 686;
}
);
leftKerningGroup = yen;
rightKerningGroup = yen;
unicode = 00A5;
userData = {
com.typemytype.robofont.mark = (
0.656,
1,
0.6,
1
);
};
},
{
glyphname = bulletoperator;
lastChange = "2018-06-22 18:32:31 +0000";
layers = (
{
layerId = "12ECCE5E-04E9-4725-8BD5-31F21F15BB81";
paths = (
{
closed = 1;
nodes = (
"220 310 OFFCURVE",
"261 335 OFFCURVE",
"261 407 CURVE SMOOTH",
"261 476 OFFCURVE",
"219 505 OFFCURVE",
"168 505 CURVE SMOOTH",
"119 505 OFFCURVE",
"77 476 OFFCURVE",
"77 407 CURVE SMOOTH",
"77 335 OFFCURVE",
"118 310 OFFCURVE",
"168 310 CURVE SMOOTH"
);
}
);
width = 338;
}
);
leftKerningGroup = bulletoperator;
rightKerningGroup = bulletoperator;
unicode = 2219;
},
{
glyphname = commercialMinusSign;
lastChange = "2018-06-22 18:32:31 +0000";
layers = (
{
layerId = "12ECCE5E-04E9-4725-8BD5-31F21F15BB81";
paths = (
{
closed = 1;
nodes = (
"250 0 LINE",
"452 735 LINE",
"354 735 LINE",
"152 0 LINE"
);
},
{
closed = 1;
nodes = (
"509 0 OFFCURVE",
"550 25 OFFCURVE",
"550 97 CURVE SMOOTH",
"550 166 OFFCURVE",
"508 195 OFFCURVE",
"457 195 CURVE SMOOTH",
"408 195 OFFCURVE",
"366 166 OFFCURVE",
"366 97 CURVE SMOOTH",
"366 25 OFFCURVE",
"407 0 OFFCURVE",
"457 0 CURVE SMOOTH"
);
},
{
closed = 1;
nodes = (
"193 540 OFFCURVE",
"234 565 OFFCURVE",
"234 637 CURVE SMOOTH",
"234 706 OFFCURVE",
"192 735 OFFCURVE",
"141 735 CURVE SMOOTH",
"92 735 OFFCURVE",
"50 706 OFFCURVE",
"50 637 CURVE SMOOTH",
"50 565 OFFCURVE",
"91 540 OFFCURVE",
"141 540 CURVE SMOOTH"
);
}
);
width = 600;
}
);
leftKerningGroup = commercialMinusSign;
rightKerningGroup = commercialMinusSign;
unicode = 2052;
},
{
glyphname = divisionslash;
lastChange = "2018-06-22 18:32:31 +0000";
layers = (
{
layerId = "12ECCE5E-04E9-4725-8BD5-31F21F15BB81";
paths = (
{
closed = 1;
nodes = (
"304 735 LINE",
"206 735 LINE",
"34 1 LINE",
"132 0 LINE"
);
}
);
width = 338;
}
);
leftKerningGroup = divisionslash;
rightKerningGroup = divisionslash;
unicode = 2215;
},
{
glyphname = plus;
lastChange = "2018-06-22 22:17:12 +0000";
layers = (
{
layerId = "12ECCE5E-04E9-4725-8BD5-31F21F15BB81";
paths = (
{
closed = 1;
nodes = (
"371 92 LINE",
"371 276 LINE",
"561 276 LINE",
"561 368 LINE",
"371 368 LINE",
"371 552 LINE",
"274 552 LINE",
"274 368 LINE",
"85 368 LINE",
"85 276 LINE",
"274 276 LINE",
"274 92 LINE"
);
}
);
width = 647;
}
);
leftKerningGroup = plus;
rightKerningGroup = plus;
unicode = 002B;
userData = {
com.typemytype.robofont.mark = (
0.656,
1,
0.6,
1
);
};
},
{
glyphname = minus;
lastChange = "2018-06-22 18:32:31 +0000";
layers = (
{
layerId = "12ECCE5E-04E9-4725-8BD5-31F21F15BB81";
paths = (
{
closed = 1;
nodes = (
"463 203 LINE",
"463 299 LINE",
"106 299 LINE",
"106 203 LINE"
);
}
);
width = 569;
}
);
leftKerningGroup = minus;
rightKerningGroup = minus;
unicode = 2212;
userData = {
com.typemytype.robofont.mark = (
0.656,
1,
0.6,
1
);
};
},
{
glyphname = multiply;
lastChange = "2018-06-22 22:17:12 +0000";
layers = (
{
layerId = "12ECCE5E-04E9-4725-8BD5-31F21F15BB81";
paths = (
{
closed = 1;
nodes = (
"539 169 LINE",
"389 318 LINE",
"534 463 LINE",
"466 531 LINE",
"321 387 LINE",
"173 535 LINE",
"107 470 LINE",
"256 321 LINE",
"111 177 LINE",
"179 108 LINE",
"324 253 LINE",
"474 104 LINE"
);
}
);
width = 646;
}
);
leftKerningGroup = multiply;
rightKerningGroup = multiply;
unicode = 00D7;
userData = {
com.typemytype.robofont.guides = (
{
angle = 90;
isGlobal = 0;
magnetic = 5;
x = 209;
y = 0;
}
);
com.typemytype.robofont.mark = (
0.656,
1,
0.6,
1
);
};
},
{
glyphname = divide;
lastChange = "2018-06-22 22:17:12 +0000";
layers = (
{
layerId = "12ECCE5E-04E9-4725-8BD5-31F21F15BB81";
paths = (
{
closed = 1;
nodes = (
"463 276 LINE",
"463 368 LINE",
"91 368 LINE",
"91 276 LINE"
);
},
{
closed = 1;
nodes = (
"317 39 OFFCURVE",
"350 71 OFFCURVE",
"350 111 CURVE SMOOTH",
"350 151 OFFCURVE",
"318 184 OFFCURVE",
"277 184 CURVE SMOOTH",
"236 184 OFFCURVE",
"205 151 OFFCURVE",
"205 111 CURVE SMOOTH",
"205 71 OFFCURVE",
"236 39 OFFCURVE",
"277 39 CURVE SMOOTH"
);
},
{
closed = 1;
nodes = (
"317 459 OFFCURVE",
"350 493 OFFCURVE",
"350 531 CURVE SMOOTH",
"350 572 OFFCURVE",
"318 605 OFFCURVE",
"277 605 CURVE SMOOTH",
"236 605 OFFCURVE",
"205 572 OFFCURVE",
"205 531 CURVE SMOOTH",
"205 493 OFFCURVE",
"236 459 OFFCURVE",
"277 459 CURVE SMOOTH"
);
}
);
width = 555;
}
);
leftKerningGroup = divide;
rightKerningGroup = divide;
unicode = 00F7;
userData = {
com.typemytype.robofont.mark = (
0.656,
1,
0.6,
1
);
};
},
{
glyphname = equal;
lastChange = "2018-06-22 18:32:31 +0000";
layers = (
{
layerId = "12ECCE5E-04E9-4725-8BD5-31F21F15BB81";
paths = (
{
closed = 1;
nodes = (
"463 149 LINE",
"463 242 LINE",
"91 242 LINE",
"91 149 LINE"
);
},
{
closed = 1;
nodes = (
"463 368 LINE",
"463 459 LINE",
"91 459 LINE",
"91 368 LINE"
);
}
);
width = 555;
}
);
leftKerningGroup = equal;
rightKerningGroup = equal;
unicode = 003D;
userData = {
com.typemytype.robofont.mark = (
0.656,
1,
0.6,
1
);
};
},
{
glyphname = notequal;
lastChange = "2018-06-22 18:32:31 +0000";
layers = (
{
components = (
{
name = equal;
}
);
layerId = "12ECCE5E-04E9-4725-8BD5-31F21F15BB81";
paths = (
{
closed = 1;
nodes = (
"233 60 LINE",
"280 184 LINE",
"300 227 LINE",
"361 390 LINE",
"383 440 LINE",
"425 552 LINE",
"329 552 LINE",
"282 440 LINE",
"263 390 LINE",
"203 227 LINE",
"183 184 LINE",
"135 60 LINE"
);
}
);
width = 555;
}
);
leftKerningGroup = notequal;
rightKerningGroup = notequal;
unicode = 2260;
userData = {
com.typemytype.robofont.mark = (
0.967,
0.6,
1,
1
);
};
},
{
glyphname = less;
lastChange = "2018-06-22 22:17:12 +0000";
layers = (
{
layerId = "12ECCE5E-04E9-4725-8BD5-31F21F15BB81";
paths = (
{
closed = 1;
nodes = (
"552 102 LINE",
"192 232 LINE",
"552 359 LINE",
"552 471 LINE",
"93 290 LINE",
"93 181 LINE",
"552 -9 LINE"
);
}
);
width = 646;
}
);
leftKerningGroup = less;
rightKerningGroup = less;
unicode = 003C;
userData = {
com.typemytype.robofont.mark = (
0.656,
1,
0.6,
1
);
};
},
{
glyphname = lessequal;
lastChange = "2018-06-22 22:17:12 +0000";
layers = (
{
layerId = "12ECCE5E-04E9-4725-8BD5-31F21F15BB81";
paths = (
{
closed = 1;
nodes = (
"551 287 LINE",
"192 417 LINE",
"551 544 LINE",
"551 657 LINE",
"92 475 LINE",
"92 365 LINE",
"551 175 LINE"
);
},
{
closed = 1;
nodes = (
"552 0 LINE",
"552 98 LINE",
"94 98 LINE",
"94 0 LINE"
);
}
);
width = 646;
}
);
leftKerningGroup = lessequal;
rightKerningGroup = lessequal;
unicode = 2264;
userData = {
com.typemytype.robofont.mark = (
0.967,
0.6,
1,
1
);
};
},
{
glyphname = plusminus;
lastChange = "2018-06-22 18:32:31 +0000";
layers = (
{
layerId = "12ECCE5E-04E9-4725-8BD5-31F21F15BB81";
paths = (
{
closed = 1;
nodes = (
"561 0 LINE",
"561 92 LINE",
"371 92 LINE",
"371 276 LINE",
"561 276 LINE",
"561 368 LINE",
"371 368 LINE",
"371 552 LINE",
"274 552 LINE",
"274 368 LINE",
"85 368 LINE",
"85 276 LINE",
"274 276 LINE",
"274 92 LINE",
"85 92 LINE",
"85 0 LINE"
);
}
);
width = 647;
}
);
leftKerningGroup = plusminus;
rightKerningGroup = plusminus;
unicode = 00B1;
userData = {
com.typemytype.robofont.mark = (
0.656,
1,
0.6,
1
);
};
},
{
glyphname = logicalnot;
lastChange = "2018-06-22 22:17:12 +0000";
layers = (
{
layerId = "12ECCE5E-04E9-4725-8BD5-31F21F15BB81";
paths = (
{
closed = 1;
nodes = (
"699 92 LINE",
"699 367 LINE",
"94 367 LINE",
"94 275 LINE",
"598 275 LINE",
"598 92 LINE"
);
}
);
width = 828;
}
);
leftKerningGroup = logicalnot;
rightKerningGroup = logicalnot;
unicode = 00AC;
userData = {
com.typemytype.robofont.mark = (
0.656,
1,
0.6,
1
);
};
},
{
glyphname = asciitilde;
lastChange = "2018-06-22 22:17:12 +0000";
layers = (
{
layerId = "12ECCE5E-04E9-4725-8BD5-31F21F15BB81";
paths = (
{
closed = 1;
nodes = (
"436 182 OFFCURVE",
"487 227 OFFCURVE",
"500 267 CURVE",
"454 333 LINE",
"430 295 OFFCURVE",
"391 281 OFFCURVE",
"362 281 CURVE SMOOTH",
"306 281 OFFCURVE",
"293 354 OFFCURVE",
"200 354 CURVE SMOOTH",
"120 354 OFFCURVE",
"70 303 OFFCURVE",
"57 271 CURVE",
"103 204 LINE",
"127 243 OFFCURVE",
"166 255 OFFCURVE",
"195 255 CURVE SMOOTH",
"251 255 OFFCURVE",
"263 182 OFFCURVE",
"357 182 CURVE SMOOTH"
);
}
);
width = 554;
}
);
leftKerningGroup = asciitilde;
rightKerningGroup = asciitilde;
unicode = 007E;
userData = {
com.typemytype.robofont.mark = (
0.656,
1,
0.6,
1
);
};
},
{
glyphname = asciicircum;
lastChange = "2018-06-22 18:32:31 +0000";
layers = (
{
layerId = "12ECCE5E-04E9-4725-8BD5-31F21F15BB81";
paths = (
{
closed = 1;
nodes = (
"161 276 LINE",
"323 602 LINE",
"485 276 LINE",
"589 276 LINE",
"371 747 LINE",
"273 747 LINE",
"56 276 LINE"
);
}
);
width = 646;
}
);
leftKerningGroup = asciicircum;
rightKerningGroup = asciicircum;
unicode = 005E;
userData = {
com.typemytype.robofont.mark = (
0.656,
1,
0.6,
1
);
};
},
{
glyphname = infinity;
lastChange = "2018-06-22 22:17:12 +0000";
layers = (
{
layerId = "12ECCE5E-04E9-4725-8BD5-31F21F15BB81";
paths = (
{
closed = 1;
nodes = (
"428 145 OFFCURVE",
"506 207 OFFCURVE",
"555 276 CURVE",
"617 206 OFFCURVE",
"688 145 OFFCURVE",
"784 145 CURVE SMOOTH",
"948 145 OFFCURVE",
"1019 258 OFFCURVE",
"1019 365 CURVE SMOOTH",
"1019 479 OFFCURVE",
"945 588 OFFCURVE",
"784 588 CURVE SMOOTH",
"692 588 OFFCURVE",
"604 518 OFFCURVE",
"556 443 CURVE",
"493 519 OFFCURVE",
"420 588 OFFCURVE",
"318 588 CURVE SMOOTH",
"155 588 OFFCURVE",
"84 475 OFFCURVE",
"84 367 CURVE SMOOTH",
"84 253 OFFCURVE",
"158 145 OFFCURVE",
"318 145 CURVE SMOOTH"
);
},
{
closed = 1;
nodes = (
"242 247 OFFCURVE",
"195 304 OFFCURVE",
"195 361 CURVE SMOOTH",
"195 425 OFFCURVE",
"236 482 OFFCURVE",
"313 482 CURVE SMOOTH",
"380 482 OFFCURVE",
"435 420 OFFCURVE",
"493 349 CURVE",
"455 292 OFFCURVE",
"376 247 OFFCURVE",
"318 247 CURVE SMOOTH"
);
},
{
closed = 1;
nodes = (
"723 250 OFFCURVE",
"671 303 OFFCURVE",
"618 367 CURVE",
"649 429 OFFCURVE",
"722 486 OFFCURVE",
"784 486 CURVE SMOOTH",
"861 486 OFFCURVE",
"909 429 OFFCURVE",
"909 371 CURVE SMOOTH",
"909 307 OFFCURVE",
"866 250 OFFCURVE",
"790 250 CURVE SMOOTH"
);
}
);
width = 1103;
}
);
leftKerningGroup = infinity;
rightKerningGroup = infinity;
unicode = 221E;
userData = {
com.typemytype.robofont.mark = (
0.6,
0.986,
1,
1
);
};
},
{
glyphname = emptyset;
lastChange = "2018-06-22 22:17:12 +0000";
layers = (
{
layerId = "12ECCE5E-04E9-4725-8BD5-31F21F15BB81";
paths = (
{
closed = 1;
nodes = (
"175 0 LINE",
"723 697 LINE",
"623 697 LINE",
"75 0 LINE"
);
},
{
closed = 1;
nodes = (
"583 27 OFFCURVE",
"720 167 OFFCURVE",
"720 349 CURVE SMOOTH",
"720 531 OFFCURVE",
"583 671 OFFCURVE",
"405 671 CURVE SMOOTH",
"227 671 OFFCURVE",
"89 531 OFFCURVE",
"89 349 CURVE SMOOTH",
"89 167 OFFCURVE",
"230 27 OFFCURVE",
"405 27 CURVE SMOOTH"
);
},
{
closed = 1;
nodes = (
"284 132 OFFCURVE",
"201 232 OFFCURVE",
"201 349 CURVE SMOOTH",
"201 466 OFFCURVE",
"284 566 OFFCURVE",
"405 566 CURVE SMOOTH",
"526 566 OFFCURVE",
"609 466 OFFCURVE",
"609 349 CURVE SMOOTH",
"609 232 OFFCURVE",
"526 132 OFFCURVE",
"405 132 CURVE SMOOTH"
);
}
);
width = 798;
}
);
leftKerningGroup = emptyset;
rightKerningGroup = emptyset;
unicode = 2205;
userData = {
com.typemytype.robofont.mark = (
0.6,
0.609,
1,
1
);
};
},
{
glyphname = integral;
lastChange = "2018-06-22 22:17:12 +0000";
layers = (
{
layerId = "12ECCE5E-04E9-4725-8BD5-31F21F15BB81";
paths = (
{
closed = 1;
nodes = (
"210 -184 OFFCURVE",
"245 -86 OFFCURVE",
"252 5 CURVE SMOOTH",
"317 744 LINE SMOOTH",
"322 805 OFFCURVE",
"342 838 OFFCURVE",
"409 838 CURVE SMOOTH",
"424 838 OFFCURVE",
"446 836 OFFCURVE",
"458 832 CURVE",
"465 915 LINE",
"451 918 OFFCURVE",
"432 919 OFFCURVE",
"417 919 CURVE SMOOTH",
"250 919 OFFCURVE",
"216 820 OFFCURVE",
"208 730 CURVE SMOOTH",
"144 -9 LINE",
"138 -70 OFFCURVE",
"118 -104 OFFCURVE",
"51 -104 CURVE SMOOTH",
"37 -104 OFFCURVE",
"13 -101 OFFCURVE",
"2 -98 CURVE",
"-5 -180 LINE",
"8 -183 OFFCURVE",
"29 -184 OFFCURVE",
"43 -184 CURVE SMOOTH"
);
}
);
width = 460;
}
);
leftKerningGroup = integral;
rightKerningGroup = integral;
unicode = 222B;
userData = {
com.typemytype.robofont.mark = (
0.6,
0.986,
1,
1
);
};
},
{
glyphname = Ohm;
lastChange = "2018-06-22 18:32:31 +0000";
layers = (
{
layerId = "12ECCE5E-04E9-4725-8BD5-31F21F15BB81";
paths = (
{
closed = 1;
nodes = (
"402 0 LINE",
"402 79 LINE",
"272 180 OFFCURVE",
"246 290 OFFCURVE",
"246 394 CURVE SMOOTH",
"246 541 OFFCURVE",
"310 641 OFFCURVE",
"461 641 CURVE SMOOTH",
"613 641 OFFCURVE",
"678 541 OFFCURVE",
"678 394 CURVE SMOOTH",
"678 290 OFFCURVE",
"651 180 OFFCURVE",
"521 79 CURVE",
"521 0 LINE",
"817 0 LINE",
"817 99 LINE",
"678 99 LINE",
"750 164 OFFCURVE",
"804 264 OFFCURVE",
"804 394 CURVE SMOOTH",
"804 630 OFFCURVE",
"637 747 OFFCURVE",
"461 747 CURVE SMOOTH",
"287 747 OFFCURVE",
"119 630 OFFCURVE",
"119 394 CURVE SMOOTH",
"119 264 OFFCURVE",
"174 164 OFFCURVE",
"246 99 CURVE",
"106 99 LINE",
"106 0 LINE"
);
}
);
width = 923;
}
);
leftKerningGroup = Omega;
rightKerningGroup = Omega;
unicode = 2126;
},
{
glyphname = increment;
lastChange = "2018-06-22 18:32:31 +0000";
layers = (
{
layerId = "12ECCE5E-04E9-4725-8BD5-31F21F15BB81";
paths = (
{
closed = 1;
nodes = (
"761 0 LINE",
"416 758 LINE",
"69 0 LINE"
);
},
{
closed = 1;
nodes = (
"416 528 LINE",
"602 96 LINE",
"228 96 LINE"
);
}
);
width = 830;
}
);
leftKerningGroup = A;
rightKerningGroup = A;
unicode = 2206;
userData = {
com.typemytype.robofont.guides = (
{
angle = 0;
isGlobal = 0;
magnetic = 5;
x = 0;
y = 52;
}
);
};
},
{
color = 8;
glyphname = product;
lastChange = "2018-06-22 21:04:46 +0000";
layers = (
{
anchors = (
{
name = btm;
position = "{323, -10}";
},
{
name = top;
position = "{323, 725}";
}
);
layerId = "12ECCE5E-04E9-4725-8BD5-31F21F15BB81";
paths = (
{
closed = 1;
nodes = (
"196 -154 LINE",
"196 638 LINE",
"451 638 LINE",
"451 -154 LINE",
"563 -154 LINE",
"563 735 LINE",
"83 735 LINE",
"83 -154 LINE"
);
}
);
width = 647;
}
);
leftKerningGroup = product;
rightKerningGroup = product;
unicode = 220F;
userData = {
com.typemytype.robofont.mark = (
0.6,
0.986,
1,
1
);
};
},
{
color = 8;
glyphname = summation;
lastChange = "2018-06-22 21:04:46 +0000";
layers = (
{
layerId = "12ECCE5E-04E9-4725-8BD5-31F21F15BB81";
paths = (
{
closed = 1;
nodes = (
"586 -154 LINE",
"586 -62 LINE",
"214 -62 LINE",
"444 275 LINE",
"224 643 LINE",
"586 643 LINE",
"586 735 LINE",
"54 735 LINE",
"325 275 LINE",
"54 -154 LINE"
);
}
);
width = 647;
}
);
leftKerningGroup = summation;
rightKerningGroup = summation;
unicode = 2211;
userData = {
com.typemytype.robofont.mark = (
0.6,
0.986,
1,
1
);
};
},
{
glyphname = radical;
lastChange = "2018-06-22 22:17:12 +0000";
layers = (
{
layerId = "12ECCE5E-04E9-4725-8BD5-31F21F15BB81";
paths = (
{
closed = 1;
nodes = (
"733 919 LINE",
"623 919 LINE",
"376 171 LINE",
"255 459 LINE",
"66 459 LINE",
"66 353 LINE",
"188 353 LINE",
"389 -104 LINE"
);
}
);
width = 736;
}
);
leftKerningGroup = radical;
rightKerningGroup = radical;
unicode = 221A;
userData = {
com.typemytype.robofont.mark = (
0.6,
0.986,
1,
1
);
};
},
{
glyphname = micro;
lastChange = "2018-06-22 18:32:31 +0000";
layers = (
{
layerId = "12ECCE5E-04E9-4725-8BD5-31F21F15BB81";
paths = (
{
closed = 1;
nodes = (
"217 -173 LINE",
"217 9 LINE",
"238 -7 OFFCURVE",
"266 -15 OFFCURVE",
"294 -15 CURVE SMOOTH",
"352 -15 OFFCURVE",
"399 17 OFFCURVE",
"429 56 CURVE",
"429 -7 LINE",
"541 -7 LINE",
"541 463 LINE",
"429 463 LINE",
"429 228 LINE SMOOTH",
"429 123 OFFCURVE",
"389 81 OFFCURVE",
"313 81 CURVE SMOOTH",
"233 81 OFFCURVE",
"219 129 OFFCURVE",
"217 216 CURVE SMOOTH",
"213 463 LINE",
"103 463 LINE",
"106 -173 LINE"
);
}
);
width = 646;
}
);
leftKerningGroup = micro;
rightKerningGroup = micro;
unicode = 00B5;
},
{
glyphname = partialdiff;
lastChange = "2018-06-22 22:17:12 +0000";
layers = (
{
layerId = "12ECCE5E-04E9-4725-8BD5-31F21F15BB81";
paths = (
{
closed = 1;
nodes = (
"475 -9 OFFCURVE",
"569 108 OFFCURVE",
"569 314 CURVE SMOOTH",
"569 650 OFFCURVE",
"405 747 OFFCURVE",
"261 747 CURVE SMOOTH",
"207 747 OFFCURVE",
"157 733 OFFCURVE",
"118 714 CURVE",
"158 638 LINE",
"184 648 OFFCURVE",
"215 654 OFFCURVE",
"247 654 CURVE SMOOTH",
"332 654 OFFCURVE",
"423 607 OFFCURVE",
"451 440 CURVE",
"419 457 OFFCURVE",
"374 471 OFFCURVE",
"308 471 CURVE SMOOTH",
"179 471 OFFCURVE",
"65 378 OFFCURVE",
"65 229 CURVE",
"65 88 OFFCURVE",
"169 -9 OFFCURVE",
"318 -9 CURVE SMOOTH"
);
},
{
closed = 1;
nodes = (
"243 83 OFFCURVE",
"180 138 OFFCURVE",
"180 229 CURVE",
"180 320 OFFCURVE",
"233 379 OFFCURVE",
"309 379 CURVE SMOOTH",
"389 379 OFFCURVE",
"435 361 OFFCURVE",
"459 347 CURVE",
"459 341 OFFCURVE",
"459 334 OFFCURVE",
"459 327 CURVE SMOOTH",
"459 151 OFFCURVE",
"395 83 OFFCURVE",
"318 83 CURVE SMOOTH"
);
}
);
width = 648;
}
);
leftKerningGroup = partialdiff;
rightKerningGroup = partialdiff;
unicode = 2202;
userData = {
com.typemytype.robofont.mark = (
0.6,
0.986,
1,
1
);
};
},
{
color = 8;
glyphname = percent;
lastChange = "2018-06-22 22:17:12 +0000";
layers = (
{
layerId = "12ECCE5E-04E9-4725-8BD5-31F21F15BB81";
paths = (
{
closed = 1;
nodes = (
"308 2 LINE",
"719 713 LINE",
"616 713 LINE",
"203 2 LINE"
);
},
{
closed = 1;
nodes = (
"320 357 OFFCURVE",
"386 421 OFFCURVE",
"386 533 CURVE SMOOTH",
"386 643 OFFCURVE",
"320 712 OFFCURVE",
"225 712 CURVE SMOOTH",
"127 712 OFFCURVE",
"60 643 OFFCURVE",
"60 533 CURVE SMOOTH",
"60 421 OFFCURVE",
"127 357 OFFCURVE",
"225 357 CURVE SMOOTH"
);
},
{
closed = 1;
nodes = (
"179 438 OFFCURVE",
"151 474 OFFCURVE",
"151 533 CURVE SMOOTH",
"151 593 OFFCURVE",
"179 630 OFFCURVE",
"225 630 CURVE SMOOTH",
"269 630 OFFCURVE",
"295 593 OFFCURVE",
"295 533 CURVE SMOOTH",
"295 474 OFFCURVE",
"269 438 OFFCURVE",
"225 438 CURVE SMOOTH"
);
},
{
closed = 1;
nodes = (
"814 2 OFFCURVE",
"879 66 OFFCURVE",
"879 179 CURVE SMOOTH",
"879 289 OFFCURVE",
"814 357 OFFCURVE",
"718 357 CURVE SMOOTH",
"620 357 OFFCURVE",
"553 289 OFFCURVE",
"553 179 CURVE SMOOTH",
"553 66 OFFCURVE",
"620 2 OFFCURVE",
"718 2 CURVE SMOOTH"
);
},
{
closed = 1;
nodes = (
"672 83 OFFCURVE",
"645 119 OFFCURVE",
"645 179 CURVE SMOOTH",
"645 238 OFFCURVE",
"672 275 OFFCURVE",
"718 275 CURVE SMOOTH",
"763 275 OFFCURVE",
"789 238 OFFCURVE",
"789 179 CURVE SMOOTH",
"789 119 OFFCURVE",
"763 83 OFFCURVE",
"718 83 CURVE SMOOTH"
);
}
);
width = 939;
}
);
leftKerningGroup = percent;
rightKerningGroup = percent;
unicode = 0025;
userData = {
com.typemytype.robofont.mark = (
0.656,
1,
0.6,
1
);
};
},
{
color = 8;
glyphname = perthousand;
lastChange = "2018-06-22 22:17:12 +0000";
layers = (
{
layerId = "12ECCE5E-04E9-4725-8BD5-31F21F15BB81";
paths = (
{
closed = 1;
nodes = (
"308 2 LINE",
"719 713 LINE",
"616 713 LINE",
"203 2 LINE"
);
},
{
closed = 1;
nodes = (
"320 357 OFFCURVE",
"386 421 OFFCURVE",
"386 533 CURVE SMOOTH",
"386 643 OFFCURVE",
"320 712 OFFCURVE",
"225 712 CURVE SMOOTH",
"127 712 OFFCURVE",
"60 643 OFFCURVE",
"60 533 CURVE SMOOTH",
"60 421 OFFCURVE",
"127 357 OFFCURVE",
"225 357 CURVE SMOOTH"
);
},
{
closed = 1;
nodes = (
"179 438 OFFCURVE",
"151 474 OFFCURVE",
"151 533 CURVE SMOOTH",
"151 593 OFFCURVE",
"179 630 OFFCURVE",
"225 630 CURVE SMOOTH",
"269 630 OFFCURVE",
"295 593 OFFCURVE",
"295 533 CURVE SMOOTH",
"295 474 OFFCURVE",
"269 438 OFFCURVE",
"225 438 CURVE SMOOTH"
);
},
{
closed = 1;
nodes = (
"814 2 OFFCURVE",
"879 66 OFFCURVE",
"879 179 CURVE SMOOTH",
"879 289 OFFCURVE",
"814 357 OFFCURVE",
"718 357 CURVE SMOOTH",
"620 357 OFFCURVE",
"553 289 OFFCURVE",
"553 179 CURVE SMOOTH",
"553 66 OFFCURVE",
"620 2 OFFCURVE",
"718 2 CURVE SMOOTH"
);
},
{
closed = 1;
nodes = (
"672 83 OFFCURVE",
"645 119 OFFCURVE",
"645 179 CURVE SMOOTH",
"645 238 OFFCURVE",
"672 275 OFFCURVE",
"718 275 CURVE SMOOTH",
"763 275 OFFCURVE",
"789 238 OFFCURVE",
"789 179 CURVE SMOOTH",
"789 119 OFFCURVE",
"763 83 OFFCURVE",
"718 83 CURVE SMOOTH"
);
},
{
closed = 1;
nodes = (
"1208 2 OFFCURVE",
"1273 66 OFFCURVE",
"1273 179 CURVE SMOOTH",
"1273 289 OFFCURVE",
"1208 357 OFFCURVE",
"1112 357 CURVE SMOOTH",
"1014 357 OFFCURVE",
"947 289 OFFCURVE",
"947 179 CURVE SMOOTH",
"947 66 OFFCURVE",
"1014 2 OFFCURVE",
"1112 2 CURVE SMOOTH"
);
},
{
closed = 1;
nodes = (
"1066 83 OFFCURVE",
"1039 119 OFFCURVE",
"1039 179 CURVE SMOOTH",
"1039 238 OFFCURVE",
"1066 275 OFFCURVE",
"1112 275 CURVE SMOOTH",
"1157 275 OFFCURVE",
"1183 238 OFFCURVE",
"1183 179 CURVE SMOOTH",
"1183 119 OFFCURVE",
"1157 83 OFFCURVE",
"1112 83 CURVE SMOOTH"
);
}
);
width = 1333;
}
);
leftKerningGroup = percent;
leftMetricsKey = percent;
rightKerningGroup = percent;
rightMetricsKey = percent;
unicode = 2030;
userData = {
com.typemytype.robofont.mark = (
0.967,
0.6,
1,
1
);
};
},
{
glyphname = upArrow;
lastChange = "2018-06-22 22:17:12 +0000";
layers = (
{
layerId = "12ECCE5E-04E9-4725-8BD5-31F21F15BB81";
paths = (
{
closed = 1;
nodes = (
"421 71 LINE",
"421 505 LINE",
"415 564 LINE",
"611 367 LINE",
"670 424 LINE",
"378 716 LINE",
"86 424 LINE",
"146 367 LINE",
"342 563 LINE",
"335 505 LINE",
"335 71 LINE"
);
}
);
width = 757;
}
);
leftKerningGroup = upArrow;
rightKerningGroup = upArrow;
unicode = 2191;
},
{
color = 8;
glyphname = northEastArrow;
lastChange = "2018-06-22 22:17:12 +0000";
layers = (
{
layerId = "12ECCE5E-04E9-4725-8BD5-31F21F15BB81";
paths = (
{
closed = 1;
nodes = (
"487 442 LINE",
"525 488 LINE",
"524 210 LINE",
"606 209 LINE",
"606 622 LINE",
"193 622 LINE",
"195 539 LINE",
"472 539 LINE",
"426 503 LINE",
"120 196 LINE",
"180 135 LINE"
);
}
);
width = 757;
}
);
unicode = 2197;
},
{
glyphname = rightArrow;
lastChange = "2018-06-22 22:17:12 +0000";
layers = (
{
layerId = "12ECCE5E-04E9-4725-8BD5-31F21F15BB81";
paths = (
{
closed = 1;
nodes = (
"702 379 LINE",
"410 671 LINE",
"352 612 LINE",
"549 416 LINE",
"491 422 LINE",
"56 422 LINE",
"57 337 LINE",
"491 337 LINE",
"549 343 LINE",
"352 146 LINE",
"410 87 LINE"
);
}
);
width = 757;
}
);
leftKerningGroup = rightArrow;
rightKerningGroup = rightArrow;
unicode = 2192;
},
{
color = 8;
glyphname = southEastArrow;
lastChange = "2018-06-22 22:17:12 +0000";
layers = (
{
layerId = "12ECCE5E-04E9-4725-8BD5-31F21F15BB81";
paths = (
{
closed = 1;
nodes = (
"607 136 LINE",
"607 549 LINE",
"524 547 LINE",
"524 270 LINE",
"488 316 LINE",
"181 622 LINE",
"120 562 LINE",
"427 255 LINE",
"473 217 LINE",
"195 218 LINE",
"194 136 LINE"
);
}
);
width = 757;
}
);
unicode = 2198;
},
{
glyphname = downArrow;
lastChange = "2018-06-22 22:17:12 +0000";
layers = (
{
layerId = "12ECCE5E-04E9-4725-8BD5-31F21F15BB81";
paths = (
{
closed = 1;
nodes = (
"670 363 LINE",
"611 420 LINE",
"415 223 LINE",
"421 282 LINE",
"421 716 LINE",
"335 716 LINE",
"335 282 LINE",
"342 223 LINE",
"146 420 LINE",
"86 363 LINE",
"378 71 LINE"
);
}
);
width = 757;
}
);
leftKerningGroup = downArrow;
rightKerningGroup = downArrow;
unicode = 2193;
},
{
color = 8;
glyphname = southWestArrow;
lastChange = "2018-06-22 22:17:12 +0000";
layers = (
{
layerId = "12ECCE5E-04E9-4725-8BD5-31F21F15BB81";
paths = (
{
closed = 1;
nodes = (
"563 136 LINE",
"562 218 LINE",
"284 217 LINE",
"330 255 LINE",
"637 562 LINE",
"576 622 LINE",
"269 316 LINE",
"233 270 LINE",
"233 547 LINE",
"150 549 LINE",
"150 136 LINE"
);
}
);
width = 757;
}
);
unicode = 2199;
},
{
glyphname = leftArrow;
lastChange = "2018-06-22 18:32:31 +0000";
layers = (
{
layerId = "12ECCE5E-04E9-4725-8BD5-31F21F15BB81";
paths = (
{
closed = 1;
nodes = (
"405 146 LINE",
"208 343 LINE",
"267 337 LINE",
"701 337 LINE",
"702 422 LINE",
"267 422 LINE",
"208 416 LINE",
"405 612 LINE",
"348 671 LINE",
"56 379 LINE",
"348 87 LINE"
);
}
);
width = 757;
}
);
leftKerningGroup = leftArrow;
rightKerningGroup = leftArrow;
unicode = 2190;
},
{
color = 8;
glyphname = northWestArrow;
lastChange = "2018-06-22 22:17:12 +0000";
layers = (
{
layerId = "12ECCE5E-04E9-4725-8BD5-31F21F15BB81";
paths = (
{
closed = 1;
nodes = (
"637 196 LINE",
"330 503 LINE",
"284 541 LINE",
"562 540 LINE",
"563 622 LINE",
"150 622 LINE",
"150 209 LINE",
"233 211 LINE",
"233 488 LINE",
"269 442 LINE",
"576 136 LINE"
);
}
);
width = 757;
}
);
unicode = 2196;
},
{
glyphname = lozenge;
lastChange = "2018-06-22 18:32:31 +0000";
layers = (
{
layerId = "12ECCE5E-04E9-4725-8BD5-31F21F15BB81";
paths = (
{
closed = 1;
nodes = (
"372 -92 LINE",
"605 333 LINE",
"372 757 LINE",
"274 757 LINE",
"41 333 LINE",
"47 333 LINE",
"41 333 LINE",
"274 -92 LINE"
);
},
{
closed = 1;
nodes = (
"167 332 LINE",
"160 333 LINE",
"167 333 LINE",
"323 634 LINE",
"480 333 LINE",
"323 31 LINE"
);
}
);
width = 646;
}
);
leftKerningGroup = lozenge;
rightKerningGroup = lozenge;
unicode = 25CA;
userData = {
com.typemytype.robofont.mark = (
0.6,
0.986,
1,
1
);
};
},
{
glyphname = mediumBlackSquare;
lastChange = "2018-06-22 22:17:12 +0000";
layers = (
{
layerId = "12ECCE5E-04E9-4725-8BD5-31F21F15BB81";
paths = (
{
closed = 1;
nodes = (
"556 0 LINE",
"556 556 LINE",
"0 556 LINE",
"0 0 LINE"
);
}
);
width = 556;
}
);
unicode = 25FC;
},
{
color = 4;
glyphname = at;
lastChange = "2018-06-22 22:17:12 +0000";
layers = (
{
layerId = "12ECCE5E-04E9-4725-8BD5-31F21F15BB81";
paths = (
{
closed = 1;
nodes = (
"573 -184 OFFCURVE",
"651 -155 OFFCURVE",
"699 -134 CURVE",
"670 -72 LINE",
"626 -93 OFFCURVE",
"557 -115 OFFCURVE",
"467 -115 CURVE SMOOTH",
"264 -115 OFFCURVE",
"132 -4 OFFCURVE",
"132 194 CURVE SMOOTH",
"132 415 OFFCURVE",
"315 580 OFFCURVE",
"554 580 CURVE SMOOTH",
"752 580 OFFCURVE",
"840 474 OFFCURVE",
"840 333 CURVE SMOOTH",
"840 239 OFFCURVE",
"778 99 OFFCURVE",
"670 99 CURVE SMOOTH",
"651 99 OFFCURVE",
"640 105 OFFCURVE",
"640 128 CURVE SMOOTH",
"640 136 OFFCURVE",
"642 148 OFFCURVE",
"645 162 CURVE SMOOTH",
"707 433 LINE",
"613 433 LINE",
"600 378 LINE",
"588 413 OFFCURVE",
"559 437 OFFCURVE",
"492 437 CURVE SMOOTH",
"372 437 OFFCURVE",
"265 345 OFFCURVE",
"265 196 CURVE SMOOTH",
"265 86 OFFCURVE",
"334 24 OFFCURVE",
"423 24 CURVE SMOOTH",
"476 24 OFFCURVE",
"524 44 OFFCURVE",
"557 89 CURVE",
"560 54 OFFCURVE",
"578 21 OFFCURVE",
"637 21 CURVE SMOOTH",
"799 21 OFFCURVE",
"915 168 OFFCURVE",
"915 340 CURVE SMOOTH",
"915 504 OFFCURVE",
"802 645 OFFCURVE",
"568 645 CURVE SMOOTH",
"278 645 OFFCURVE",
"54 455 OFFCURVE",
"54 182 CURVE SMOOTH",
"54 -31 OFFCURVE",
"206 -184 OFFCURVE",
"463 -184 CURVE SMOOTH"
);
},
{
closed = 1;
nodes = (
"393 106 OFFCURVE",
"366 147 OFFCURVE",
"366 201 CURVE SMOOTH",
"366 290 OFFCURVE",
"418 358 OFFCURVE",
"496 358 CURVE SMOOTH",
"552 358 OFFCURVE",
"575 321 OFFCURVE",
"575 267 CURVE SMOOTH",
"575 197 OFFCURVE",
"536 106 OFFCURVE",
"452 106 CURVE SMOOTH"
);
}
);
width = 969;
}
);
leftKerningGroup = at;
rightKerningGroup = at;
unicode = 0040;
userData = {
com.typemytype.robofont.mark = (
0.656,
1,
0.6,
1
);
};
},
{
glyphname = ampersand;
lastChange = "2018-06-22 22:17:12 +0000";
layers = (
{
layerId = "12ECCE5E-04E9-4725-8BD5-31F21F15BB81";
paths = (
{
closed = 1;
nodes = (
"395 -15 OFFCURVE",
"456 11 OFFCURVE",
"508 50 CURVE",
"533 20 OFFCURVE",
"549 0 OFFCURVE",
"549 0 CURVE",
"669 0 LINE",
"669 0 OFFCURVE",
"626 52 OFFCURVE",
"573 119 CURVE",
"644 176 OFFCURVE",
"688 240 OFFCURVE",
"688 240 CURVE",
"605 308 LINE",
"605 308 OFFCURVE",
"573 253 OFFCURVE",
"511 198 CURVE",
"457 266 OFFCURVE",
"403 335 OFFCURVE",
"371 377 CURVE",
"470 460 OFFCURVE",
"503 517 OFFCURVE",
"503 597 CURVE SMOOTH",
"503 679 OFFCURVE",
"441 754 OFFCURVE",
"332 754 CURVE SMOOTH",
"231 754 OFFCURVE",
"151 687 OFFCURVE",
"151 583 CURVE SMOOTH",
"151 518 OFFCURVE",
"178 475 OFFCURVE",
"231 406 CURVE",
"152 350 OFFCURVE",
"92 291 OFFCURVE",
"92 201 CURVE SMOOTH",
"92 53 OFFCURVE",
"207 -15 OFFCURVE",
"321 -15 CURVE SMOOTH"
);
},
{
closed = 1;
nodes = (
"250 84 OFFCURVE",
"212 133 OFFCURVE",
"212 197 CURVE SMOOTH",
"212 242 OFFCURVE",
"231 275 OFFCURVE",
"292 320 CURVE",
"329 274 OFFCURVE",
"392 194 OFFCURVE",
"443 131 CURVE",
"391 86 OFFCURVE",
"351 84 OFFCURVE",
"329 84 CURVE SMOOTH"
);
},
{
closed = 1;
nodes = (
"273 509 OFFCURVE",
"250 548 OFFCURVE",
"250 583 CURVE SMOOTH",
"250 638 OFFCURVE",
"290 664 OFFCURVE",
"328 664 CURVE SMOOTH",
"373 664 OFFCURVE",
"401 636 OFFCURVE",
"401 594 CURVE SMOOTH",
"401 542 OFFCURVE",
"375 509 OFFCURVE",
"312 459 CURVE"
);
}
);
width = 749;
}
);
leftKerningGroup = ampersand;
rightKerningGroup = ampersand;
unicode = 0026;
userData = {
com.typemytype.robofont.mark = (
0.656,
1,
0.6,
1
);
};
},
{
glyphname = paragraph;
lastChange = "2018-06-22 18:32:31 +0000";
layers = (
{
layerId = "12ECCE5E-04E9-4725-8BD5-31F21F15BB81";
paths = (
{
closed = 1;
nodes = (
"399 -93 LINE",
"399 642 LINE",
"536 642 LINE",
"536 -93 LINE",
"642 -93 LINE",
"642 642 LINE",
"732 642 LINE",
"732 736 LINE",
"293 736 LINE SMOOTH",
"178 736 OFFCURVE",
"91 653 OFFCURVE",
"91 535 CURVE SMOOTH",
"91 425 OFFCURVE",
"170 334 OFFCURVE",
"293 330 CURVE",
"293 -93 LINE"
);
}
);
width = 830;
}
);
leftKerningGroup = paragraph;
rightKerningGroup = paragraph;
unicode = 00B6;
userData = {
com.typemytype.robofont.mark = (
0.656,
1,
0.6,
1
);
};
},
{
glyphname = section;
lastChange = "2018-06-22 22:17:12 +0000";
layers = (
{
layerId = "12ECCE5E-04E9-4725-8BD5-31F21F15BB81";
paths = (
{
closed = 1;
nodes = (
"397 -189 OFFCURVE",
"498 -117 OFFCURVE",
"498 20 CURVE SMOOTH",
"498 80 OFFCURVE",
"472 128 OFFCURVE",
"436 161 CURVE SMOOTH",
"430 167 OFFCURVE",
"423 173 OFFCURVE",
"416 178 CURVE",
"468 213 OFFCURVE",
"500 270 OFFCURVE",
"500 348 CURVE SMOOTH",
"500 412 OFFCURVE",
"474 464 OFFCURVE",
"438 499 CURVE",
"349 580 OFFCURVE",
"187 607 OFFCURVE",
"187 711 CURVE SMOOTH",
"187 771 OFFCURVE",
"237 802 OFFCURVE",
"293 802 CURVE SMOOTH",
"349 802 OFFCURVE",
"397 776 OFFCURVE",
"421 752 CURVE",
"473 845 LINE",
"446 868 OFFCURVE",
"393 904 OFFCURVE",
"298 904 CURVE SMOOTH",
"178 904 OFFCURVE",
"76 842 OFFCURVE",
"76 708 CURVE SMOOTH",
"76 627 OFFCURVE",
"112 575 OFFCURVE",
"157 541 CURVE",
"106 509 OFFCURVE",
"73 456 OFFCURVE",
"73 380 CURVE SMOOTH",
"73 285 OFFCURVE",
"119 228 OFFCURVE",
"171 191 CURVE",
"261 131 OFFCURVE",
"381 108 OFFCURVE",
"381 7 CURVE SMOOTH",
"381 -54 OFFCURVE",
"328 -84 OFFCURVE",
"264 -84 CURVE SMOOTH",
"203 -84 OFFCURVE",
"137 -49 OFFCURVE",
"115 -30 CURVE",
"63 -127 LINE",
"95 -158 OFFCURVE",
"179 -189 OFFCURVE",
"264 -189 CURVE SMOOTH"
);
},
{
closed = 1;
nodes = (
"255 275 OFFCURVE",
"185 312 OFFCURVE",
"185 384 CURVE SMOOTH",
"185 436 OFFCURVE",
"208 468 OFFCURVE",
"251 483 CURVE",
"320 446 OFFCURVE",
"383 412 OFFCURVE",
"383 335 CURVE SMOOTH",
"383 289 OFFCURVE",
"365 251 OFFCURVE",
"328 234 CURVE"
);
}
);
width = 554;
}
);
leftKerningGroup = section;
rightKerningGroup = section;
unicode = 00A7;
userData = {
com.typemytype.robofont.mark = (
0.656,
1,
0.6,
1
);
};
},
{
glyphname = copyright;
lastChange = "2018-06-22 22:17:12 +0000";
layers = (
{
layerId = "12ECCE5E-04E9-4725-8BD5-31F21F15BB81";
paths = (
{
closed = 1;
nodes = (
"626 -8 OFFCURVE",
"786 150 OFFCURVE",
"786 365 CURVE SMOOTH",
"786 580 OFFCURVE",
"625 732 OFFCURVE",
"423 732 CURVE SMOOTH",
"221 732 OFFCURVE",
"52 580 OFFCURVE",
"52 365 CURVE SMOOTH",
"52 150 OFFCURVE",
"221 -8 OFFCURVE",
"424 -8 CURVE SMOOTH"
);
},
{
closed = 1;
nodes = (
"484 164 OFFCURVE",
"531 170 OFFCURVE",
"544 182 CURVE",
"542 264 LINE",
"531 257 OFFCURVE",
"494 249 OFFCURVE",
"449 249 CURVE SMOOTH",
"369 249 OFFCURVE",
"336 290 OFFCURVE",
"336 364 CURVE SMOOTH",
"336 435 OFFCURVE",
"367 473 OFFCURVE",
"449 473 CURVE SMOOTH",
"503 473 OFFCURVE",
"525 464 OFFCURVE",
"536 456 CURVE",
"536 549 LINE",
"521 558 OFFCURVE",
"489 562 OFFCURVE",
"442 562 CURVE SMOOTH",
"320 562 OFFCURVE",
"234 476 OFFCURVE",
"234 363 CURVE SMOOTH",
"234 250 OFFCURVE",
"315 164 OFFCURVE",
"448 164 CURVE SMOOTH"
);
},
{
closed = 1;
nodes = (
"255 49 OFFCURVE",
"116 183 OFFCURVE",
"116 365 CURVE SMOOTH",
"116 547 OFFCURVE",
"254 675 OFFCURVE",
"423 675 CURVE",
"590 675 OFFCURVE",
"723 547 OFFCURVE",
"723 365 CURVE SMOOTH",
"723 183 OFFCURVE",
"590 49 OFFCURVE",
"423 49 CURVE SMOOTH"
);
}
);
width = 838;
}
);
leftKerningGroup = copyright;
rightKerningGroup = copyright;
unicode = 00A9;
userData = {
com.typemytype.robofont.mark = (
0.656,
1,
0.6,
1
);
};
},
{
glyphname = registered;
lastChange = "2018-06-22 22:17:12 +0000";
layers = (
{
layerId = "12ECCE5E-04E9-4725-8BD5-31F21F15BB81";
paths = (
{
closed = 1;
nodes = (
"626 -8 OFFCURVE",
"786 150 OFFCURVE",
"786 365 CURVE SMOOTH",
"786 580 OFFCURVE",
"625 732 OFFCURVE",
"423 732 CURVE SMOOTH",
"221 732 OFFCURVE",
"52 580 OFFCURVE",
"52 365 CURVE SMOOTH",
"52 150 OFFCURVE",
"221 -8 OFFCURVE",
"424 -8 CURVE SMOOTH"
);
},
{
closed = 1;
nodes = (
"255 49 OFFCURVE",
"116 183 OFFCURVE",
"116 365 CURVE SMOOTH",
"116 547 OFFCURVE",
"254 675 OFFCURVE",
"423 675 CURVE SMOOTH",
"590 675 OFFCURVE",
"723 547 OFFCURVE",
"723 365 CURVE SMOOTH",
"723 183 OFFCURVE",
"590 49 OFFCURVE",
"423 49 CURVE SMOOTH"
);
},
{
closed = 1;
nodes = (
"359 170 LINE",
"359 296 LINE",
"403 296 LINE",
"484 170 LINE",
"598 170 LINE",
"497 306 LINE",
"581 326 OFFCURVE",
"590 384 OFFCURVE",
"590 432 CURVE SMOOTH",
"590 516 OFFCURVE",
"538 563 OFFCURVE",
"428 563 CURVE SMOOTH",
"271 563 LINE",
"271 170 LINE"
);
},
{
closed = 1;
nodes = (
"359 498 LINE",
"422 498 LINE SMOOTH",
"480 498 OFFCURVE",
"497 471 OFFCURVE",
"497 430 CURVE SMOOTH",
"497 389 OFFCURVE",
"480 366 OFFCURVE",
"420 366 CURVE SMOOTH",
"359 366 LINE"
);
}
);
width = 838;
}
);
leftKerningGroup = registered;
leftMetricsKey = copyright;
widthMetricsKey = copyright;
rightKerningGroup = registered;
unicode = 00AE;
userData = {
com.typemytype.robofont.mark = (
0.656,
1,
0.6,
1
);
};
},
{
color = 9;
glyphname = published;
lastChange = "2018-06-22 22:17:12 +0000";
layers = (
{
layerId = "12ECCE5E-04E9-4725-8BD5-31F21F15BB81";
paths = (
{
closed = 1;
nodes = (
"626 -8 OFFCURVE",
"786 150 OFFCURVE",
"786 365 CURVE SMOOTH",
"786 580 OFFCURVE",
"625 732 OFFCURVE",
"423 732 CURVE SMOOTH",
"221 732 OFFCURVE",
"52 580 OFFCURVE",
"52 365 CURVE SMOOTH",
"52 150 OFFCURVE",
"221 -8 OFFCURVE",
"424 -8 CURVE SMOOTH"
);
},
{
closed = 1;
nodes = (
"255 49 OFFCURVE",
"116 183 OFFCURVE",
"116 365 CURVE SMOOTH",
"116 547 OFFCURVE",
"254 675 OFFCURVE",
"423 675 CURVE SMOOTH",
"590 675 OFFCURVE",
"723 547 OFFCURVE",
"723 365 CURVE SMOOTH",
"723 183 OFFCURVE",
"590 49 OFFCURVE",
"423 49 CURVE SMOOTH"
);
},
{
closed = 1;
nodes = (
"372 170 LINE",
"372 286 LINE",
"428 286 LINE SMOOTH",
"542 286 OFFCURVE",
"591 316 OFFCURVE",
"591 427 CURVE SMOOTH",
"591 511 OFFCURVE",
"538 563 OFFCURVE",
"428 563 CURVE SMOOTH",
"284 563 LINE",
"284 170 LINE"
);
},
{
closed = 1;
nodes = (
"372 498 LINE",
"422 498 LINE SMOOTH",
"480 498 OFFCURVE",
"498 466 OFFCURVE",
"498 425 CURVE SMOOTH",
"498 384 OFFCURVE",
"480 356 OFFCURVE",
"433 356 CURVE SMOOTH",
"372 356 LINE"
);
}
);
width = 838;
}
);
leftMetricsKey = copyright;
widthMetricsKey = copyright;
unicode = 2117;
},
{
glyphname = trademark;
lastChange = "2018-06-22 22:17:12 +0000";
layers = (
{
layerId = "12ECCE5E-04E9-4725-8BD5-31F21F15BB81";
paths = (
{
closed = 1;
nodes = (
"785 512 LINE",
"830 297 LINE",
"914 297 LINE",
"820 734 LINE",
"659 445 LINE",
"491 734 LINE",
"404 297 LINE",
"487 297 LINE",
"528 511 LINE",
"659 290 LINE"
);
},
{
closed = 1;
nodes = (
"285 297 LINE",
"285 648 LINE",
"396 648 LINE",
"396 728 LINE",
"87 728 LINE",
"87 648 LINE",
"197 648 LINE",
"197 297 LINE"
);
}
);
width = 1012;
}
);
leftKerningGroup = trademark;
rightKerningGroup = trademark;
unicode = 2122;
userData = {
com.typemytype.robofont.mark = (
0.967,
0.6,
1,
1
);
};
},
